<?xml version="1.0" encoding="utf-8"?>
<!-- Generator: Adobe Illustrator 27.5.0, SVG Export Plug-In . SVG Version: 6.00 Build 0)  -->
<svg version="1.1" xmlns="http://www.w3.org/2000/svg" xmlns:xlink="http://www.w3.org/1999/xlink" x="0px" y="0px"
	 viewBox="0 0 1000 800" style="enable-background:new 0 0 1000 800;" xml:space="preserve">
<g id="Background">
	<rect x="0" y="0" style="fill:#B5D6CA;" width="1000" height="800"/>
</g>
<g id="Shadow">
	<g style="opacity:0.12;">
		<path style="fill:#1A3151;" d="M488.767,668.542c-23.024,0.073-46.047,0.659-69.03,3.367c-8.666,1.021-17.15,3.267-25.835,4.173
			c-17.349,1.81-34.387,5.185-51.797,6.742c-14.02,1.254-28.099,1.994-42.079,3.585c-13.106,1.492-27.616,1.147-40.622-1.317
			c-9.628-1.824-19.3-2.851-28.767-5.781c-10.59-3.278-22.094-5.621-33.128-5.537c-15.734,0.12-31.056,0.134-46.113,5.922
			c-5.286,2.032-11.756,5.371-15.77,9.635c-9.188,9.761-10.432,34.115-1.258,44.238c15.452,17.038,48.432,23.723,70.091,24.039
			c23.734,0.346,46.791-1.521,70.56-2.618c22.087-1.02,44.118-2.471,66.241-2.42c45.184,0.104,90.374,0,135.477-3.198
			c42.375-3.004,84.856-1.973,127.324-1.973c43.549,0,86.804,0.363,130.038,6.494c18.838,2.672,38.03,3.607,56.962,5.479
			c16.956,1.676,33.25-0.033,50.138-1.582c14.181-1.301,28.269-5.159,41.152-11.682c10.198-5.163,28.378-21.203,31.505-33.527
			c8.767-34.55-123.56-33.719-143.878-33.642c-22.729,0.087-45.638,0.879-68.349-0.039c-9.553-0.386-18.966-2.364-28.29-4.532
			c-9.287-2.159-18.644-1.61-28.062-2.517c-39.274-3.784-78.636-3.231-118.036-3.231
			C514.423,668.621,501.595,668.502,488.767,668.542z"/>
	</g>
</g>
<g id="Object">
	<g>
		<g>
			<polygon style="fill:#145566;" points="572.95,710.787 574.134,719.995 556.902,731.571 546.51,723.547 554.534,713.155 
				571.766,701.579 			"/>
			<g>
				<polygon style="fill:#1A3151;" points="573.533,707.696 560.244,590.264 576.233,458.798 572.637,430.834 501.22,428.121 
					498.643,473.637 510.632,590.444 555.737,713.698 				"/>
			</g>
			<g>
				<polygon style="fill:#1A3151;" points="448.817,441.28 448.629,559.785 472.483,712.339 489.652,712.168 499.089,571.091 
					521.177,429.887 				"/>
				<polygon style="fill:#145566;" points="489.625,719.409 471.151,728.877 461.775,719.686 470.966,710.31 489.533,710.125 				
					"/>
			</g>
			<g>
				<path style="fill:#9EA6AD;" d="M583.623,481.584c-0.164-5.135-0.449-9.421-0.49-10.951c-0.368-13.776-1.595-27.521-3.32-41.199
					c-1.545-12.257-3.496-42.686-5.594-54.868c-1.732-10.058-7.767-35.163-12.128-44.492c-10.844-23.2-7.494-25.343-55.129-32.232
					c-20.877-3.019-25.812,9.992-42.879,24.953c-1.683,1.476-1.59,10.262-1.981,12.589c-0.688,4.097-1.425,8.188-2.27,12.259
					c-0.664,3.2-1.397,6.39-2.217,9.558c-8.494,32.803-18.264,64.337-20.258,98.339c-0.565,9.592-3.515,18.903-3.254,28.581
					c0.03,1.113,0.121,2.305,0.813,3.177c2.882,3.634,18.795-1.917,23.63-2.393c12.293-1.21,24.837-1.97,37.196-1.877
					c12.684,0.095,25.42,1.378,37.889,3.529c8.339,1.394,16.848,3.419,24.308,7.315c7.117,3.717,12.253,9.186,19.474,13.035
					c0.684,0.365,1.434,0.742,2.211,0.634C583.773,506.965,583.968,492.393,583.623,481.584z"/>
			</g>
			<g>
				<path style="fill:#D5C6AB;" d="M506.908,304.384c2.403,1.187,8.076,1.613,13.994-0.705c1.192-0.467,1.997-1.617,1.98-2.898
					c-0.047-3.594-0.336-7.186-0.865-10.741c4.438-1.561,9.567-3.901,10.341-8.542c0.244-1.462-0.009-2.955-0.261-4.416
					c-1.043-6.037-2.086-12.073-3.13-18.11c-0.361-2.088-0.744-4.237-1.88-6.026c-1.992-3.139-5.859-4.512-9.522-5.148
					c-9.348-1.623-19.535,0.402-26.783,6.525c-1.929,1.63-3.673,3.588-4.524,5.966c-1.311,3.666-0.33,7.709,0.658,11.475
					c0.913,3.476,1.825,6.952,2.738,10.428c1.05,3.998,2.565,8.542,6.417,10.041c2.045,0.796,4.46,0.564,6.311,1.741
					C505.65,296.052,505.21,300.907,506.908,304.384z"/>
				<path style="fill:#3B455A;" d="M455.351,243.914c-1.601-14.988,4.946-30.774,17.276-27.635
					c7.468,1.901,14.152,5.049,21.67,2.241c7.065-2.638,12.167-1.563,19.551,1.071c7.99,2.851,18.716,3.523,25.949,7.548
					c3.02,1.681,5.43,4.307,7.308,7.208c6.508,10.052,6.544,23.911,0.088,33.997c-1.448,2.263-3.182,4.331-5.003,6.306
					c-3.77,4.088-8.279,9.137-13.464,10.652c-0.123-4.639,4.102-19.266,0.54-23.068c-5.654-6.033-18.436-3.929-25.45-2.443
					c-7.65,1.62-14.469,7.038-22.053,8.195C465.018,270.542,456.808,257.558,455.351,243.914z"/>
			</g>
		</g>
		<circle style="fill:#145566;" cx="514.074" cy="228.585" r="173.566"/>
		<g>
			<g>
				<path style="fill:#FFFFFF;" d="M611.281,126c0,0-69.386,14.091-94.971,46.75c-25.586,32.66-3.002,78.312-3.002,78.312
					s49.731,10.999,75.317-21.661C614.21,196.741,611.281,126,611.281,126z"/>
				<path style="fill:#145566;" d="M513.309,251.062c0,0,2.869,0.629,7.551,1.139l54.041-79.762l-64.506,71.564
					C512.012,248.427,513.309,251.062,513.309,251.062z"/>
			</g>
			<g>
				<path style="fill:#FFFFFF;" d="M391.811,195.451c0,0,12.81,61.875,42.044,84.598c29.234,22.723,69.899,2.413,69.899,2.413
					s9.647-44.419-19.587-67.142C454.934,192.597,391.811,195.451,391.811,195.451z"/>
				<path style="fill:#145566;" d="M503.754,282.462c0,0,0.551-2.562,0.991-6.743l-71.366-47.958l64.085,57.325
					C501.407,283.628,503.754,282.462,503.754,282.462z"/>
			</g>
			<path style="fill:#FFFFFF;" d="M513.309,251.062c0,0,75.281-14.942,94.899-75.578
				C608.208,175.484,603.096,269.865,513.309,251.062z"/>
			<path style="fill:#FFFFFF;" d="M511.05,244.774c0,0-19.014,32.046-15.006,110.29l20.588-0.368c0,0-7.905-68.27,5.324-107.227
				L511.05,244.774z"/>
		</g>
		<polygon style="fill:#1A3151;" points="782.726,310.763 856.047,390.25 800.319,437.566 792.079,427.629 813.904,382.273 
			771.156,344.583 		"/>
		<g>
			<g>
				<polygon style="fill:#145566;" points="800.974,508.845 804.283,585.603 794.582,716.116 780.065,717.148 762.429,598.61 
					738.03,498.305 				"/>
				<polygon style="fill:#1A3151;" points="780.584,723.263 796.84,729.997 804.131,721.59 795.724,714.299 780.026,715.414 				"/>
			</g>
			<g>
				<polygon style="fill:#145566;" points="698.213,481.684 695.028,539.703 704.48,712.218 719.015,712.944 740.799,599.797 
					760.013,475.717 				"/>
				<polygon style="fill:#1A3151;" points="718.625,719.069 702.514,726.143 695.048,717.891 703.3,710.425 719.018,711.21 				"/>
			</g>
			<g>
				<path style="fill:#1A3151;" d="M782.726,310.763l-45.357-4.859c0,0-25.233,2.696-42.353,62.62
					c-9.526,33.339-12.425,85.865-13.123,125.909c1.071,5.712,7.295,30.734,33.61,26.489c45.19-7.289,69.243-14.578,88.923-10.933
					c16.764,3.644,15.346-19.436,13.504-37.05l-6.68-54.499L782.726,310.763z"/>
			</g>
			<g>
				<path style="fill:#B77858;" d="M773.967,254.304c-11.432-2.52-23.199-4.778-34.643-2.512c-2.507,0.496-5.197,1.369-6.557,3.532
					c-0.527,0.838-0.805,1.805-1.063,2.761c-2.888,10.735-6.552,26.649,0.516,36.54c1.348,1.886,3.158,3.383,5.103,4.599
					c2.6,1.625,5.479,2.73,8.457,3.318c-0.616,2.669-1.473,5.282-2.56,7.796c2.617,3.946,14.826,4.419,17.083,0.636
					c0.126-3.274,0.253-6.547,0.379-9.821c1.486-0.6,2.922-1.33,4.27-2.218c5.218-3.436,8.656-8.651,10.653-14.486
					c2.174-6.353,5.234-12.392,7.22-18.867c0.724-2.359,1.295-5.051,0.054-7.183c-1.321-2.27-4.173-3.043-6.736-3.614
					C775.418,254.625,774.693,254.464,773.967,254.304z"/>
				<path style="fill:#1A3151;" d="M735.915,260.442c5.65-3.634,14.128-5.198,19.441-4.813c16.063,1.164,21.948,12.96,22.805,27.729
					c4.425-5.624,12.73-12.699,13.231-19.936c0.411-5.924-0.409-14.002-3.727-19.118c-3.106-4.787-11.046-7.416-15.769-10.19
					c-4.451-2.615-8.903-5.23-13.354-7.844c-0.926-0.544-1.877-1.097-2.935-1.281c-1.251-0.217-2.526,0.103-3.755,0.421
					c-10.521,2.719-21.042,5.438-31.563,8.158c-2.021,0.522-4.324,1.285-5.068,3.236c-0.453,1.186-0.187,2.511,0.085,3.752
					c1.195,5.462,3.488,11.044,4.055,16.577c0.643,3.214,2.559,19.689,8.251,17.788c1.671-2.733,1.922-6.099,3.223-9.025
					C731.797,263.73,733.623,261.916,735.915,260.442z"/>
			</g>
			<polygon style="fill:#1A3151;" points="737.369,305.903 720.605,311.005 659.379,375.146 655.735,396.284 685.004,444.61 
				692.907,426.897 680.517,391.182 700.196,377.333 726.436,318.294 			"/>
		</g>
		<path style="fill:#FFFFFF;" d="M844.069,269.882c1.311-8.524-4.512-16.511-13.038-17.858c-8.548-1.35-16.571,4.484-17.922,13.031
			c0,0-0.001,0.012-0.002,0.017l-20.801,64.782c-4.897,15.252-15.873,27.805-30.334,34.694l-52.939,25.22l39.781-43.452
			c0.655-0.597,1.259-1.251,1.798-1.964l0.019-0.021l-0.003-0.003c1.371-1.822,2.333-3.992,2.714-6.401
			c1.241-7.855-4.121-15.229-11.976-16.47c-3.564-0.563-7.022,0.244-9.86,2.015l-0.008-0.008l-53.051,35.111
			c-22.927,15.173-38.426,39.278-42.717,66.434l-4.78,30.254c-3.237,20.487,10.747,39.719,31.235,42.956
			c7.919,1.251,15.638-0.094,22.331-3.37c1.831-0.896,3.586-1.931,5.243-3.107l108.708-64.408
			c14.486-8.582,24.391-23.176,27.018-39.807l18.586-117.647L844.069,269.882z"/>
		<g>
			<g>
				<g>
					<g>
						<polygon style="fill:#E2BDAA;" points="291.702,513.052 228.64,489.861 241.638,600.334 234.106,695.643 233.904,696.278 
							234.055,696.295 233.554,702.639 245.271,702.639 246.136,702.639 246.136,702.639 274.719,612.813 289.422,522.36 
							289.422,522.36 						"/>
						<polygon style="fill:#1A3151;" points="245.831,702.033 232.93,701.706 229.635,712.592 229.96,712.689 229.878,712.698 
							251.207,725.337 261.349,726.464 262.638,714.874 259.898,712.867 						"/>
					</g>
					<g>
						<polygon style="fill:#E2BDAA;" points="334.657,514.95 315.214,709.271 303.886,709.858 290.708,602.533 268.969,500.817 
													"/>
						<polygon style="fill:#1A3151;" points="315.699,708.491 332.233,717.866 330.684,725.667 301.141,721.215 302.879,709.975 
													"/>
					</g>
					<g>
						<path style="fill:#3ABABA;" d="M364.223,562.453c3.99-2.771,4.076-7.595,4.069-12.427c-0.013-9.073-1.645-18.348-3.725-27.165
							c-3.96-16.541-8.449-36.463-10.423-57.896c-5.102-55.395-22.595-92.567-22.595-92.567l-5.645-15.052
							c-1.122-1.957-2.286-3.893-3.501-5.8c-7.05-11.063-19.291-29.863-32.382-32.94c-0.274-0.064-0.549-0.127-0.825-0.188
							c-13.764-3.021-31.401-1.619-43.841,5.073c-2.36,1.27-4.459,2.961-6.543,4.642c-6.082,4.906-11.043,7.563-13.665,15.04
							c-2.277,6.492-2.806,13.576-4.061,20.303c-2.55,13.668-4.072,27.5-6.108,41.247c-3.819,25.78-7.062,51.644-11.147,77.384
							c-2.102,13.247-4.22,26.519-5.213,39.906c-0.878,11.835-11.556,23.854-17.556,34.46c-2.088,3.691,27.898,13.255,30.586,13.881
							c12.439,2.896,25.671,2.156,38.493,2.214c28.1,0.127,56.205-0.739,84.244-2.598c9.318-0.618,20.799-2.396,29.067-7.035
							C363.723,562.782,363.98,562.621,364.223,562.453z"/>
					</g>
					<g>
						<g>
							<path style="fill:#1A3151;" d="M295.838,288.607c2.395,7.191-1.071,14.859-4.114,21.412
								c-2.698,5.811-3.637,9.637,3.213,11.204c3.86,0.884,10.708,2.532,14.094-0.423c2.563-2.239,1.122-9.152-0.125-11.899
								c-0.953-2.097-3.473-3.162-4.369-5.284c-0.369-0.875-0.423-1.847-0.436-2.796c-0.053-3.877,0.483-7.762,1.585-11.479
								c0.749-2.524,1.762-5.004,1.988-7.627c0.328-3.804-2.362-8.236-3.776-11.731c-2.63-6.502-11.783-15.225-19.447-10.12
								c-1.745,1.162-2.761,3.127-3.611,5.044c-0.507,1.145-0.989,2.339-1.004,3.591c-0.059,4.992,4.499,5.835,7.647,8.211
								C291.366,279.641,294.309,284.018,295.838,288.607z"/>
							<path style="fill:#E2BDAA;" d="M281.261,316.668c6.648-1.566,11.845-7.148,14.343-13.505
								c2.498-6.356,2.628-13.405,1.937-20.2c-2.299-22.61-30.425-21.159-39.949-3.829
								C249.291,294.237,261.932,321.221,281.261,316.668z"/>
						</g>
						<path style="fill:#E2BDAA;" d="M281.254,314.231c-0.111,2.576-0.223,5.151-0.334,7.727c-0.016,0.377-0.048,0.791-0.312,1.061
							c-0.3,0.307-0.785,0.313-1.214,0.298c-2.099-0.073-4.198-0.145-6.297-0.218c-1.04-0.036-2.122-0.083-3.039-0.575
							c-2.008-1.077-2.423-3.799-2.102-6.055c0.32-2.256,1.13-4.529,0.651-6.757c4.334,2.135,8.451-2.69,12.785-0.555
							L281.254,314.231z"/>
					</g>
					<path style="fill:#1A3151;" d="M272.183,243.764c-7.385,2.509-12.121,9.979-19.328,12.962
						c-4.133,1.711-9.024,1.928-12.397,4.868c-7.557,6.587-1.483,20.407-7.692,28.278c-1.291,1.637-3.031,2.874-4.328,4.506
						c-2.796,3.521-3.161,8.326-3.411,12.815c-0.056,1.01-0.066,2.11,0.109,3.126c0.971,10.366,16.02,9.707,21.998,9.043
						c6.56-0.729,4.373-4.373,4.373-4.373l-0.238-0.291c-0.629-4.209,1.102-8.698,4.408-11.379c1.227-0.995,2.678-1.787,3.544-3.109
						c1.942-2.967,0.088-6.897,0.373-10.431c1.15-14.235,25.04-11.184,31.781-21.318
						C299.643,256.033,286.131,239.025,272.183,243.764z"/>
				</g>
				<polygon style="fill:#3ABABA;" points="229.635,336.917 152.501,405.661 165.505,427.629 238.953,380.1 				"/>
			</g>
			<path style="fill:#FFFFFF;" d="M129.212,274.799c-1.97-8.396,3.215-16.812,11.611-18.817c8.417-2.011,16.87,3.182,18.881,11.599
				c0,0,0.002,0.011,0.003,0.017l25.774,62.969c6.068,14.825,17.987,26.487,32.94,32.231l54.74,21.028l-43.039-40.228
				c-0.7-0.544-1.353-1.15-1.945-1.818l-0.02-0.019l0.002-0.003c-1.509-1.709-2.636-3.799-3.203-6.171
				c-1.848-7.735,2.924-15.503,10.659-17.351c3.509-0.838,7.019-0.303,9.986,1.243l0.007-0.009l55.62,30.881
				c24.037,13.345,41.364,36.172,47.752,62.913l7.117,29.791c4.819,20.173-7.627,40.434-27.801,45.254
				c-7.798,1.863-15.598,1.122-22.525-1.623c-1.895-0.751-3.725-1.646-5.469-2.69l-113.386-55.762
				c-15.109-7.43-26.119-21.21-30.031-37.586L129.209,274.8L129.212,274.799z"/>
			<g>
				<polygon style="fill:#E2BDAA;" points="360.391,456.021 354.018,469.024 348.341,466.543 350.734,456.672 347.504,456.744 
					354.313,446.281 360.562,448.064 				"/>
				<polygon style="fill:#3ABABA;" points="309.683,324.292 290.003,318.461 299.478,343.971 345.398,396.451 345,392.165 
					350.261,446.516 362.439,452.978 376.819,385.72 				"/>
			</g>
			<polygon style="fill:#E2BDAA;" points="164.127,420.648 174.376,419.099 171.584,402.357 155.379,395.691 148.544,409.171 			"/>
		</g>
		<polygon style="fill:#B77858;" points="370.619,336.277 372.18,326.031 388.919,328.841 395.566,345.054 382.078,351.874 		"/>
		<polygon style="fill:#B77858;" points="650.489,347.96 651.071,337.612 634.112,336.917 624.27,351.414 636.065,360.864 		"/>
		<polygon style="fill:#B77858;" points="631.979,415.638 640.984,410.505 649.164,425.378 640.572,440.649 626.856,434.301 		"/>
		<polygon style="fill:#B77858;" points="816.465,426.894 818.544,416.74 801.866,413.589 790.022,426.503 800.319,437.566 		"/>
	</g>
</g>
</svg>
