<?xml version="1.0" encoding="utf-8"?>
<!-- Generator: Adobe Illustrator 27.5.0, SVG Export Plug-In . SVG Version: 6.00 Build 0)  -->
<svg version="1.1" id="Слой_1" xmlns="http://www.w3.org/2000/svg" xmlns:xlink="http://www.w3.org/1999/xlink" x="0px" y="0px"
	 viewBox="0 0 2553.092 2000" style="enable-background:new 0 0 2553.092 2000;" xml:space="preserve">
<g>
	<rect style="fill:#FAFAFA;" width="2553.092" height="2000"/>
	<linearGradient id="SVGID_1_" gradientUnits="userSpaceOnUse" x1="519.075" y1="2108.3235" x2="954.2764" y2="1129.1207">
		<stop  offset="0" style="stop-color:#186DA1"/>
		<stop  offset="1" style="stop-color:#639C38"/>
	</linearGradient>
	<path style="fill:url(#SVGID_1_);" d="M1484.579,2000H0v-821.167c0,0,311.133,277.171,764.131,225.25
		c23.307-2.654,47.002-6.207,71.05-10.696C1326.319,1301.529,1747.071,1669.425,1484.579,2000z"/>
	
		<linearGradient id="SVGID_00000029758534053360892350000002564588063954475657_" gradientUnits="userSpaceOnUse" x1="104.9615" y1="2301.3318" x2="528.0865" y2="1370.4586">
		<stop  offset="0" style="stop-color:#186DA1"/>
		<stop  offset="1" style="stop-color:#639C38"/>
	</linearGradient>
	<path style="fill:url(#SVGID_00000029758534053360892350000002564588063954475657_);" d="M882.924,1805.824
		c0,67.184-8.979,132.3-25.804,194.176H0v-821.167c0,0,311.133,277.171,764.131,225.25
		C839.279,1519.675,882.924,1657.636,882.924,1805.824z"/>
	
		<linearGradient id="SVGID_00000126296126620526072790000003913927255587687059_" gradientUnits="userSpaceOnUse" x1="2011.1849" y1="794.7091" x2="2457.2566" y2="-208.9517">
		<stop  offset="0" style="stop-color:#186DA1"/>
		<stop  offset="1" style="stop-color:#639C38"/>
	</linearGradient>
	<path style="opacity:0.14;fill:url(#SVGID_00000126296126620526072790000003913927255587687059_);" d="M2553.092,0v1002.057
		c-52.209,11.953-106.589,18.284-162.436,18.284c-399.707,0-723.678-324.019-723.678-723.726
		c0-105.691,22.631-206.091,63.358-296.615H2553.092z"/>
	
		<linearGradient id="SVGID_00000099634133012156975720000018255870548703845300_" gradientUnits="userSpaceOnUse" x1="2124.9363" y1="2028.2366" x2="2490.5776" y2="1205.5437">
		<stop  offset="0" style="stop-color:#186DA1"/>
		<stop  offset="1" style="stop-color:#639C38"/>
	</linearGradient>
	<path style="fill:url(#SVGID_00000099634133012156975720000018255870548703845300_);" d="M2553.092,1369.69V2000h-723.025
		c-6.324-33.534-9.642-68.122-9.642-103.49c0-306.84,248.79-555.629,555.63-555.629
		C2437.968,1340.881,2497.501,1350.991,2553.092,1369.69z"/>
	<g>
		
			<linearGradient id="SVGID_00000110440389237631180290000013717811403157490849_" gradientUnits="userSpaceOnUse" x1="790.7536" y1="653.0539" x2="625.4669" y2="47.0017">
			<stop  offset="0" style="stop-color:#F9CB8E"/>
			<stop  offset="1" style="stop-color:#F4FFB8"/>
		</linearGradient>
		<circle style="fill:url(#SVGID_00000110440389237631180290000013717811403157490849_);" cx="729.13" cy="427.102" r="203.421"/>
		<path style="fill:#FFFFFF;" d="M790.471,496.84h184.882c0,0-31.613-2.058-40.387-12.201c-8.774-10.143-18.866-5.714-26.073,0
			c-7.208,5.714-30.972,3.656-53.327,0C833.211,480.982,806.115,490.353,790.471,496.84z"/>
		<path style="fill:#FFFFFF;" d="M279.933,377.076H729.13c0,0-76.808-5-98.126-29.645c-21.318-24.645-45.836-13.883-63.349,0
			c-17.512,13.883-75.25,8.883-129.565,0C383.775,338.549,317.94,361.314,279.933,377.076z"/>
	</g>
	<g>
		<path style="fill:#36572B;" d="M1501.474,713.373c160.931,0,291.403-130.471,291.403-291.402
			c0-43.454-9.494-84.635-26.565-121.664c-46.088-100.19-147.324-169.738-264.838-169.738
			c-160.932,0-291.403,130.471-291.403,291.402c0,55.256,15.376,106.938,42.12,150.971
			C1303.26,657.105,1395.797,713.373,1501.474,713.373z"/>
		<path style="fill:#45613C;" d="M1778.816,674.543c81.438,0,147.474-66.036,147.474-147.473c0-4.697-0.209-9.344-0.653-13.938
			c-7.02-74.911-70.082-133.535-146.82-133.535c-81.437,0-147.473,66.037-147.473,147.473c0,51.629,26.545,97.071,66.716,123.408
			C1721.263,665.695,1749.008,674.543,1778.816,674.543z"/>
		<path style="fill:#925E2E;" d="M1682.787,1338.859l-73.266-0.108l-21.56-383.559c0,0-118.29-14.452-112.902-198.524
			c0.454-14.898,0.951-29.434,1.495-43.652c0.046-0.227,0.046-0.498,0.046-0.725c0.77-19.02,1.63-37.358,2.581-54.928
			c5.116-97.9,12.362-172.118,15.713-203.545c0.361-3.486,0.679-6.43,0.951-8.83c0.542-5.071,0.86-7.697,0.86-7.697l12.543,12.452
			l1.086,1.087c0,0-0.316,2.082-0.859,5.978c-3.215,23.003-14.129,108.858-12.861,198.698c0.272,19.291,1.133,38.762,2.718,57.826
			c0.136,1.54,0.271,3.079,0.408,4.619c9.509,105.146,42.79,196.57,133.312,175.604c17.977-4.165,33.961-10.551,48.179-18.701
			c47.729-27.306,75.306-74.535,90.883-125.206c0.679-2.128,1.313-4.256,1.901-6.385c5.389-18.702,9.148-37.766,11.773-56.377
			c0.951-6.521,1.721-12.996,2.355-19.335c0.725-7.018,1.267-13.901,1.721-20.649c2.128-33.328,1.132-62.762-0.272-82.685
			c-1.132-16.709-2.536-26.762-2.536-26.762l27.532,16.075l1.358,0.771c0,0,0,40.799-3.079,93.598
			c-0.679,11.095-1.449,22.732-2.399,34.596c-0.092,1.449-0.226,2.898-0.363,4.348c-1.54,18.565-3.486,37.72-5.978,56.422
			c-0.361,2.807-0.77,5.66-1.132,8.468c-7.471,52.392-19.154,100.029-37.583,120.18c-7.427,8.151-66.676,55.347-72.021,80.252
			C1693.391,952.163,1648.406,1154.72,1682.787,1338.859z"/>
		
			<linearGradient id="SVGID_00000179644798188104261020000015427975676282952121_" gradientUnits="userSpaceOnUse" x1="1613.3596" y1="670.1533" x2="1409.418" y2="217.8476">
			<stop  offset="0" style="stop-color:#186DA1"/>
			<stop  offset="1" style="stop-color:#639C38"/>
		</linearGradient>
		<path style="fill:url(#SVGID_00000179644798188104261020000015427975676282952121_);" d="M1429.291,468.89
			c167.283-31.255,277.47-103.583,337.021-168.583c-46.088-100.19-147.324-169.738-264.838-169.738
			c-160.932,0-291.403,130.471-291.403,291.402c0,55.256,15.376,106.938,42.12,150.971
			C1260.202,533.313,1303.584,492.35,1429.291,468.89z"/>
		
			<linearGradient id="SVGID_00000183940684549029094120000004283555120106875284_" gradientUnits="userSpaceOnUse" x1="1906.3701" y1="864.2817" x2="1730.697" y2="399.8595">
			<stop  offset="0" style="stop-color:#186DA1"/>
			<stop  offset="1" style="stop-color:#639C38"/>
		</linearGradient>
		<path style="fill:url(#SVGID_00000183940684549029094120000004283555120106875284_);" d="M1821.883,567.528
			c48.888-14.096,82.01-33.437,103.753-54.396c-7.02-74.911-70.082-133.535-146.82-133.535
			c-81.437,0-147.473,66.037-147.473,147.473c0,51.629,26.545,97.071,66.716,123.408
			C1713.014,622.236,1746.842,589.141,1821.883,567.528z"/>
		
			<linearGradient id="SVGID_00000041293377667567232760000017698980610345705857_" gradientUnits="userSpaceOnUse" x1="1985.298" y1="834.4203" x2="1809.627" y2="370.0034">
			<stop  offset="0" style="stop-color:#186DA1"/>
			<stop  offset="1" style="stop-color:#639C38"/>
		</linearGradient>
		<path style="fill:url(#SVGID_00000041293377667567232760000017698980610345705857_);" d="M1792.2,398.112l12.717,3.915
			c0,0,20.011-54.377,21.316-61.773C1827.537,332.859,1792.2,398.112,1792.2,398.112z"/>
		
			<linearGradient id="SVGID_00000130643040449068236900000009850196894699483564_" gradientUnits="userSpaceOnUse" x1="2033.7572" y1="816.0835" x2="1858.0891" y2="351.6744">
			<stop  offset="0" style="stop-color:#186DA1"/>
			<stop  offset="1" style="stop-color:#639C38"/>
		</linearGradient>
		<path style="fill:url(#SVGID_00000130643040449068236900000009850196894699483564_);" d="M1912.367,402.027l-63.077,19.142
			c0,0,0.435,5.655,8.698,5.655C1866.256,426.824,1912.367,402.027,1912.367,402.027z"/>
		
			<linearGradient id="SVGID_00000170992609787983539830000007647258202456850570_" gradientUnits="userSpaceOnUse" x1="1993.7327" y1="831.2315" x2="1818.0624" y2="366.8166">
			<stop  offset="0" style="stop-color:#186DA1"/>
			<stop  offset="1" style="stop-color:#639C38"/>
		</linearGradient>
		<path style="fill:url(#SVGID_00000170992609787983539830000007647258202456850570_);" d="M1890.616,534.275h-16.096
			c0,0,3.044,23.926,16.096,39.151C1903.666,588.652,1890.616,534.275,1890.616,534.275z"/>
		<path style="fill:#45613C;" d="M2137.05,753.593c107.008,0,193.778-86.772,193.778-193.778c0-6.174-0.275-12.279-0.857-18.315
			c-9.226-98.433-92.088-175.463-192.921-175.463c-107.007,0-193.778,86.771-193.778,193.778c0,67.84,34.88,127.55,87.664,162.156
			C2061.426,741.965,2097.883,753.593,2137.05,753.593z"/>
		
			<linearGradient id="SVGID_00000001661083865998111900000013204078578548909697_" gradientUnits="userSpaceOnUse" x1="1448.8195" y1="744.3385" x2="1244.8793" y2="292.0358">
			<stop  offset="0" style="stop-color:#186DA1"/>
			<stop  offset="1" style="stop-color:#639C38"/>
		</linearGradient>
		<path style="fill:url(#SVGID_00000001661083865998111900000013204078578548909697_);" d="M1178.111,228.211
			c-3.735,10.547,86.265,70.074,86.265,70.074l16.908-11.509C1281.283,286.776,1181.847,217.664,1178.111,228.211z"/>
		
			<linearGradient id="SVGID_00000070110774498943203530000012036859904880697733_" gradientUnits="userSpaceOnUse" x1="1501.9438" y1="720.3937" x2="1298.0007" y2="268.0846">
			<stop  offset="0" style="stop-color:#186DA1"/>
			<stop  offset="1" style="stop-color:#639C38"/>
		</linearGradient>
		<path style="fill:url(#SVGID_00000070110774498943203530000012036859904880697733_);" d="M1302.71,242.357
			c-12.249-24.407-55.376-50.353-55.376-50.353l38.587,56.688C1285.921,248.692,1314.958,266.766,1302.71,242.357z"/>
		
			<linearGradient id="SVGID_00000042009512294732077830000010491262505404405933_" gradientUnits="userSpaceOnUse" x1="1551.3254" y1="698.1231" x2="1347.3837" y2="245.8173">
			<stop  offset="0" style="stop-color:#186DA1"/>
			<stop  offset="1" style="stop-color:#639C38"/>
		</linearGradient>
		<path style="fill:url(#SVGID_00000042009512294732077830000010491262505404405933_);" d="M1342.436,217.369
			c-0.502-40.23-40.926-102.394-40.926-102.394l14.6,99.969C1316.109,214.943,1342.937,257.599,1342.436,217.369z"/>
		
			<linearGradient id="SVGID_00000168094015156731329850000008259032998254562207_" gradientUnits="userSpaceOnUse" x1="1462.5098" y1="738.1684" x2="1258.569" y2="285.8647">
			<stop  offset="0" style="stop-color:#186DA1"/>
			<stop  offset="1" style="stop-color:#639C38"/>
		</linearGradient>
		<path style="fill:url(#SVGID_00000168094015156731329850000008259032998254562207_);" d="M1350.49,551.143
			c12.632-10.336,13.233-101.166,13.233-101.166l-19.851,7.219C1343.873,457.196,1337.858,561.48,1350.49,551.143z"/>
		<path style="fill:#925E2E;" d="M1789.172,773.148c0,0,322.89,114.693,360.15-151.172l-21.571-5.899
			c0,0,7.086,245.542-338.579,124.981V773.148z"/>
		
			<linearGradient id="SVGID_00000155841541271264599900000013757057382343868558_" gradientUnits="userSpaceOnUse" x1="2284.458" y1="816.8912" x2="2032.0549" y2="376.6998">
			<stop  offset="0" style="stop-color:#186DA1"/>
			<stop  offset="1" style="stop-color:#639C38"/>
		</linearGradient>
		<path style="fill:url(#SVGID_00000155841541271264599900000013757057382343868558_);" d="M2193.64,612.975
			c64.238-18.521,107.761-43.935,136.331-71.476c-9.226-98.433-92.088-175.463-192.921-175.463
			c-107.007,0-193.778,86.771-193.778,193.778c0,67.84,34.88,127.55,87.664,162.156
			C2050.587,684.861,2095.036,641.373,2193.64,612.975z"/>
		
			<linearGradient id="SVGID_00000029765719719008063660000007897067603828252334_" gradientUnits="userSpaceOnUse" x1="2302.9309" y1="806.293" x2="2050.53" y2="366.1053">
			<stop  offset="0" style="stop-color:#186DA1"/>
			<stop  offset="1" style="stop-color:#639C38"/>
		</linearGradient>
		<path style="fill:url(#SVGID_00000029765719719008063660000007897067603828252334_);" d="M2069.42,415.32l12.871-11.833
			c0,0-48.433-58.745-55.959-65.127C2018.806,331.978,2069.42,415.32,2069.42,415.32z"/>
		
			<linearGradient id="SVGID_00000075860970084021861020000015860720998836372878_" gradientUnits="userSpaceOnUse" x1="2326.3848" y1="792.8514" x2="2073.9814" y2="352.6596">
			<stop  offset="0" style="stop-color:#186DA1"/>
			<stop  offset="1" style="stop-color:#639C38"/>
		</linearGradient>
		<path style="fill:url(#SVGID_00000075860970084021861020000015860720998836372878_);" d="M2087.374,328.35l-5.083,86.467
			c0,0,7.17,2.036,10.928-8.153C2096.978,396.473,2087.374,328.35,2087.374,328.35z"/>
		
			<linearGradient id="SVGID_00000062900474319215437250000008298358259006778504_" gradientUnits="userSpaceOnUse" x1="2350.0879" y1="779.2582" x2="2097.6853" y2="339.0675">
			<stop  offset="0" style="stop-color:#186DA1"/>
			<stop  offset="1" style="stop-color:#639C38"/>
		</linearGradient>
		<path style="fill:url(#SVGID_00000062900474319215437250000008298358259006778504_);" d="M2277.021,620.066l-62.226-60.252
			c0,0-6.22,4.107-0.947,13.602C2219.12,582.911,2277.021,620.066,2277.021,620.066z"/>
	</g>
	<g>
		<path style="fill:#36572B;" d="M410.835,743.979c109.806,0,198.83-89.023,198.83-198.829c0-29.649-6.478-57.748-18.125-83.014
			C560.092,393.774,491.017,346.32,410.835,346.32c-109.806,0-198.829,89.022-198.829,198.829c0,37.702,10.491,72.966,28.739,103.01
			C275.59,705.586,338.73,743.979,410.835,743.979z"/>
		<path style="fill:#45613C;" d="M612.767,726.148c76.833,0,139.136-62.303,139.136-139.135c0-4.434-0.197-8.816-0.615-13.15
			c-6.625-70.677-66.121-125.986-138.521-125.986c-76.833,0-139.136,62.304-139.136,139.137c0,48.709,25.044,91.583,62.944,116.431
			C558.467,717.801,584.644,726.148,612.767,726.148z"/>
		<path style="fill:#925E2E;" d="M625.405,635.44c0,0,0,27.838-2.101,63.863c-0.463,7.569-0.989,15.511-1.638,23.605
			c-0.062,0.989-0.154,1.978-0.247,2.966c-1.051,12.668-2.379,25.737-4.079,38.498c-0.247,1.915-0.525,3.862-0.773,5.777
			c-5.098,35.748-13.069,68.252-25.644,82.001c-5.067,5.562-9.331,17.89-12.978,34.883c-4.387,20.546-7.786,47.891-10.474,78.354
			c-2.379,27.375-4.17,57.221-5.5,86.852c-0.093,1.977-0.186,3.924-0.278,5.87c-1.73,40.166-2.626,79.621-3.089,111.601H488.84
			V899.114c0,0-99.705,0-96.028-125.596c0.309-10.165,0.648-20.083,1.02-29.784c0.031-0.154,0.031-0.34,0.031-0.495
			c0.524-12.977,1.112-25.489,1.761-37.477c3.491-66.8,8.435-117.44,10.721-138.882c0.247-2.38,0.463-4.388,0.648-6.025
			c0.371-3.46,0.587-5.253,0.587-5.253l8.559,8.497l0.741,0.741c0,0-0.216,1.422-0.586,4.079
			c-2.194,15.695-9.641,74.276-8.775,135.575c0.185,13.162,0.772,26.448,1.854,39.456c0.093,1.051,0.185,2.101,0.278,3.151
			c6.488,71.742,29.197,134.124,90.961,119.818c12.266-2.842,23.173-7.199,32.874-12.76c32.565-18.632,51.382-50.857,62.01-85.431
			c0.463-1.452,0.896-2.904,1.297-4.356c3.677-12.761,6.241-25.769,8.034-38.467c0.649-4.449,1.173-8.867,1.607-13.193
			c0.494-4.788,0.864-9.484,1.173-14.088c1.452-22.741,0.772-42.824-0.185-56.418c-0.773-11.401-1.731-18.261-1.731-18.261
			l18.786,10.968L625.405,635.44z"/>
		
			<linearGradient id="SVGID_00000176010747446689779980000015204703469005623721_" gradientUnits="userSpaceOnUse" x1="502.9968" y1="741.7791" x2="321.2664" y2="354.0869">
			<stop  offset="0" style="stop-color:#186DA1"/>
			<stop  offset="1" style="stop-color:#639C38"/>
		</linearGradient>
		<path style="fill:url(#SVGID_00000176010747446689779980000015204703469005623721_);" d="M361.583,577.163
			c114.141-21.326,189.323-70.677,229.956-115.027C560.092,393.774,491.017,346.32,410.835,346.32
			c-109.806,0-198.829,89.022-198.829,198.829c0,37.702,10.491,72.966,28.739,103.01
			C246.211,621.119,275.812,593.17,361.583,577.163z"/>
		
			<linearGradient id="SVGID_00000008851546407805537820000018328924839480588443_" gradientUnits="userSpaceOnUse" x1="698.4727" y1="785.4883" x2="554.6021" y2="452.3147">
			<stop  offset="0" style="stop-color:#186DA1"/>
			<stop  offset="1" style="stop-color:#639C38"/>
		</linearGradient>
		<path style="fill:url(#SVGID_00000008851546407805537820000018328924839480588443_);" d="M653.399,625.184
			c46.124-13.299,77.374-31.547,97.888-51.32c-6.625-70.677-66.121-125.986-138.521-125.986
			c-76.833,0-139.136,62.304-139.136,139.137c0,48.709,25.044,91.583,62.944,116.431C550.685,676.799,582.6,645.573,653.399,625.184
			z"/>
		
			<linearGradient id="SVGID_00000039814953845950504030000003713446637703425470_" gradientUnits="userSpaceOnUse" x1="776.953" y1="751.6006" x2="633.082" y2="418.4264">
			<stop  offset="0" style="stop-color:#186DA1"/>
			<stop  offset="1" style="stop-color:#639C38"/>
		</linearGradient>
		<path style="fill:url(#SVGID_00000039814953845950504030000003713446637703425470_);" d="M625.395,465.345l11.998,3.694
			c0,0,18.879-51.304,20.11-58.281C658.734,403.78,625.395,465.345,625.395,465.345z"/>
		
			<linearGradient id="SVGID_00000007417974542430912160000002986940689110878597_" gradientUnits="userSpaceOnUse" x1="819.162" y1="733.3854" x2="675.2853" y2="400.1978">
			<stop  offset="0" style="stop-color:#186DA1"/>
			<stop  offset="1" style="stop-color:#639C38"/>
		</linearGradient>
		<path style="fill:url(#SVGID_00000007417974542430912160000002986940689110878597_);" d="M738.769,469.039l-59.512,18.059
			c0,0,0.41,5.336,8.208,5.336C695.263,492.434,738.769,469.039,738.769,469.039z"/>
		
			<linearGradient id="SVGID_00000031208638328074038320000017373013764052738438_" gradientUnits="userSpaceOnUse" x1="777.1117" y1="751.5286" x2="633.2425" y2="418.3583">
			<stop  offset="0" style="stop-color:#186DA1"/>
			<stop  offset="1" style="stop-color:#639C38"/>
		</linearGradient>
		<path style="fill:url(#SVGID_00000031208638328074038320000017373013764052738438_);" d="M718.246,593.81h-15.185
			c0,0,2.872,22.574,15.185,36.938C730.56,645.113,718.246,593.81,718.246,593.81z"/>
		
			<linearGradient id="SVGID_00000017506702323058721410000003449037048628015790_" gradientUnits="userSpaceOnUse" x1="542.9863" y1="723.0347" x2="361.2559" y2="335.3425">
			<stop  offset="0" style="stop-color:#186DA1"/>
			<stop  offset="1" style="stop-color:#639C38"/>
		</linearGradient>
		<path style="fill:url(#SVGID_00000017506702323058721410000003449037048628015790_);" d="M352.964,308.971
			c-6.157,4.516,21.752,72.646,21.752,72.646h13.956C388.672,381.617,359.121,304.457,352.964,308.971z"/>
		
			<linearGradient id="SVGID_00000057837942131877293810000015820683777828841128_" gradientUnits="userSpaceOnUse" x1="578.3734" y1="706.4491" x2="396.6421" y2="318.755">
			<stop  offset="0" style="stop-color:#186DA1"/>
			<stop  offset="1" style="stop-color:#639C38"/>
		</linearGradient>
		<path style="fill:url(#SVGID_00000057837942131877293810000015820683777828841128_);" d="M417.812,364.79
			c2.462-18.47-11.901-49.663-11.901-49.663v46.79C405.91,361.917,415.349,383.259,417.812,364.79z"/>
		
			<linearGradient id="SVGID_00000120557925050857699540000004854184850764092592_" gradientUnits="userSpaceOnUse" x1="400.6758" y1="789.7416" x2="218.9458" y2="402.0504">
			<stop  offset="0" style="stop-color:#186DA1"/>
			<stop  offset="1" style="stop-color:#639C38"/>
		</linearGradient>
		<path style="fill:url(#SVGID_00000120557925050857699540000004854184850764092592_);" d="M307.816,633.286
			c8.619-7.053,9.029-69.027,9.029-69.027l-13.544,4.925C303.302,569.184,299.197,640.339,307.816,633.286z"/>
	</g>
	<g>
		<g>
			<g>
				<g>
					
						<linearGradient id="SVGID_00000051377850724990039240000017834595203171608742_" gradientUnits="userSpaceOnUse" x1="-955.1401" y1="662.1333" x2="-601.6642" y2="391.3416" gradientTransform="matrix(0.9577 -0.2879 0.2879 0.9577 1071.832 1613.6185)">
						<stop  offset="0" style="stop-color:#186DA1"/>
						<stop  offset="1" style="stop-color:#639C38"/>
					</linearGradient>
					<path style="fill:url(#SVGID_00000051377850724990039240000017834595203171608742_);" d="M1364.643,902.931
						c0,0,145.697-111.207,228.1-30.524c65.934,64.556,19.363,107.55,19.363,107.55s-16.635,30.403-123.729-51.42
						C1437.899,889.97,1364.643,902.931,1364.643,902.931z"/>
				</g>
			</g>
		</g>
		<g>
			<g>
				<g>
					
						<linearGradient id="SVGID_00000139285421413632427610000015894881828291702424_" gradientUnits="userSpaceOnUse" x1="1027.7668" y1="-555.8425" x2="550.6296" y2="-731.4128" gradientTransform="matrix(0.9577 -0.2879 0.2879 0.9577 1071.832 1613.6185)">
						<stop  offset="0" style="stop-color:#186DA1"/>
						<stop  offset="1" style="stop-color:#639C38"/>
					</linearGradient>
					<path style="fill:url(#SVGID_00000139285421413632427610000015894881828291702424_);" d="M1270.85,643.899
						c0,0,131.27-79.31,269.545,77.862s225.969,150.588,225.969,150.588S1459.056,1009.691,1270.85,643.899z"/>
				</g>
			</g>
		</g>
		<g>
			<g>
				<g>
					
						<linearGradient id="SVGID_00000086652454899762814500000004816255437684113338_" gradientUnits="userSpaceOnUse" x1="1465.7678" y1="328.5764" x2="1176.3699" y2="-76.5804" gradientTransform="matrix(0.9577 -0.2879 0.2879 0.9577 1071.832 1613.6185)">
						<stop  offset="0" style="stop-color:#186DA1"/>
						<stop  offset="1" style="stop-color:#639C38"/>
					</linearGradient>
					<path style="fill:url(#SVGID_00000086652454899762814500000004816255437684113338_);" d="M1709.814,897.401
						c2.397,63.044-163.484-18.593-202.676-118.934c-39.191-100.34-31.117-183.083-74.87-242.839
						C1432.269,535.629,1698.012,586.949,1709.814,897.401z"/>
				</g>
			</g>
		</g>
	</g>
	<g>
		<g>
			<g>
				<g>
					
						<linearGradient id="SVGID_00000012433484385087858830000006575451670993681081_" gradientUnits="userSpaceOnUse" x1="-71.4327" y1="-4128.5483" x2="197.2535" y2="-4334.3843" gradientTransform="matrix(0.0766 0.9971 -0.9971 0.0766 -4330.6685 -26.5669)">
						<stop  offset="0" style="stop-color:#186DA1"/>
						<stop  offset="1" style="stop-color:#639C38"/>
					</linearGradient>
					<path style="fill:url(#SVGID_00000012433484385087858830000006575451670993681081_);" d="M812.77,608.942
						c0,0,58.916,126.247-14.378,174.333c-58.644,38.475-69.014-17.535-69.014-17.535s-33.867-2.843,44.284-69.077
						C810.497,665.443,812.77,608.942,812.77,608.942z"/>
				</g>
			</g>
		</g>
		<g>
			<g>
				<g>
					
						<linearGradient id="SVGID_00000061438720442213881840000013079071531343633049_" gradientUnits="userSpaceOnUse" x1="1389.208" y1="-5060.7461" x2="1065.7101" y2="-5179.7822" gradientTransform="matrix(0.0766 0.9971 -0.9971 0.0766 -4330.6685 -26.5669)">
						<stop  offset="0" style="stop-color:#186DA1"/>
						<stop  offset="1" style="stop-color:#639C38"/>
					</linearGradient>
					<path style="fill:url(#SVGID_00000061438720442213881840000013079071531343633049_);" d="M1020.347,581.363
						c0,0,37.573,110.354-101.592,187.506c-139.165,77.152-157.936,97.279-157.936,97.279S718.162,661.711,1020.347,581.363z"/>
				</g>
			</g>
		</g>
		<g>
			<g>
				<g>
					
						<linearGradient id="SVGID_00000113334392281415012710000013072482178130671540_" gradientUnits="userSpaceOnUse" x1="1773.0681" y1="-4376.4673" x2="1553.0934" y2="-4684.4316" gradientTransform="matrix(0.0766 0.9971 -0.9971 0.0766 -4330.6685 -26.5669)">
						<stop  offset="0" style="stop-color:#186DA1"/>
						<stop  offset="1" style="stop-color:#639C38"/>
					</linearGradient>
					<path style="fill:url(#SVGID_00000113334392281415012710000013072482178130671540_);" d="M760.819,866.148
						c-47.203-8.459,40.356-118.377,121.229-131.183c80.873-12.806,141.002,6.628,192.48-16.156
						C1074.529,718.81,993.263,907.803,760.819,866.148z"/>
				</g>
			</g>
		</g>
	</g>
	<g>
		<path style="fill:#EBC284;" d="M468.447,1440.787V760.556h461.791v137.962H625.57v146.584h251.016v127.425H625.57v268.261H468.447
			z"/>
		<path style="fill:#EBC284;" d="M1123.767,760.556h141.795l248.142,680.232h-160.957l-52.694-152.334h-211.734l-51.736,152.334
			H875.625L1123.767,760.556z M1274.184,1180.189l-79.52-240.475l-81.436,240.475H1274.184z"/>
		<path style="fill:#EBC284;" d="M2019.577,1402.464c-24.281,13.413-50.299,23.951-78.083,31.616
			c-27.784,7.664-57.006,11.498-87.664,11.498c-50.463,0-96.451-9.73-137.963-29.223c-41.525-19.474-76.975-45.344-106.346-77.604
			c-29.386-32.245-52.214-69.131-68.502-110.655c-16.287-41.512-24.432-84.313-24.432-128.385c0-44.699,8.459-87.812,25.39-129.338
			c16.916-41.512,40.554-78.232,70.897-110.18c30.329-31.931,66.257-57.319,107.782-76.166
			c41.512-18.834,86.856-28.264,136.048-28.264c50.448,0,96.436,10.061,137.961,30.181c41.513,20.118,76.961,46.466,106.348,79.041
			c29.371,32.574,52.05,69.624,68.023,111.136c15.958,41.527,23.951,83.682,23.951,126.465c0,43.443-7.665,84.955-22.994,124.55
			c-15.328,39.61-37.051,75.059-65.149,106.347l97.725,107.305h-147.544L2019.577,1402.464z M1854.788,1305.699
			c25.539,0,47.904-4.149,67.065-12.457l-109.221-120.716h147.543l42.156,46.946c10.209-17.874,17.874-37.037,22.994-57.486
			c5.104-20.434,7.664-41.195,7.664-62.275c0-26.18-3.832-51.568-11.498-76.166c-7.664-24.58-19.16-46.301-34.489-65.148
			c-15.329-18.833-34.013-34.012-56.048-45.509c-22.035-11.497-47.424-17.246-76.167-17.246c-30.028,0-56.047,5.912-78.083,17.724
			c-22.035,11.827-40.568,27.472-55.567,46.946c-15.015,19.492-26.198,41.527-33.533,66.106
			c-7.351,24.598-11.018,49.67-11.018,75.21c0,26.197,3.831,51.587,11.497,76.166c7.665,24.596,18.996,46.318,34.011,65.149
			c15,18.847,33.682,34.012,56.048,45.509C1800.492,1299.95,1826.046,1305.699,1854.788,1305.699z"/>
	</g>
	<g>
		<path style="fill:#E6D3CC;" d="M2140.646,1532.156c0,0-16.374-3.47-16.94-3.981c-0.566-0.51-3.979-7.06-6.538-5.973
			c-2.561,1.088-2.731,8.986-5.239,10.279c-2.508,1.292-22.354,14.196-24.805,16.566c-2.452,2.369-17.28,0.688-19.059,4.849
			c-1.777,4.162-2.096,14.061,20.104,12.122c22.198-1.94,47.437,2.113,52.253-0.422S2142.059,1538.562,2140.646,1532.156z"/>
		<path style="fill:#E6D3CC;" d="M2273.064,1523.023c0,0-16.72-0.806-17.36-1.219c-0.64-0.413-5.057-6.333-7.409-4.85
			c-2.354,1.483-1.259,9.308-3.527,10.984c-2.269,1.678-17.102,13.599-19.144,16.331c-2.041,2.731-20.549,1.128-21.638,5.521
			c-1.088,4.393-2.087,13.85,21.51,12.236c22.231-1.52,48.349-2.686,52.697-5.958
			C2282.542,1552.797,2275.482,1529.119,2273.064,1523.023z"/>
		<polygon style="fill:#EEA886;" points="2273.064,1523.023 2268.624,1508.296 2248.683,1511.162 2251.424,1524.416 		"/>
		<polygon style="fill:#EEA886;" points="2141.904,1524.133 2140.646,1532.156 2118.941,1528.145 2120.313,1516.147 		"/>
		<g>
			<path style="fill:#A36037;" d="M2193.035,1266.75c0,0,3.367,28.767,7.067,58.252c0.84,6.708,1.701,13.457,2.537,19.907
				c2.761,21.189,5.318,39.213,6.409,42.371c2.942,8.512,31.934,138.618,31.934,138.618s36.2,1.738,37.27-1.746
				c0,0-26.917-143.74-26.52-148.565c0.401-4.825-4.334-140.906-4.334-140.906S2194.649,1258.929,2193.035,1266.75z"/>
		</g>
		<g>
			<path style="fill:#A36037;" d="M2160.147,1229.262c0,0-24.71,129.262-27.122,139.447c-2.413,10.187-22.619,159.91-22.619,159.91
				s14.484,9.683,35.686,8.607c0,0,31.719-160.145,34.293-165.027c9.992-18.944,43.623-108.194,48.447-121.328
				c4.825-13.135,19.147-31.102,19.147-31.102S2209.39,1203.189,2160.147,1229.262z"/>
		</g>
		<g>
			<path style="fill:#CFBEB6;" d="M2174.686,1044.851c0,0-13.785,26.568-16.258,42.545c-2.474,15.977,8.858,67.931,8.562,76.967
				c-0.8,24.353-8.993,76.135-8.993,76.135l74.695,4.663c0,0,6.336-24.945,10.491-55.42c4.155-30.474-0.897-56.757-0.45-74.475
				c1.527-60.454-45.075-81.034-45.075-81.034L2174.686,1044.851z"/>
		</g>
		<path style="fill:#40498C;" d="M2159.322,1231.807l-2.219,13.354c0,0,55.417,3.813,90.776,3.492l-0.728-11.929
			C2247.152,1236.725,2194.193,1235.909,2159.322,1231.807z"/>
		<g>
			<path style="fill:#EEA886;" d="M2144.627,969.506c0,0-10.182,13.55-6.584,16.438c2.972,2.387-6.287,15.794-7.569,18.02
				c-1.283,2.226,5.285,4.974,6.505,6.714c1.221,1.741,2.694,21.119,8.232,22.532c5.537,1.413,32.203-3.575,40.185-9.708
				c7.981-6.132,18.53-37.679,15.987-52.041C2198.84,957.1,2162.556,945.858,2144.627,969.506z"/>
		</g>
		<g>
			<path style="fill:#EEA886;" d="M2162.714,1031.733c0,0,0.451,1.603,1.102,4.085c0.274,1.04,0.581,2.236,0.904,3.529
				c0.251,0.988,0.51,2.034,0.769,3.112c1.637,6.785,3.354,14.994,3.197,18.917c-0.292,7.332,28.972-27.145,28.972-27.145
				s-9.602-23.19-12.442-49.541C2182.378,958.341,2162.714,1031.733,2162.714,1031.733z"/>
		</g>
		<g>
			<path style="fill:#313657;" d="M2142.557,972.463c0,0-5.719-17.155,10.816-26.746c16.534-9.592,40.605,15.252,43.552,16.505
				c2.946,1.254,19.688,4.86,6.771,34.289c-11.669,26.58-10.916,23.742-10.916,23.742s-5.139-13.752-7.979-16.549
				c-4.435-4.368-15.487-5.148-15.487-5.148s7.288-13.03-0.549-16.213C2160.926,979.16,2151.245,970.649,2142.557,972.463z"/>
		</g>
		<g>
			<path style="fill:#EEA886;" d="M2179.17,991.953c1.003-1.787,4.551-9.582,10.817-3.744c6.269,5.837-7.392,19.477-8.64,19.49
				C2180.1,1007.714,2170.728,1006.989,2179.17,991.953z"/>
		</g>
		<path style="fill:#A77860;" d="M2162.494,1031.587c0,0,0.671,1.749,1.321,4.231c0.274,1.04,0.581,2.236,0.904,3.529
			c15.038-8.008,19.344-14.803,19.472-15.014C2177.187,1027.953,2162.494,1031.587,2162.494,1031.587z"/>
		<g>
			<path style="fill:#575C7D;" d="M2163.104,1099.918c1.135,5.607,2.138,11.263,3.014,16.923l-0.001,0.004
				c1.933,12.455,3.279,24.952,4.183,37.07c0.325,4.321,0.588,8.599,0.808,12.809c2.589,50.173,20.801,103.192,20.801,103.192
				s42.866-0.894,52.927-5.987c0,0,5.076-66.142,0.725-122.006c-0.336-4.314-0.732-8.627-1.197-12.905
				c-0.004-0.006-0.004-0.006-0.004-0.006c-4.928-45.258-12.986-89.664-46.699-94.778
				C2196.985,1034.834,2157.133,1070.463,2163.104,1099.918z"/>
		</g>
		<path style="fill:#575C7D;" d="M2245.854,1145.914c0,0-0.854,54.446,25.779,108.584c3.251,6.609-51.928,13.932-51.928,13.932
			L2245.854,1145.914z"/>
		<path style="fill:#313657;" d="M2184.603,1320.605l91.454-14.504c7.797-1.236,12.735-9.042,10.513-16.617l-18.488-63.013
			c-1.878-6.4-8.267-10.366-14.836-9.208l-82.941,14.618c-7.034,1.24-11.777,7.89-10.658,14.945l9.975,62.897
			C2170.753,1316.866,2177.461,1321.738,2184.603,1320.605z"/>
		<g>
			<path style="fill:#313657;" d="M2163.715,1267.162c-1.838-93.878,6.074-150.056,13.034-180.652
				c7.624-33.511,15.722-44.589,16.063-45.044l1.904-2.542l1.974,2.488c29.954,37.766,49.396,93.626,60.432,133.837
				c11.934,43.48,16.888,78.562,16.937,78.911l0.345,2.473l-110.636,13.233L2163.715,1267.162z M2252.399,1176.545
				c-10.644-38.783-29.157-92.238-57.371-129.29c-2.739,5.072-8.35,17.411-13.683,41.126c-6.746,30-14.4,84.809-12.786,175.98
				l100.278-11.995C2267.5,1243.688,2262.441,1213.137,2252.399,1176.545z"/>
		</g>
		<path style="fill:#575C7D;" d="M2199.096,1034.479l-3.045-4.452c0,0-23.075,17.787-30.965,49.492
			C2165.086,1079.52,2182.054,1046.961,2199.096,1034.479z"/>
		<path style="fill:#2E3142;" d="M2203.883,1088.666c0,0,8.809,49.309,5.816,53.934c-2.992,4.624-23.032,33.849-23.032,33.849
			S2276.687,1153.884,2203.883,1088.666z"/>
		<g>
			<path style="fill:#EFAA88;" d="M2153.093,1246.044c0,0,3.04-1.023,4.15-2.118c0,0,1.869-2.148,3.289-3.596
				c0.453-0.457,0.857-0.846,1.146-1.069c1.2-0.936,4.113-2.63,6.366-5.687c2.25-3.052,9.108-14.641,9.108-14.641l-8.841-7.596
				l-5.531-8.463c0,0-21.365,8.619-23.792,11.222c-0.235,0.256-0.46,0.517-0.65,0.778c-1.84,2.402-2.2,4.963-3.022,6.334
				c-0.299,0.505-2.933,5.729-2.232,7.33c0.971,2.224,2.545,3.371,4.183,3.653c0,0,2.092,4.271,5.004,5.603
				c0,0,1.802,4.001,5.896,4.625C2148.165,1242.42,2150.449,1246.275,2153.093,1246.044z"/>
		</g>
		<path style="fill:#575C7D;" d="M2193.286,1065.343c0,0,22.985,45.91,26.419,74.354c1.077,8.922-63.116,62.299-62.602,65.745
			c0.514,3.445,18.847,19.023,18.847,19.023s78.295-67.552,78.809-73.184c0.515-5.631-15.955-78.085-25.745-93.193
			c-7.345-11.335-21.756-26.156-31.738-21.309C2183.838,1043.303,2193.286,1065.343,2193.286,1065.343z"/>
	</g>
	<g>
		<g>
			<g>
				<g>
					<path style="fill:#373945;" d="M511.327,1559.648c0,0,15.033,8.926,21.841,12.244c6.807,3.319,33.283,4.316,35.894,6.808
						c2.612,2.49,1.639,10.402-2.751,11.202c-4.39,0.801-36.575,3.651-47.309,1.121c-10.733-2.53-30.821,1.658-35.266,0.139
						c-4.444-1.519-1.532-25.487,0.197-30.865C485.663,1554.919,511.327,1559.648,511.327,1559.648z"/>
				</g>
			</g>
		</g>
		<g>
			<g>
				<g>
					<path style="fill:#212129;" d="M511.719,1551.135l-0.393,8.514c0,0-20.127,3.725-26.218,0.615l1.529-10.182L511.719,1551.135z"
						/>
				</g>
			</g>
		</g>
		<g>
			<path style="fill:#2F303B;" d="M406.342,1333.084c0,0,63.349,14.436,78.263,18.795c16.197,4.735,42.373,13.324,45.575,16.021
				c3.532,2.974,7.429,2.708,2.352,24.763c-5.076,22.055-8.667,86.49-9.704,93.295c-1.549,10.156-5.725,69.096-5.725,69.096h-37.798
				c0,0-2.508-113.665,0-126.457c2.328-11.872-2.511-17.683-7.37-21.139c-4.859-3.456-20.351,0.107-107.638-14.956
				c-8.722-1.505-32.705-4.141-38.054-14.19c-9.666-18.159-10.655-43.715,8.37-59.343
				C353.638,1303.34,406.342,1333.084,406.342,1333.084z"/>
		</g>
		<rect x="217.899" y="1394.508" style="fill:#DBDFF0;" width="242.373" height="197.541"/>
		<g>
			<g>
				<g>
					<path style="fill:#4F5263;" d="M556.782,1560.399c0,0,15.063,8.876,21.881,12.172c6.818,3.297,33.297,4.206,35.917,6.688
						c2.62,2.482,1.673,10.398-2.714,11.212c-4.387,0.816-36.563,3.771-47.305,1.277c-10.742-2.495-30.815,1.76-35.265,0.256
						c-4.45-1.505-1.616-25.482,0.095-30.866C531.103,1555.755,556.782,1560.399,556.782,1560.399z"/>
				</g>
			</g>
		</g>
		<g>
			<g>
				<g>
					<path style="fill:#2F303B;" d="M553.652,1550.649l3.13,9.75c0,0-20.115,3.792-26.216,0.702l1.496-10.188L553.652,1550.649z"/>
				</g>
			</g>
		</g>
		<path style="fill:#C78C70;" d="M459.317,1316.701c0,0,5.807,3.517,8.767,4.691c2.96,1.174,19.075-0.113,23.291,2.082
			c4.216,2.196,28.695,24.897,29.684,26.266c0.989,1.368-1.651,2.648-1.651,2.648l-66.644-23.137L459.317,1316.701z"/>
		<g>
			<path style="fill:#373945;" d="M514.014,1485.868c-4.223-28.304-8.502-41.345-9.673-49.084
				c-5.111-33.841-13.944-32.419-19.249-35.504c-5.299-3.085-30.815,2.703-121.611-4.541c-9.072-0.72-33.878-1.172-40.295-10.964
				c-11.603-17.685-23.308-37.779-5.294-55.568c18.02-17.782,83.643,0.517,83.643,0.517s59.868,10.441,75.087,15.3
				c15.22,4.863,41.413,9.432,48.448,13.446c3.74,2.134,9.447,5.325,16.283,27.574c7.75,25.216,12.02,89.97,13.207,102.958
				c1.043,11.417,5.784,64.565,5.784,64.565l-34.402,1.914L514.014,1485.868z"/>
		</g>
		<g>
			<path style="fill:#A33131;" d="M405.33,1166.085c0,0,2.482,17.666,3.092,30.391c0.691,14.426,1.345,28.653,1.465,31.839
				c0.246,6.481,6.988,16.556,10.459,20.758c3.192,3.863,55.069,71.89,55.977,72.258c0.907,0.369-23.558,18.094-23.558,18.094
				s-72.037-82.784-74.294-88.864c-2.258-6.08-5.793-30.293-7.213-40.25c-1.352-9.482-3.046-24.768-4.527-31.741
				c-1.656-7.796-1.217-29.788,15.551-33.021C403.704,1141.419,404.482,1158.695,405.33,1166.085z"/>
		</g>
		<g>
			<path style="fill:#CFBEB6;" d="M406.098,1158.82c0,0,9.713,28.467,9.776,44.712c0.062,16.246-15.086,65.074-16.146,74.098
				c-2.857,24.317,8.233,54.232,8.233,54.232l-89.531,17.301c0,0-2.556-25.737-2.116-56.641c0.44-30.904,9.401-56.263,11.613-73.934
				c7.546-60.3,56.937-73.763,56.937-73.763L406.098,1158.82z"/>
		</g>
		<g>
			<path style="fill:#EEA886;" d="M419.96,1147.58c0,0-0.688,1.525-1.707,3.894c-0.428,0.992-0.913,2.136-1.428,3.372
				c-0.397,0.944-0.81,1.944-1.23,2.976c-2.643,6.497-5.58,14.397-6.012,18.318c-0.81,7.328-21.34-31.143-21.34-31.143
				s9.638-21.777,16.412-47.535C411.422,1071.705,419.96,1147.58,419.96,1147.58z"/>
		</g>
		<g>
			<path style="fill:#EDDAD3;" d="M389.711,1141.539c0,0,13.933,21.175,22.419,30.063l-2.644,14.682l-24.625-41.459
				L389.711,1141.539z"/>
		</g>
		<path style="fill:#A77860;" d="M419.96,1147.58c0,0-0.688,1.525-1.707,3.894c-0.428,0.992-0.913,2.136-1.428,3.372
			c-13.741-10.212-17.001-17.609-17.097-17.838C406.146,1141.653,419.96,1147.58,419.96,1147.58z"/>
		<path style="fill:#E8734D;" d="M411.975,1172.469c0,0,2.53,9.633,1.831,13.36c-0.262,1.396-4.17-0.37-4.17-0.37L411.975,1172.469z
			"/>
		<path style="fill:#25262E;" d="M407.96,1331.861c0,0-2.368-7.253-2.914-9.236l-87.323,16.269l0.85,10.721
			C318.572,1349.614,382.262,1337.553,407.96,1331.861z"/>
		<path style="fill:#D44040;" d="M320.23,1248.572c0,0-3.968,50.788-38.548,100.59c-4.221,6.08,47.842,13.936,47.842,13.936
			L320.23,1248.572z"/>
		<path style="fill:#E8734D;" d="M413.071,1186.157c0,0-10.283,43.379-2.943,78.81c6.831,32.974,9.832,49.439,9.832,49.439
			l-1.747,14.299l-8.085-12.493c0,0-6.396-32.079-9.647-49.584c-3.251-17.505-1.052-55.724,10.552-81.937L413.071,1186.157z"/>
		<g>
			<path style="fill:#D44040;" d="M409.347,1215.275c-1.967,5.401-3.81,10.872-5.53,16.364c-0.688,2.188-1.355,4.38-1.999,6.578
				c-1.145,3.864-2.23,7.733-3.257,11.592c-0.146,0.548-0.296,1.102-0.441,1.651c-1.445,5.503-2.778,10.979-4.014,16.391
				c-0.973,4.245-1.876,8.454-2.725,12.608c-0.65,3.181-1.365,6.303-2.139,9.366c-11.248,44.61-34.448,76.399-34.448,76.399
				s-39.699-3.166-48.937-9.738c0,0,2.563-56.977,15.263-111.836c0.979-4.234,2.021-8.464,3.122-12.646
				c0.006-0.005,0.006-0.005,0.006-0.005c6.47-48.722,30.509-84.009,60.615-87.174
				C385.438,1145.524,419.698,1186.9,409.347,1215.275z"/>
		</g>
		<g>
			<g>
				<path style="fill:#EEA886;" d="M439.546,1075.21c0,0,7.982,17.849,8.164,22.056c0.183,4.207-0.826,7.456-0.087,12.294
					c0.764,5.003,5.158,15.476,4.692,18.399c-0.563,3.534-8.015,1.832-8.933,7.651c-0.919,5.819-6.118,16.819-8.799,17.087
					c-6.887,0.689-33.5-9.617-35.278-15.115c-1.777-5.497-11.896-36.146-14.978-41.954c-3.082-5.808,45.871-38.805,50.544-29.611
					C439.546,1075.21,439.546,1075.21,439.546,1075.21z"/>
			</g>
		</g>
		<path style="fill:#323657;" d="M375.228,1096.157c-7.391-21.769,10.955-23.802,10.955-23.802s11.166-12.347,38.547-12.403
			c30.526-0.064,23.819,36.839,23.819,36.839s-18.959-2.495-27.146-0.269c0,0-0.286,6.177,0.67,9.936l-10.291-2.329
			c0,0,0.434-2.872-4.528-3.424c-4.962-0.552-6.209,28.691-15.313,35.303c0,0-0.024-2.02-1.215-4.024l0,0l0,0
			c-1.896-3.192-4.849-8.534-7.432-14.798C379.121,1108.412,377.807,1103.752,375.228,1096.157z"/>
		<g>
			<g>
				<path style="fill:#EEA886;" d="M414.177,1103.854c0,0-4.013-10.25-12.961-3.396c-6.507,4.984,0.582,22.286,6.998,22.088
					C414.629,1122.348,417.065,1112.822,414.177,1103.854z"/>
			</g>
		</g>
		
			<rect x="452.449" y="1350.917" transform="matrix(0.9703 0.242 -0.242 0.9703 343.4196 -83.0674)" style="fill:#E2D2CA;" width="114.682" height="10.504"/>
		
			<rect x="532.284" y="1318.242" transform="matrix(0.5217 -0.8531 0.8531 0.5217 -847.0912 1136.0396)" style="fill:#E2D2CA;" width="114.682" height="10.504"/>
		<path style="fill:#EEA886;" d="M456.497,1323.68c0,0,6.146,2.885,9.213,3.739c3.067,0.855,18.956-2.125,23.38-0.387
			c4.424,1.739,31.162,21.73,32.29,22.987c1.128,1.256-1.461,3.264-1.461,3.264l-68.616-16.432L456.497,1323.68z"/>
		<path style="fill:#571A1A;" d="M391.382,1280.459c-0.65,3.181-1.365,6.303-2.139,9.366c0,0-7.97-6.562-10.657-13.279
			c-2.688-6.718-10.335-41.596-10.335-41.596L391.382,1280.459z"/>
		<path style="fill:#D44040;" d="M387.868,1176.805c0,0,10.845,58.616,24.561,83.93c4.303,7.94,62.228,60.112,63.809,63.236
			c1.581,3.123-19.575,29.491-19.575,29.491s-64.679-70.649-68.373-74.968c-3.694-4.317-38.68-84.58-38.608-94.576
			c0.072-9.997,2.815-23.973,13.426-25.318C377.999,1156.711,387.868,1176.805,387.868,1176.805z"/>
	</g>
	<g>
		<g>
			<path style="fill:#A36037;" d="M1665.293,1272.981c-0.069,169.157-4.806,202.269-47.283,240.17
				c-16.636,14.842-47.229,45.677-135.5,61.027c-26.5,4.61-58.187,7.823-96.255,8.792c-15.531,0.396-29.787-0.167-42.827-1.588
				c-10.936-1.183-21.014-2.971-30.276-5.29c-97.014-24.31-104.261-107.432-61.829-177.358
				c11.238-18.517,24.077-35.539,37.541-51.41c20.78-24.512,43.061-46.283,63.235-66.607c18.596-18.727,35.408-36.223,47.629-53.496
				c5.155-7.279,9.491-14.517,12.803-21.791c0.787-1.724,1.578-3.428,2.375-5.113c2.612-5.501,5.299-10.782,8.01-15.835
				c5.096-9.496,10.283-18.172,15.289-25.936c3.992-6.203,7.867-11.825,11.471-16.808c12.394-17.125,21.591-26.736,21.591-26.736
				s1.15-0.541,3.27-1.421c1.127-0.471,2.538-1.038,4.196-1.672c0.666-0.257,1.369-0.522,2.114-0.797
				c0.736-0.27,1.514-0.554,2.329-0.843c0.744-0.261,1.518-0.531,2.319-0.806c0.94-0.321,1.918-0.647,2.938-0.977
				c0.596-0.195,1.205-0.392,1.83-0.587c0.368-0.116,0.74-0.233,1.117-0.35c0.14-0.042,0.284-0.089,0.429-0.13
				c12.593-3.861,29.87-7.885,48.672-8.556C1596.233,1096.876,1665.358,1124.367,1665.293,1272.981z"/>
		</g>
		<g>
			<path style="fill:#E6D3CC;" d="M1439.608,1527.642c0,0,1.389,11.339,3.23,16.341c1.842,5.001,11.846,16.546,7.621,27.637
				c-4.583,12.028-24.585,0.435-32.743-3.235c-8.158-3.67-6.301-10.325-7.171-18.479c-0.87-8.154-4.851-8.375-3.382-14.109
				c1.469-5.734,10.392-16.711,10.392-16.711L1439.608,1527.642z"/>
		</g>
		<g>
			<g>
				<path style="fill:#EEA886;" d="M1421.408,1513.15c0,0-5.121,7.165-4.979,7.361c0.141,0.196,21.933,13.464,23.45,9.16
					c1.205-3.418,1.71-8.372,1.71-8.372L1421.408,1513.15z"/>
			</g>
		</g>
		<g>
			<path style="fill:#E6D3CC;" d="M1347.537,1535.659c0,0-6.648,5.827-12.619,14.782c-5.97,8.954-21.816,9.43-22.495,21.653
				s21.546,12.601,33.214,8.621c11.669-3.98,13.434-15.919,20.488-18.904c7.056-2.984,10.72-5.401,10.177-11.229
				c-0.543-5.827-4.447-15.287-4.447-15.287s-4.384,1.399-6.962,1.684C1362.314,1537.264,1353.643,1537.365,1347.537,1535.659z"/>
		</g>
		<g>
			<path style="fill:#E3E3E3;" d="M1427.518,1204.476c0,0-4.473,26.596-8.076,44.161v0.001c-1.463,7.123-2.782,12.763-3.6,14.538
				c-1.031,2.234-9.426,11.248-19.698,21.825c-18.026,18.557-41.843,41.925-41.843,41.925l-9.309-17.673
				c0,0,21.154-24.8,35.494-41.348c6.639-7.658,11.816-13.547,12.765-14.396c2.997-2.683,6.477-29.11,11.368-50.887
				c4.893-21.775,14.694-33.81,14.694-33.81L1427.518,1204.476z"/>
		</g>
		<g>
			<path style="fill:#EEA886;" d="M1396.143,1285.002c-18.026,18.557-41.843,41.925-41.843,41.925l-9.309-17.673
				c0,0,21.154-24.8,35.494-41.348C1384.881,1270.062,1392.95,1275.204,1396.143,1285.002z"/>
		</g>
		<g>
			<path style="fill:#EEA886;" d="M1348.58,1527.516l-1.043,8.143c0,0,11.57,4.088,24.317-0.363l0.259-7.241L1348.58,1527.516z"/>
		</g>
		<g>
			<path style="fill:#E3E3E3;" d="M1512.826,1323.332c0.666,2.367-122.549,0-122.549,0s34.084-24.809,36.293-31.437
				c2.209-6.627-8.679-46.392-10.1-59.331c-1.136-10.353-3.982-56.675,2.841-63.75c7.134-7.397,32.821-15.148,32.821-15.148
				l37.45,1.391c0,0,6.181,1.293,10.6,3.344c4.418,2.051,29.685,11.051,33.787,23.675c4.103,12.624-25.212,53.211-25.212,53.211
				s-0.057,1.824-0.145,4.813v0.001c-0.113,3.986-0.281,10.044-0.434,16.614c-0.196,8.51-0.368,17.88-0.368,24.726
				C1507.812,1297.534,1512.162,1320.965,1512.826,1323.332z"/>
		</g>
		<g>
			<path style="fill:#373945;" d="M1512.827,1323.332c0,0,16.76,24.615,16.996,41.42c0.236,16.805-29.741,73.088-34.278,81.141
				c-13.638,24.204-51.04,76.418-51.04,76.418s-6.447-0.164-26.565-7.975c0,0,24.882-68.967,28.036-76.127
				c13.376-30.365,20.842-51.905,16.345-57.112c-4.497-5.207-16.756-10.428-20.307-13.505c-3.55-3.077-65.399,11.688-71.879,13.367
				c-16.781,4.352-9.133,33.551-5.42,46.642c6.211,21.9,11.64,100.989,11.64,100.989s-11.953,5.093-31.974,0.789
				c0,0-39.313-142.806-40.576-157.008c-1.262-14.201-1.882-37.617,94.999-55.417L1512.827,1323.332z"/>
		</g>
		<g>
			<path style="fill:#EEA886;" d="M1462.409,1072.3c0,0-32.509-7.333-25.083,33.579s15.244,44.127,34.857,35.66
				c19.612-8.467,17.856-34.679,18.844-47.531C1492.014,1081.154,1472.779,1072.746,1462.409,1072.3z"/>
		</g>
		<g>
			<path style="fill:#EEA886;" d="M1453.808,1164.168c0,0,14.397,15.264,37.151,1.392c0,0-5.089-33.078-2.41-49.19
				c2.678-16.111-29.689,24.965-29.689,24.965c0.427,0.224,0.708,1.761,0.772,3.948c0.056,1.854-0.043,4.175-0.34,6.556
				C1458.625,1157.194,1456.959,1162.85,1453.808,1164.168z"/>
		</g>
		<g>
			<path style="fill:#3A3F47;" d="M1489.443,1115c0,0-0.84-12.89-5.548-13.292c-4.708-0.402-5.433,4.789-5.433,4.789l-4.754,0.898
				c0,0,1.502-11.299-3.198-13.271c-4.702-1.975-30.46,6.219-34.233,2.903c-3.773-3.316-1.998-26.234,4.826-29.37
				c6.825-3.137,25.674-10.164,39.483-0.818c0,0,10.765-1.227,12.361,7.46C1494.545,1082.986,1492.369,1108.541,1489.443,1115z"/>
		</g>
		<g>
			<path style="fill:#A77860;" d="M1459.293,1151.838c23.475-7.238,25.243-21.373,25.269-21.594
				c-7.731,13.283-24.929,15.038-24.929,15.038C1459.688,1147.137,1459.59,1149.457,1459.293,1151.838z"/>
		</g>
		<g>
			<path style="fill:#EEA886;" d="M1500.567,1158.578c0,0-17.19,34.222-44.963,32.013c-27.771-2.209-4.733-36.607-3.472-36.925
				C1453.521,1153.316,1480.615,1146.565,1500.567,1158.578z"/>
		</g>
		<g>
			<path style="fill:#E3E3E3;" d="M1376.184,1321.599c0,0,85.092,10.491,136.644,1.733l-98.505-12.307
				C1414.322,1311.025,1413.74,1313.536,1376.184,1321.599z"/>
		</g>
		<g>
			<path style="fill:#EEA886;" d="M1439.825,1307.149l-6.338,3.211c0,0,1.443,10.069,4.915,13.12l7.113-1.814
				C1445.516,1321.666,1444.033,1310.621,1439.825,1307.149z"/>
		</g>
		<g>
			<path style="fill:#E3E3E3;" d="M1538.29,1286.531c-1.266,1.467-17.996,8.195-36.895,15.475l-0.001,0.002
				c-25.818,9.945-54.94,19.353-54.94,19.353l-6.63-14.21c0,0,30.497-16.572,51.105-28.193c9.734-5.49,17.261-9.875,18.325-10.889
				c3.314-3.156,4.172-8.217,1.735-17.042c-2.437-8.825-8.048-49.39-8.679-54.124c-0.631-4.733,1.578-17.357,13.412-17.988
				c11.835-0.631,17.858,2.709,17.858,2.709s2.972,1.235,5.181,29.955C1540.973,1240.297,1541.288,1283.059,1538.29,1286.531z"/>
		</g>
		<g>
			<path style="fill:#9C9C9C;" d="M1508.613,1240.1L1508.613,1240.1c-0.113,3.987-0.281,10.045-0.434,16.615
				c-11.551-28.312-4.878-50.906-4.764-51.286C1502.166,1213.111,1508.524,1239.723,1508.613,1240.1z"/>
		</g>
		<g>
			<path style="fill:#9C9C9C;" d="M1419.441,1248.638L1419.441,1248.638c-1.463,7.124-2.782,12.764-3.6,14.539
				c-3.945-19.093-0.396-43.537-0.396-43.537C1415.984,1231.316,1419.441,1248.638,1419.441,1248.638z"/>
		</g>
		<g>
			<path style="fill:#EEA886;" d="M1501.396,1302.006l-0.001,0.002c-25.818,9.945-55.879,19.658-55.879,19.658l-5.691-14.516
				c0,0,30.497-16.572,51.105-28.193C1490.931,1278.957,1498.428,1282.607,1501.396,1302.006z"/>
		</g>
		<g>
			<polygon style="fill:#44454A;" points="1437.99,1322.508 1317.046,1320.729 1378.109,1351.734 			"/>
		</g>
		<g>
			<polygon style="fill:#858791;" points="1378.109,1351.734 1437.99,1328.539 1437.99,1322.508 1373.376,1345.817 			"/>
		</g>
		<g>
			<g>
				<path style="fill:#EEA886;" d="M1434.856,1310.581c0,0-7.555-1.177-12.777-2.392c-4.041-0.941-14.088,0.355-16.647,2.948
					c-2.559,2.593-10.697,20.662-12.236,21.765c-1.539,1.102,0.788,3.654,3.492,2.373c0,0,2.481,7.906,8.606,4.947
					c6.126-2.96,10.284-9.423,13.492-10.561c3.208-1.139,21.888-6.881,21.888-6.881S1439.669,1308.656,1434.856,1310.581z"/>
			</g>
		</g>
		<g>
			<g>
				<path style="fill:#EEA886;" d="M1407.276,1309.953c0,0-4.852,2.344-6.12,3.389c-1.267,1.045-6.401,4.889-7.646,5.793
					s1.876,3.477,11.057-0.5C1413.748,1314.659,1407.276,1309.953,1407.276,1309.953z"/>
			</g>
		</g>
		<g>
			<polygon style="fill:#858791;" points="1378.109,1351.734 1342.135,1253.511 1226.16,1255.404 1260.446,1345.919 			"/>
		</g>
		<g>
			<path style="fill:#EEA886;" d="M1478.563,1101.034c0.429-3.608,7.563-4.933,8.138,0.479c0.574,5.412-3.242,14.909-5.949,13.975
				C1478.044,1114.554,1477.973,1106.012,1478.563,1101.034z"/>
		</g>
	</g>
	<g>
		<g>
			<g>
				<path style="fill:#163342;" d="M981.914,979.96c0,0,22.306,47.031,6.952,49.844c-21.083,3.861-29.613-35.093-29.613-35.093
					L981.914,979.96z"/>
			</g>
		</g>
		<g>
			<g>
				<path style="fill:#EEA886;" d="M1016.401,1203.053c0,0,1.479,4.459-0.33,10.048c-0.882,2.726-0.504,20.301-0.288,22.566
					c0.182,1.9,1.389,0.71,1.971-0.577c0.333-0.738,1.179-6.862,2.14-10.145c0.807-2.756,1.57-3.81,2.091-2.956
					c0.521,0.853,1.953,12.089,1.162,16.958c-0.791,4.87,0.842,15.92,3.298,14.189c2.457-1.732,7.384-22.112,6.505-29.649
					c-0.878-7.537-4.057-16.882-4.057-16.882L1016.401,1203.053z"/>
			</g>
		</g>
		<g>
			<g>
				<path style="fill:#E8734D;" d="M1029.65,1209.117c0.012,0.746-9.19-3.002-11.258-5.505c-0.249-0.299-0.398-0.573-0.424-0.821
					c-0.211-2.392-13.661-34.782-15.691-45.567c-0.374-1.942-0.722-3.848-1.071-5.703c-1.046-5.654-1.98-10.772-2.765-14.608
					c-0.386-1.893-0.735-3.462-1.046-4.633c-0.075-0.286-0.199-0.771-0.349-1.432c-0.062-0.236-0.112-0.498-0.187-0.784
					c0-0.013,0-0.013,0-0.025c-0.822-3.475-2.304-9.987-3.911-16.14c-0.125-0.461-0.236-0.934-0.361-1.395l0.025-2.453
					c-1.233-4.62,0.772-6.975,1.208-10.498c0.124-1.046,0.112-2.217-0.174-3.574c-0.013-0.05-0.013-0.1-0.025-0.138
					c-1.357-6.164-2.304-11.519-2.279-14.47c0.075-7.734-5.43-38.854-7.721-51.483c-0.586-3.15-0.959-5.156-0.997-5.367
					c0-0.013,0-0.013,0-0.013s0.012,0,0.05,0.013c0.162,0.049,0.349,0.124,0.536,0.199c1.308,0.486,4.657,1.793,8.431,3.786
					c4.957,2.664,10.648,6.55,13.3,11.406c5.143,9.402,6.065,31.881,6.252,36.65c0.199,4.77,3.138,44.67,3.773,52.79
					c0.623,8.119,1.631,15.056,3.238,20.548c0,0,0.038,0.137,0.124,0.411c1.881,7.086,11.021,53.35,11.308,58.617
					C1029.65,1209.005,1029.65,1209.066,1029.65,1209.117z"/>
			</g>
		</g>
		<g>
			<g>
				<path style="fill:#EEA886;" d="M919.039,1172.493c0,0-14.588,18.967-18.545,41.469c-3.957,22.502,2.337,98.025,2.164,109.147
					c-0.172,11.121-10.518,38.796-8.449,59.746c2.069,20.949,19.329,126.419,19.329,126.419l13.586-2.504
					c0,0-1.619-109.432-0.325-118.226c1.293-8.793,3.889-40.848,4.406-44.469c0.517-3.621,32.838-98.702,32.838-114.926
					C964.043,1212.928,954.214,1146.025,919.039,1172.493z"/>
			</g>
		</g>
		<g>
			<g>
				<path style="fill:#EEA886;" d="M992.321,1179.908c0,0,23.967,91.473,26.813,104.146c2.845,12.674,6.966,23.126,6.966,28.507
					c0,12.485-4.639,32.533-4.639,32.533l-37.998,149.431l-14.539,3.251c0,0,6.409-85.797,7.667-102.832
					c2.41-32.647,15.644-50.108,13.058-57.351c-2.586-7.242-41.642-90.783-41.642-90.783S918.436,1153.354,992.321,1179.908z"/>
			</g>
		</g>
		<g>
			<g>
				<path style="fill:#575C7D;" d="M1026.1,1312.561c0,0-55.435,23.802-137.975,23.802c0,0,3.622-107.533,15.621-134.466
					c12-26.933,90.487-14.816,90.487-14.816S1026.1,1289.996,1026.1,1312.561z"/>
			</g>
		</g>
		<g>
			<g>
				<g>
					<path style="fill:#EDDAD3;" d="M965.178,1017.527c0,0,12.8,6.045,17.244,6.934c4.444,0.889,21.688,23.288,24.71,31.466
						c3.022,8.178,0,20.444-6.222,34.844c-6.222,14.399-0.356,19.199-3.2,33.599c-2.845,14.4-2.842,53.656-2.309,61.656
						s-77.977,27.989-94.51,13.412c0,0,11.019-38.566,20.034-58.099c1.737-3.765,2.653-20.524,0.698-25.503
						c-1.956-4.977-24-42.132-24-42.132s-4.556-37.066,5.063-44.536c8.355-6.488,34.064-9.421,38.153-10.843
						C944.929,1016.902,956.823,1016.283,965.178,1017.527z"/>
				</g>
			</g>
		</g>
		<g>
			<g>
				<g>
					<path style="fill:#E8734D;" d="M1000.911,1090.769c-6.221,14.399-0.355,19.202-3.2,33.602
						c-2.845,14.399-2.84,53.656-2.309,61.654c0.536,7.999-77.977,27.993-94.51,13.413c0,0,4.303-15.061,9.732-31.128
						c0.671-1.983,1.357-3.986,2.059-5.976c2.694-7.672,3.419-10.282,6.104-16.102c1.738-3.767,3.285-21.116,1.327-26.095
						c-1.953-4.979-22.486-46.433-22.486-46.433s-4.558-37.067,5.059-44.535c3.286-2.55,9.251-4.553,15.531-6.13
						c2.359-0.592,4.768-1.122,7.092-1.598c7.222-1.493,13.653-2.465,15.531-3.115c4.087-1.423,15.982-2.044,24.341-0.797
						c0,0,13.07,5.803,17.444,6.984c5.282,1.428,21.982,22.933,25.002,31.107
						C1010.651,1063.799,1007.132,1076.369,1000.911,1090.769z"/>
				</g>
			</g>
		</g>
		<g>
			<g>
				<g>
					<path style="fill:#EEA886;" d="M971.287,1002.758c0,0-2.554,23.48-2.021,31.125c0,0-13.299,13.328-28.427-15.558
						c0,0,6.365-11.906,1.574-28.129C937.623,973.973,971.287,1002.758,971.287,1002.758z"/>
				</g>
			</g>
		</g>
		<g>
			<g>
				<path style="fill:#EEA987;" d="M931.993,958.705c0,0-2.935-3.525-4.029,0.024c-1.094,3.549,2.49,14.099,2.885,15.627
					c0,0,1.778,5.921,2.489,5.165C934.047,978.766,931.993,958.705,931.993,958.705z"/>
			</g>
		</g>
		<g>
			<g>
				<path style="fill:#EEA987;" d="M983.258,959.143c0,0,2.935-3.523,4.029,0.025c1.094,3.549-2.491,14.1-2.885,15.627
					c0,0-1.778,5.92-2.489,5.165C981.203,979.204,983.258,959.143,983.258,959.143z"/>
			</g>
		</g>
		<g>
			<g>
				<path style="fill:#EEA987;" d="M962.231,924.971c0,0,26.342,3.97,22.398,46.399c-3.943,42.429-27.122,39.238-28.71,39.202
					c-1.588-0.035-23.85,0.883-25.775-50.891C930.144,959.682,929.246,921.396,962.231,924.971z"/>
			</g>
		</g>
		<g>
			<g>
				<path style="fill:#163342;" d="M937.899,970.813c0,0,26.775-0.278,41.087-3.122c0,0,1.515,4.152,3.1,2.805
					c1.986-1.691,3.507-11.791,3.507-11.791s0.701-34.504-30.512-34.829c-31.213-0.324-24.872,37.372-24.872,37.372l0,0
					C930.209,961.248,931.243,970.456,937.899,970.813z"/>
			</g>
		</g>
		<g>
			<g>
				<path style="fill:#A77860;" d="M945.326,1006.523c0,0,9.386,8.442,23.94,0.734c0,0-4.261,8.813-12.393,8.631
					C948.741,1015.709,945.326,1006.523,945.326,1006.523z"/>
			</g>
		</g>
		<g>
			<g>
				<path style="fill:#EEA886;" d="M930.648,1020.392c0,0,16.072,26.12,34.243,25.021c25.152-1.522,11.865-22.996,11.865-22.996
					s-6.217-3.412-7.979-3.75c-1.762-0.34-27.773-0.669-27.773-0.669L930.648,1020.392z"/>
			</g>
		</g>
		<g>
			<g>
				<path style="fill:#EDDAD3;" d="M972.966,1496.403c0,0,5.224-4.646,7.832-5.196c2.608-0.549,5.08-0.411,6.177,0.824
					c1.099,1.235,4.265,6.178,5.977,7.688c1.711,1.51,13.929,13.315,16.812,14.14c2.883,0.823,15.375,0.138,14.688,7.413
					c-0.686,7.275-10.845,10.433-28.965,8.785c-18.121-1.648-15.924-5.902-26.083-8.1c-10.158-2.196-10.845-7.275-9.06-13.453
					c1.785-6.177,8.979-12.323,8.236-13.97C967.836,1492.888,972.966,1496.403,972.966,1496.403z"/>
			</g>
		</g>
		<g>
			<g>
				<path style="fill:#EDDAD3;" d="M916.304,1508.16c0,0,5.786-2.625,9.641-2.488c3.854,0.139,3.442,2.5,4.405,3.935
					c0.964,1.435,10.05,15.202,12.528,17.68c2.478,2.477,11.289,5.094,10.05,11.289c-1.239,6.194-12.39,8.673-26.157,6.884
					c-13.767-1.79-20.512-14.594-22.715-17.484c-2.203-2.891,5.231-21.477,7.434-22.784
					C913.692,1503.883,916.304,1508.16,916.304,1508.16z"/>
			</g>
		</g>
		<g>
			<g>
				<path style="fill:#B85B3C;" d="M1007.234,1072.242v0.037c-0.013,0.299-0.038,0.598-0.05,0.896
					c-2.429,45.816-8.543,63.201-8.742,63.736c-0.386-1.893-0.735-3.462-1.046-4.633c-0.075-0.286-0.199-0.771-0.349-1.432
					c-0.062-0.236-0.112-0.498-0.187-0.784c0-0.013,0-0.013,0-0.025c0.473-2.429,0.809-4.646,1.046-6.688
					c0.548-4.794,0.56-8.642,0.398-12.067c-0.012-0.323-0.025-0.66-0.05-1.009c0-0.087-0.012-0.174-0.012-0.274
					c-0.237-4.919-0.436-12.142,2.316-18.12c0.747-1.619,1.531-3.648,2.291-5.778c0-0.013,0.013-0.024,0.013-0.037
					c0.037-0.1,0.075-0.199,0.1-0.299C1005.229,1079.402,1007.234,1072.242,1007.234,1072.242z"/>
			</g>
		</g>
		<g>
			<g>
				<path style="fill:#525252;" d="M981.311,1164.3h-28.665c-3.519,0-6.398-2.446-6.493-5.516l-1.625-52.8
					c-0.098-3.189,2.837-5.821,6.493-5.821h32.541c3.682,0,6.627,2.668,6.491,5.879l-2.25,52.8
					C987.672,1161.889,984.804,1164.3,981.311,1164.3z"/>
			</g>
		</g>
		<g>
			<g>
				<path style="fill:#EEA886;" d="M938.484,1127.075c0,0,2.202,0.563,3.915-0.192c2.957-1.303,4.96-5.754,9.312-4.371
					c4.352,1.383,3.138,15.767,1.409,18.137c-1.729,2.37-8.195,2.238-16.865-1.715
					C927.583,1134.981,938.484,1127.075,938.484,1127.075z"/>
			</g>
		</g>
		<g>
			<g>
				<path style="fill:#EEA886;" d="M950.444,1122.284c0,0,6.821-0.667,14.482-0.528c6.721,0.121,14.468,1.468,14.951,2.751
					c0.538,1.43-6.771,0.837-13.457,1.142c-6.154,0.28-4.921,1.205-4.921,1.205s-0.335-0.282,6.397,0.652
					c7.238,1.004,14.529,2.734,14.916,4.318c0.188,0.771-0.167,1.18-2.87,1.226c1.55,0.291,1.673,0.739,1.587,1.369
					c-0.447,3.262-11.375,3.371-15.715,3.413c3.333-0.014,5.771,0.317,4.132,2.188c-1.875,2.14-17.313,1.629-22.875,1.952
					C941.003,1142.324,950.444,1122.284,950.444,1122.284z"/>
			</g>
		</g>
		<g>
			<g>
				<g>
					<path style="fill:#E8734D;" d="M920.753,1025.285c0,0-16.772-2.897-25.933,12.024c-10.482,17.076-10.478,24.89-12.81,33.341
						c-2.688,9.74-5.783,20.504-6.418,22.789c-0.635,2.285-12.671,26.516-7.632,36.38c5.066,9.916,69.321,7.722,69.886,9.81
						c0.36,1.329,2.585-12.354,2.585-12.354s-28.569-6.832-35.654-8.543c-14.717-3.554-8.347-14.018-6.297-17.902
						c5.617-10.642,10.355-15.17,12.686-19.605C913.498,1076.79,934.084,1031.657,920.753,1025.285z"/>
				</g>
			</g>
		</g>
		<g>
			<g>
				<path style="fill:#EEA886;" d="M896.546,1114.039c0,0-15.304,1.098-19.082,20.488c0,0,6.7,3.83,61.111,5.403l1.857-12.655
					C940.432,1127.275,900.65,1118.188,896.546,1114.039z"/>
			</g>
		</g>
		<g>
			<g>
				<path style="fill:#EEA886;" d="M1001.208,1151.524c0,0,9.26-6.343,17.003-1.617c0,0,4.584,15.097,12.735,63.618l-13.694-8.229
					C1017.252,1205.297,1002.947,1168.223,1001.208,1151.524z"/>
			</g>
		</g>
	</g>
	
		<linearGradient id="SVGID_00000039850512666080245350000015205424670092554127_" gradientUnits="userSpaceOnUse" x1="2027.8219" y1="2306.0491" x2="2417.6982" y2="1571.6299">
		<stop  offset="0" style="stop-color:#186DA1"/>
		<stop  offset="1" style="stop-color:#639C38"/>
	</linearGradient>
	<path style="fill:url(#SVGID_00000039850512666080245350000015205424670092554127_);" d="M2499.649,2000h-580.302
		c0-160.252,129.918-290.132,290.131-290.132C2369.729,1709.868,2499.649,1839.748,2499.649,2000z"/>
	<g>
		<g>
			
				<linearGradient id="SVGID_00000149384006869160388220000006033868745529766796_" gradientUnits="userSpaceOnUse" x1="197.9799" y1="855.2652" x2="341.8929" y2="855.2652">
				<stop  offset="0" style="stop-color:#186DA1"/>
				<stop  offset="1" style="stop-color:#639C38"/>
			</linearGradient>
			<path style="fill:url(#SVGID_00000149384006869160388220000006033868745529766796_);" d="M218.999,907.175
				c-28.025-28.623-28.025-75.194,0-103.818c28.145-28.743,73.728-28.745,101.875,0c28.026,28.624,28.026,75.195,0,103.818
				C292.734,935.914,247.145,935.922,218.999,907.175z M224.402,808.646c-25.169,25.707-25.169,67.533,0,93.238
				c25.172,25.708,65.892,25.714,91.068,0c25.169-25.705,25.169-67.531,0-93.238C290.298,782.938,249.579,782.932,224.402,808.646z"
				/>
		</g>
		
			<linearGradient id="SVGID_00000076583922335375164960000005766770384301875843_" gradientUnits="userSpaceOnUse" x1="220.1212" y1="850.8627" x2="254.6886" y2="850.8627">
			<stop  offset="0" style="stop-color:#186DA1"/>
			<stop  offset="1" style="stop-color:#639C38"/>
		</linearGradient>
		<path style="fill:url(#SVGID_00000076583922335375164960000005766770384301875843_);" d="M236.976,896.891
			c-22.473-22.951-22.473-60.297,0-83.249c3.6-3.677,7.641-6.845,12.013-9.42c1.8-1.06,4.117-0.46,5.177,1.339
			c1.059,1.8,0.46,4.117-1.339,5.177c-3.799,2.237-7.314,4.993-10.447,8.194c-19.616,20.034-19.616,52.635,0,72.67
			c1.461,1.491,1.435,3.885-0.057,5.346C240.832,898.408,238.438,898.385,236.976,896.891z"/>
		
			<linearGradient id="SVGID_00000052794285147404360450000000289672112984061624_" gradientUnits="userSpaceOnUse" x1="320.9693" y1="929.9962" x2="389.2047" y2="929.9962">
			<stop  offset="0" style="stop-color:#186DA1"/>
			<stop  offset="1" style="stop-color:#639C38"/>
		</linearGradient>
		<path style="fill:url(#SVGID_00000052794285147404360450000000289672112984061624_);" d="M356.472,956.724l-35.502-38.137
			l5.536-5.151l35.502,38.137c4.749,5.096,12.36,4.605,16.549-0.016l0.226-0.247c4.389-4.845,3.661-12.448-1.611-16.468
			l-41.432-31.595l4.586-6.014l41.432,31.595c8.773,6.693,9.988,19.44,2.624,27.563l-0.225,0.247
			C376.796,964.762,363.995,964.808,356.472,956.724z"/>
		
			<linearGradient id="SVGID_00000024698844104715542600000005695433683758638741_" gradientUnits="userSpaceOnUse" x1="2232.3445" y1="874.5007" x2="2429.3123" y2="874.5007">
			<stop  offset="0" style="stop-color:#186DA1"/>
			<stop  offset="1" style="stop-color:#639C38"/>
		</linearGradient>
		<path style="fill:url(#SVGID_00000024698844104715542600000005695433683758638741_);" d="M2422.757,869.908
			c-6.722,13.034-14.104,24.209-19.493,32.361c-3.259,4.931-5.827,8.821-7.188,11.478c-4.212,8.181-3.842,46.28-2.606,68.379
			c0.128,2.444-1.795,4.62-4.387,4.62c-2.305,0-4.241-1.799-4.377-4.134c-0.331-6.1-3.113-59.898,3.569-72.873
			c1.585-3.083,4.271-7.149,7.675-12.295c5.282-7.995,12.509-18.938,19.005-31.554c12.51-24.259,4.659-62.961-26.942-81.908
			c-54.566-32.721-101.08,5.641-103.035,7.285c-0.156,0.136-0.331,0.262-0.506,0.379c-0.233,0.146-23.87,15.281-23.87,38.411
			l0.011,5.252c0.029,12.587,0.059,24.482-1.158,30.494c-0.924,4.62-15.67,30.396-17.751,34.559
			c-0.594,1.196-0.642,1.917-0.535,2.082c0.623,0.973,4.349,2.402,11.644,2.14c1.448-0.059,2.83,0.477,3.88,1.498
			c2.384,2.315,2.364,6.089,2.315,12.928c-0.049,8.043-0.116,20.191,4.971,26.076c4.931,5.72,15.99,4.436,29.997,2.821l4.318-0.497
			c2.666-0.301,5.175,0.604,7.071,2.529c6.653,6.789,4.602,26.973,3.813,32.994c-0.311,2.402-2.519,4.095-4.911,3.783
			c-2.403-0.321-4.095-2.52-3.783-4.922c1.507-11.566,0.816-24.083-1.421-25.757l-4.085,0.574
			c-15.923,1.839-29.677,3.434-37.643-5.787c-7.237-8.385-7.149-21.953-7.091-31.865c0.01-1.867,0.02-4.026-0.048-5.583
			c-6.284-0.116-13.336-1.42-16.4-6.185c-1.361-2.121-2.461-5.71,0.068-10.748c2.188-4.387,16.351-29.142,17.003-32.371
			c1.03-5.146,1.001-17.684,0.982-28.742l-0.011-5.272c0-26.943,24.794-43.79,27.741-45.687
			c4.134-3.336,55.092-42.584,112.947-7.908C2428.35,797.939,2437.074,842.118,2422.757,869.908z"/>
		
			<linearGradient id="SVGID_00000001624056772647911310000013819610668732916126_" gradientUnits="userSpaceOnUse" x1="2306.5078" y1="836.8286" x2="2367.8679" y2="836.8286">
			<stop  offset="0" style="stop-color:#186DA1"/>
			<stop  offset="1" style="stop-color:#639C38"/>
		</linearGradient>
		<path style="fill:url(#SVGID_00000001624056772647911310000013819610668732916126_);" d="M2338.588,875.905h-8.768
			c0-12.781,6.684-25.615,17.883-34.323c11.521-7.906,11.401-16.078,11.397-16.157c-0.007-10.534-9.835-18.905-21.917-18.905
			c-12.08,0-21.908,8.371-21.908,18.664h-8.768c0-15.127,13.762-27.432,30.676-27.432c16.916,0,30.678,12.305,30.678,27.432
			c0.023,0.289,0.528,12.845-14.991,23.475C2344.008,855.563,2338.588,865.81,2338.588,875.905z"/>
		<g>
			<g>
				<g>
					
						<linearGradient id="SVGID_00000145752523302445753240000000160717996943454908_" gradientUnits="userSpaceOnUse" x1="2328.2607" y1="892.8339" x2="2341.5771" y2="892.8339">
						<stop  offset="0" style="stop-color:#186DA1"/>
						<stop  offset="1" style="stop-color:#639C38"/>
					</linearGradient>
					<path style="fill:url(#SVGID_00000145752523302445753240000000160717996943454908_);" d="M2341.577,892.834
						c0,3.677-2.986,6.663-6.654,6.663c-3.677,0-6.662-2.986-6.662-6.663c0-3.677,2.985-6.663,6.662-6.663
						C2338.591,886.171,2341.577,889.157,2341.577,892.834z"/>
				</g>
			</g>
		</g>
		
			<linearGradient id="SVGID_00000060723639628142338470000005465193109505418881_" gradientUnits="userSpaceOnUse" x1="760.6075" y1="304.5888" x2="1057.2881" y2="304.5888">
			<stop  offset="0" style="stop-color:#186DA1"/>
			<stop  offset="1" style="stop-color:#639C38"/>
		</linearGradient>
		<path style="fill:url(#SVGID_00000060723639628142338470000005465193109505418881_);" d="M968.836,248.605
			c-6.241,0-12.321,0.503-18.194,1.459c-14.085-28.209-49.933-48.303-91.811-48.303c-54.163,0-98.224,33.592-98.224,74.882
			c0,26.48,18.157,50.778,47.689,64.265l-4.511,28.503c-0.355,2.231,0.613,4.475,2.476,5.749c1.837,1.272,4.321,1.361,6.265,0.222
			l40.971-23.992c11.044,0.55,23.987-0.563,36.362-3.702c7.343,11.242,18.707,20.865,33.101,27.584l-3.973,25.377
			c-0.355,2.244,0.625,4.487,2.501,5.75c1.938,1.316,4.377,1.327,6.265,0.196l36.472-21.577
			c50.594,2.016,93.063-29.184,93.063-68.163C1057.288,279.23,1017.604,248.605,968.836,248.605z M852.529,339.596
			c-1.164-0.098-2.378,0.185-3.408,0.785l-31.838,18.647l3.298-20.779c0.429-2.697-1.054-5.321-3.58-6.339
			c-27.56-11.205-44.673-32.378-44.673-55.266c0-34.829,38.801-63.161,86.503-63.161c47.701,0,86.503,28.332,86.503,63.161
			C945.334,316.766,895.776,342.896,852.529,339.596z M963.257,373.212c-1.202-0.087-2.415,0.195-3.444,0.809l-27.327,16.171
			l2.746-17.556c0.429-2.686-1.054-5.296-3.555-6.326c-12.897-5.296-23.232-13.093-30.085-22.276
			c14.11-5.222,26.346-12.945,35.7-22.422h80.741v-12.26h-70.872c2.256-3.531,4.168-7.221,5.676-11.033h65.196v-12.26h-61.776
			c0.527-3.089,0.785-6.228,0.785-9.415c0-5.272-0.723-10.421-2.084-15.386c4.5-0.613,9.146-0.932,13.878-0.932
			c42.32,0,76.745,25.365,76.745,56.528C1045.581,353.517,1000.72,376.211,963.257,373.212z"/>
		
			<linearGradient id="SVGID_00000176758980186780938510000000331741748363535519_" gradientUnits="userSpaceOnUse" x1="931.628" y1="338.9155" x2="1017.4449" y2="338.9155">
			<stop  offset="0" style="stop-color:#186DA1"/>
			<stop  offset="1" style="stop-color:#639C38"/>
		</linearGradient>
		
			<rect x="931.628" y="333.398" style="fill:url(#SVGID_00000176758980186780938510000000331741748363535519_);" width="85.817" height="11.034"/>
	</g>
</g>
</svg>
