<?xml version="1.0" encoding="utf-8"?>
<!-- Generator: Adobe Illustrator 27.5.0, SVG Export Plug-In . SVG Version: 6.00 Build 0)  -->
<svg version="1.1" xmlns="http://www.w3.org/2000/svg" xmlns:xlink="http://www.w3.org/1999/xlink" x="0px" y="0px"
	 viewBox="0 0 500 500" style="enable-background:new 0 0 500 500;" xml:space="preserve">
<g id="Background_Simple">
	<g>
		<path style="fill:#C6FF00;" d="M421.798,275.488c4.116-26.999,1.168-54.796-6.02-81.021c-6.442-23.503-14.555-47.65-33.457-64.153
			c-22.899-19.992-51.492-22.617-80.515-19.225c-57.401,6.709-73.801-17.891-116.292-16.4s-79.765,19.382-91.692,55.91
			c-11.927,36.528,6.709,74.546-2.236,96.165c-8.946,21.618-34.291,43.237-19.382,74.546c14.909,31.31,47.71,55.91,123.747,61.873
			c76.037,5.964,142.384,8.946,185.622-30.565C405.002,331.207,417.415,304.23,421.798,275.488z"/>
		<path style="opacity:0.7;fill:#FFFFFF;" d="M421.798,275.488c4.116-26.999,1.168-54.796-6.02-81.021
			c-6.442-23.503-14.555-47.65-33.457-64.153c-22.899-19.992-51.492-22.617-80.515-19.225c-57.401,6.709-73.801-17.891-116.292-16.4
			s-79.765,19.382-91.692,55.91c-11.927,36.528,6.709,74.546-2.236,96.165c-8.946,21.618-34.291,43.237-19.382,74.546
			c14.909,31.31,47.71,55.91,123.747,61.873c76.037,5.964,142.384,8.946,185.622-30.565
			C405.002,331.207,417.415,304.23,421.798,275.488z"/>
	</g>
</g>
<g id="Plants">
	<g>
		<g>
			<g>
				<path style="fill:#C6FF00;" d="M159.422,133.081c-0.618,0-1.118-0.501-1.118-1.118v-13.418c0-0.618,0.501-1.118,1.118-1.118
					c0.617,0,1.118,0.501,1.118,1.118v13.418C160.54,132.58,160.039,133.081,159.422,133.081z"/>
			</g>
			<g>
				<path style="fill:#C6FF00;" d="M166.131,126.372h-13.418c-0.618,0-1.118-0.501-1.118-1.118s0.501-1.118,1.118-1.118h13.418
					c0.618,0,1.118,0.501,1.118,1.118S166.749,126.372,166.131,126.372z"/>
			</g>
			<g>
				<path style="fill:#C6FF00;" d="M399.461,293.355c-0.618,0-1.118-0.5-1.118-1.118v-10.436c0-0.618,0.5-1.118,1.118-1.118
					c0.618,0,1.118,0.5,1.118,1.118v10.436C400.579,292.855,400.079,293.355,399.461,293.355z"/>
			</g>
			<g>
				<path style="fill:#C6FF00;" d="M404.68,288.137h-10.437c-0.618,0-1.118-0.5-1.118-1.118c0-0.618,0.5-1.118,1.118-1.118h10.437
					c0.618,0,1.118,0.5,1.118,1.118C405.798,287.637,405.298,288.137,404.68,288.137z"/>
			</g>
			<g>
				<path style="fill:#C6FF00;" d="M91.957,304.538c-0.618,0-1.118-0.5-1.118-1.118v-6.709c0-0.618,0.501-1.118,1.118-1.118
					s1.118,0.5,1.118,1.118v6.709C93.076,304.037,92.575,304.538,91.957,304.538z"/>
			</g>
			<g>
				<path style="fill:#C6FF00;" d="M95.312,301.183h-6.709c-0.618,0-1.118-0.5-1.118-1.118s0.501-1.118,1.118-1.118h6.709
					c0.618,0,1.118,0.5,1.118,1.118S95.929,301.183,95.312,301.183z"/>
			</g>
			<g>
				<g>
					<path style="fill:#C6FF00;" d="M118.794,144.636c-0.618,0-1.118-0.501-1.118-1.118v-6.709c0-0.618,0.501-1.118,1.118-1.118
						c0.618,0,1.118,0.501,1.118,1.118v6.709C119.912,144.135,119.412,144.636,118.794,144.636z"/>
				</g>
				<g>
					<path style="fill:#C6FF00;" d="M122.149,141.281h-6.709c-0.618,0-1.118-0.501-1.118-1.118c0-0.617,0.501-1.118,1.118-1.118
						h6.709c0.618,0,1.118,0.501,1.118,1.118C123.267,140.78,122.766,141.281,122.149,141.281z"/>
				</g>
			</g>
			<g>
				<path style="fill:#C6FF00;" d="M290.624,328.392c-0.618,0-1.118-0.5-1.118-1.118v-6.709c0-0.618,0.5-1.118,1.118-1.118
					s1.118,0.5,1.118,1.118v6.709C291.742,327.892,291.242,328.392,290.624,328.392z"/>
			</g>
			<g>
				<path style="fill:#C6FF00;" d="M293.978,325.037h-6.709c-0.618,0-1.118-0.5-1.118-1.118c0-0.618,0.5-1.118,1.118-1.118h6.709
					c0.618,0,1.118,0.5,1.118,1.118C295.096,324.537,294.596,325.037,293.978,325.037z"/>
			</g>
			<g>
				<path style="fill:#C6FF00;" d="M392.752,181.536c-2.262,0-4.1-1.84-4.1-4.1c0-2.261,1.839-4.1,4.1-4.1
					c2.261,0,4.1,1.839,4.1,4.1C396.852,179.697,395.013,181.536,392.752,181.536z M392.752,175.572
					c-1.028,0-1.864,0.836-1.864,1.864s0.836,1.863,1.864,1.863c1.027,0,1.864-0.836,1.864-1.863S393.779,175.572,392.752,175.572z"
					/>
			</g>
			<g>
				<path style="fill:#C6FF00;" d="M305.533,129.354c-3.083,0-5.591-2.508-5.591-5.591c0-3.083,2.508-5.591,5.591-5.591
					s5.591,2.508,5.591,5.591C311.124,126.845,308.615,129.354,305.533,129.354z M305.533,120.408c-1.85,0-3.355,1.505-3.355,3.354
					c0,1.85,1.505,3.355,3.355,3.355s3.355-1.505,3.355-3.355C308.887,121.913,307.382,120.408,305.533,120.408z"/>
			</g>
			<g>
				<path style="fill:#C6FF00;" d="M208.623,312.737c-3.083,0-5.591-2.508-5.591-5.591c0-3.083,2.508-5.591,5.591-5.591
					c3.083,0,5.591,2.508,5.591,5.591C214.214,310.229,211.705,312.737,208.623,312.737z M208.623,303.792
					c-1.85,0-3.355,1.505-3.355,3.355c0,1.85,1.505,3.355,3.355,3.355c1.85,0,3.355-1.505,3.355-3.355
					C211.977,305.296,210.472,303.792,208.623,303.792z"/>
			</g>
		</g>
		<g style="opacity:0.5;">
			<g>
				<path style="fill:#FFFFFF;" d="M159.422,133.081c-0.618,0-1.118-0.501-1.118-1.118v-13.418c0-0.618,0.501-1.118,1.118-1.118
					c0.617,0,1.118,0.501,1.118,1.118v13.418C160.54,132.58,160.039,133.081,159.422,133.081z"/>
			</g>
			<g>
				<path style="fill:#FFFFFF;" d="M166.131,126.372h-13.418c-0.618,0-1.118-0.501-1.118-1.118s0.501-1.118,1.118-1.118h13.418
					c0.618,0,1.118,0.501,1.118,1.118S166.749,126.372,166.131,126.372z"/>
			</g>
			<g>
				<path style="fill:#FFFFFF;" d="M399.461,293.355c-0.618,0-1.118-0.5-1.118-1.118v-10.436c0-0.618,0.5-1.118,1.118-1.118
					c0.618,0,1.118,0.5,1.118,1.118v10.436C400.579,292.855,400.079,293.355,399.461,293.355z"/>
			</g>
			<g>
				<path style="fill:#FFFFFF;" d="M404.68,288.137h-10.437c-0.618,0-1.118-0.5-1.118-1.118c0-0.618,0.5-1.118,1.118-1.118h10.437
					c0.618,0,1.118,0.5,1.118,1.118C405.798,287.637,405.298,288.137,404.68,288.137z"/>
			</g>
			<g>
				<path style="fill:#FFFFFF;" d="M91.957,304.538c-0.618,0-1.118-0.5-1.118-1.118v-6.709c0-0.618,0.501-1.118,1.118-1.118
					s1.118,0.5,1.118,1.118v6.709C93.076,304.037,92.575,304.538,91.957,304.538z"/>
			</g>
			<g>
				<path style="fill:#FFFFFF;" d="M95.312,301.183h-6.709c-0.618,0-1.118-0.5-1.118-1.118s0.501-1.118,1.118-1.118h6.709
					c0.618,0,1.118,0.5,1.118,1.118S95.929,301.183,95.312,301.183z"/>
			</g>
			<g>
				<g>
					<path style="fill:#FFFFFF;" d="M118.794,144.636c-0.618,0-1.118-0.501-1.118-1.118v-6.709c0-0.618,0.501-1.118,1.118-1.118
						c0.618,0,1.118,0.501,1.118,1.118v6.709C119.912,144.135,119.412,144.636,118.794,144.636z"/>
				</g>
				<g>
					<path style="fill:#FFFFFF;" d="M122.149,141.281h-6.709c-0.618,0-1.118-0.501-1.118-1.118c0-0.617,0.501-1.118,1.118-1.118
						h6.709c0.618,0,1.118,0.501,1.118,1.118C123.267,140.78,122.766,141.281,122.149,141.281z"/>
				</g>
			</g>
			<g>
				<path style="fill:#FFFFFF;" d="M290.624,328.392c-0.618,0-1.118-0.5-1.118-1.118v-6.709c0-0.618,0.5-1.118,1.118-1.118
					s1.118,0.5,1.118,1.118v6.709C291.742,327.892,291.242,328.392,290.624,328.392z"/>
			</g>
			<g>
				<path style="fill:#FFFFFF;" d="M293.978,325.037h-6.709c-0.618,0-1.118-0.5-1.118-1.118c0-0.618,0.5-1.118,1.118-1.118h6.709
					c0.618,0,1.118,0.5,1.118,1.118C295.096,324.537,294.596,325.037,293.978,325.037z"/>
			</g>
			<g>
				<path style="fill:#FFFFFF;" d="M392.752,181.536c-2.262,0-4.1-1.84-4.1-4.1c0-2.261,1.839-4.1,4.1-4.1
					c2.261,0,4.1,1.839,4.1,4.1C396.852,179.697,395.013,181.536,392.752,181.536z M392.752,175.572
					c-1.028,0-1.864,0.836-1.864,1.864s0.836,1.863,1.864,1.863c1.027,0,1.864-0.836,1.864-1.863S393.779,175.572,392.752,175.572z"
					/>
			</g>
			<g>
				<path style="fill:#FFFFFF;" d="M305.533,129.354c-3.083,0-5.591-2.508-5.591-5.591c0-3.083,2.508-5.591,5.591-5.591
					s5.591,2.508,5.591,5.591C311.124,126.845,308.615,129.354,305.533,129.354z M305.533,120.408c-1.85,0-3.355,1.505-3.355,3.354
					c0,1.85,1.505,3.355,3.355,3.355s3.355-1.505,3.355-3.355C308.887,121.913,307.382,120.408,305.533,120.408z"/>
			</g>
			<g>
				<path style="fill:#FFFFFF;" d="M208.623,312.737c-3.083,0-5.591-2.508-5.591-5.591c0-3.083,2.508-5.591,5.591-5.591
					c3.083,0,5.591,2.508,5.591,5.591C214.214,310.229,211.705,312.737,208.623,312.737z M208.623,303.792
					c-1.85,0-3.355,1.505-3.355,3.355c0,1.85,1.505,3.355,3.355,3.355c1.85,0,3.355-1.505,3.355-3.355
					C211.977,305.296,210.472,303.792,208.623,303.792z"/>
			</g>
		</g>
		<g>
			<g>
				<polygon style="fill:#C6FF00;" points="213.259,115.554 211.687,110.716 210.115,115.554 205.027,115.554 209.143,118.544 
					207.571,123.383 211.687,120.393 215.802,123.383 214.23,118.544 218.346,115.554 				"/>
				<polygon style="fill:#C6FF00;" points="230.235,115.554 228.663,110.716 227.091,115.554 222.003,115.554 226.119,118.544 
					224.547,123.383 228.663,120.393 232.778,123.383 231.206,118.544 235.322,115.554 				"/>
				<polygon style="fill:#C6FF00;" points="247.211,115.554 245.639,110.716 244.067,115.554 238.979,115.554 243.095,118.544 
					241.523,123.383 245.639,120.393 249.754,123.383 248.182,118.544 252.298,115.554 				"/>
				<polygon style="fill:#C6FF00;" points="264.187,115.554 262.615,110.716 261.043,115.554 255.955,115.554 260.071,118.544 
					258.499,123.383 262.615,120.393 266.73,123.383 265.158,118.544 269.274,115.554 				"/>
				<polygon style="fill:#C6FF00;" points="286.25,115.554 281.163,115.554 279.591,110.716 278.019,115.554 272.931,115.554 
					277.047,118.544 275.475,123.383 279.591,120.393 283.706,123.383 282.134,118.544 				"/>
			</g>
			<g style="opacity:0.5;">
				<polygon style="fill:#FFFFFF;" points="213.259,115.554 211.687,110.716 210.115,115.554 205.027,115.554 209.143,118.544 
					207.571,123.383 211.687,120.393 215.802,123.383 214.23,118.544 218.346,115.554 				"/>
				<polygon style="fill:#FFFFFF;" points="230.235,115.554 228.663,110.716 227.091,115.554 222.003,115.554 226.119,118.544 
					224.547,123.383 228.663,120.393 232.778,123.383 231.206,118.544 235.322,115.554 				"/>
				<polygon style="fill:#FFFFFF;" points="247.211,115.554 245.639,110.716 244.067,115.554 238.979,115.554 243.095,118.544 
					241.523,123.383 245.639,120.393 249.754,123.383 248.182,118.544 252.298,115.554 				"/>
				<polygon style="fill:#FFFFFF;" points="264.187,115.554 262.615,110.716 261.043,115.554 255.955,115.554 260.071,118.544 
					258.499,123.383 262.615,120.393 266.73,123.383 265.158,118.544 269.274,115.554 				"/>
				<polygon style="fill:#FFFFFF;" points="286.25,115.554 281.163,115.554 279.591,110.716 278.019,115.554 272.931,115.554 
					277.047,118.544 275.475,123.383 279.591,120.393 283.706,123.383 282.134,118.544 				"/>
			</g>
		</g>
	</g>
	<g>
		<path style="fill:#C6FF00;" d="M432.026,316.394c-4.261-2.932-10.653-3.421-10.653-3.421c9.375-1.466,18.323,1.466,18.323,1.466
			s-5.966-4.398-10.227-4.398c-4.261,0-11.079-0.489-11.079-0.489c2.557-2.932,11.931-6.353,11.931-6.353s-6.818,0-9.801,0.489
			c-2.983,0.489-3.835,3.91-3.835,3.91s-0.852-1.955-7.244-3.421c-6.392-1.466-8.096,3.421-8.096,3.421s3.835,0,5.966,0
			c2.131,0,5.113,2.932,5.113,2.932s-6.818,0-9.375,1.466c-2.2,1.262-5.026,6.494-5.773,7.931
			c2.108-10.866,5.031-20.01,7.444-26.461c0.056-0.042,0.116-0.09,0.17-0.129c4.204-3.003,6.006-4.805,6.006-4.805l7.207,12.011
			l-0.6-10.21c0,0,6.006,1.802,7.807,3.603s7.207,7.807,7.207,7.807s-2.402-9.009-5.405-12.011
			c-3.003-3.003-8.408-6.606-8.408-6.606s6.606,0,9.009,1.201c2.402,1.201,9.609,6.006,9.609,6.006s-4.805-8.408-8.408-10.21
			c-3.603-1.802-13.212-1.802-13.212-1.802s4.204-3.603,7.207-3.603c3.003,0,8.408,0,8.408,0s-2.402-6.006-11.411-4.204
			c-9.009,1.802-10.21,4.204-10.21,4.204s-1.201-4.204-5.405-4.805c-4.204-0.601-13.813-0.601-13.813-0.601
			s13.212,4.204,16.816,7.807c0,0-9.609,0.601-15.615,0.601s-14.414,5.405-14.414,5.405s12.612-3.603,25.824-1.802
			c0,0-9.008,0.6-15.014,4.204c-6.006,3.603-12.011,12.011-12.011,12.011s5.405-5.405,12.612-7.207
			c7.207-1.802,17.416-4.204,17.416-4.204s-10.209,8.408-11.411,12.612c-1.201,4.204-4.805,11.411-4.805,11.411
			s8.611-11.001,13.45-15.5c-4.003,11.046-9.064,28.837-9.688,49.387c-1.777-7.285-6.974-22.368-20.561-29.923
			c2.573,0.703,6.284,1.725,9.275,2.583c5.113,1.466,8.949,5.864,8.949,5.864s-4.261-6.842-8.522-9.774
			c-4.261-2.932-10.653-3.421-10.653-3.421c9.375-1.466,18.323,1.466,18.323,1.466s-5.966-4.398-10.227-4.398
			s-11.079-0.489-11.079-0.489c2.557-2.932,11.931-6.353,11.931-6.353s-6.818,0-9.801,0.489c-2.983,0.489-3.835,3.91-3.835,3.91
			s-0.852-1.955-7.244-3.421c-6.392-1.466-8.096,3.421-8.096,3.421s3.835,0,5.966,0c2.131,0,5.113,2.932,5.113,2.932
			s-6.818,0-9.375,1.466c-2.557,1.466-5.966,8.308-5.966,8.308s5.113-3.91,6.818-4.887c1.704-0.977,6.392-0.977,6.392-0.977
			s-3.835,2.932-5.966,5.376c-2.131,2.444-3.835,9.774-3.835,9.774s3.835-4.887,5.113-6.353c1.278-1.466,5.54-2.932,5.54-2.932
			l-0.426,8.308l5.114-9.774c0,0,1.278,1.466,4.261,3.909c2.983,2.444,10.653,13.684,10.653,13.684s-2.557-5.864-3.409-9.285
			c-0.702-2.818-5.732-7.948-7.487-9.672c17.377,8.15,21.965,28.666,22.806,33.41h-7.197l1.585,13.955h12.678l1.585-13.955h-7.452
			c0.441-2.841,2.039-11.327,6.226-19.031c-0.218,0.81-0.342,1.34-0.342,1.34s3.835-4.887,5.113-6.353
			c1.278-1.466,5.54-2.932,5.54-2.932l-0.426,8.308l5.114-9.774c0,0,1.278,1.466,4.261,3.91
			c2.983,2.443,10.653,13.684,10.653,13.684s-2.557-5.864-3.409-9.285c-0.852-3.421-8.096-10.263-8.096-10.263
			s7.244,1.955,12.358,3.421c5.113,1.466,8.949,5.864,8.949,5.864S436.287,319.326,432.026,316.394z M394.579,342.737
			c0.32-8.042,1.319-15.633,2.647-22.542c0.806-0.614,5.132-3.893,6.676-4.778c1.704-0.977,6.392-0.977,6.392-0.977
			s-3.835,2.932-5.966,5.376c-0.921,1.057-1.762,3.027-2.421,4.923C397.873,330.811,395.686,337.947,394.579,342.737z"/>
		<path style="opacity:0.4;fill:#FFFFFF;" d="M432.026,316.394c-4.261-2.932-10.653-3.421-10.653-3.421
			c9.375-1.466,18.323,1.466,18.323,1.466s-5.966-4.398-10.227-4.398c-4.261,0-11.079-0.489-11.079-0.489
			c2.557-2.932,11.931-6.353,11.931-6.353s-6.818,0-9.801,0.489c-2.983,0.489-3.835,3.91-3.835,3.91s-0.852-1.955-7.244-3.421
			c-6.392-1.466-8.096,3.421-8.096,3.421s3.835,0,5.966,0c2.131,0,5.113,2.932,5.113,2.932s-6.818,0-9.375,1.466
			c-2.2,1.262-5.026,6.494-5.773,7.931c2.108-10.866,5.031-20.01,7.444-26.461c0.056-0.042,0.116-0.09,0.17-0.129
			c4.204-3.003,6.006-4.805,6.006-4.805l7.207,12.011l-0.6-10.21c0,0,6.006,1.802,7.807,3.603s7.207,7.807,7.207,7.807
			s-2.402-9.009-5.405-12.011c-3.003-3.003-8.408-6.606-8.408-6.606s6.606,0,9.009,1.201c2.402,1.201,9.609,6.006,9.609,6.006
			s-4.805-8.408-8.408-10.21c-3.603-1.802-13.212-1.802-13.212-1.802s4.204-3.603,7.207-3.603c3.003,0,8.408,0,8.408,0
			s-2.402-6.006-11.411-4.204c-9.009,1.802-10.21,4.204-10.21,4.204s-1.201-4.204-5.405-4.805
			c-4.204-0.601-13.813-0.601-13.813-0.601s13.212,4.204,16.816,7.807c0,0-9.609,0.601-15.615,0.601s-14.414,5.405-14.414,5.405
			s12.612-3.603,25.824-1.802c0,0-9.008,0.6-15.014,4.204c-6.006,3.603-12.011,12.011-12.011,12.011s5.405-5.405,12.612-7.207
			c7.207-1.802,17.416-4.204,17.416-4.204s-10.209,8.408-11.411,12.612c-1.201,4.204-4.805,11.411-4.805,11.411
			s8.611-11.001,13.45-15.5c-4.003,11.046-9.064,28.837-9.688,49.387c-1.777-7.285-6.974-22.368-20.561-29.923
			c2.573,0.703,6.284,1.725,9.275,2.583c5.113,1.466,8.949,5.864,8.949,5.864s-4.261-6.842-8.522-9.774
			c-4.261-2.932-10.653-3.421-10.653-3.421c9.375-1.466,18.323,1.466,18.323,1.466s-5.966-4.398-10.227-4.398
			s-11.079-0.489-11.079-0.489c2.557-2.932,11.931-6.353,11.931-6.353s-6.818,0-9.801,0.489c-2.983,0.489-3.835,3.91-3.835,3.91
			s-0.852-1.955-7.244-3.421c-6.392-1.466-8.096,3.421-8.096,3.421s3.835,0,5.966,0c2.131,0,5.113,2.932,5.113,2.932
			s-6.818,0-9.375,1.466c-2.557,1.466-5.966,8.308-5.966,8.308s5.113-3.91,6.818-4.887c1.704-0.977,6.392-0.977,6.392-0.977
			s-3.835,2.932-5.966,5.376c-2.131,2.444-3.835,9.774-3.835,9.774s3.835-4.887,5.113-6.353c1.278-1.466,5.54-2.932,5.54-2.932
			l-0.426,8.308l5.114-9.774c0,0,1.278,1.466,4.261,3.909c2.983,2.444,10.653,13.684,10.653,13.684s-2.557-5.864-3.409-9.285
			c-0.702-2.818-5.732-7.948-7.487-9.672c17.377,8.15,21.965,28.666,22.806,33.41h-7.197l1.585,13.955h12.678l1.585-13.955h-7.452
			c0.441-2.841,2.039-11.327,6.226-19.031c-0.218,0.81-0.342,1.34-0.342,1.34s3.835-4.887,5.113-6.353
			c1.278-1.466,5.54-2.932,5.54-2.932l-0.426,8.308l5.114-9.774c0,0,1.278,1.466,4.261,3.91
			c2.983,2.443,10.653,13.684,10.653,13.684s-2.557-5.864-3.409-9.285c-0.852-3.421-8.096-10.263-8.096-10.263
			s7.244,1.955,12.358,3.421c5.113,1.466,8.949,5.864,8.949,5.864S436.287,319.326,432.026,316.394z M394.579,342.737
			c0.32-8.042,1.319-15.633,2.647-22.542c0.806-0.614,5.132-3.893,6.676-4.778c1.704-0.977,6.392-0.977,6.392-0.977
			s-3.835,2.932-5.966,5.376c-0.921,1.057-1.762,3.027-2.421,4.923C397.873,330.811,395.686,337.947,394.579,342.737z"/>
	</g>
	<g>
		<path style="fill:#C6FF00;" d="M153.595,316.394c-4.261-2.932-10.653-3.421-10.653-3.421c9.375-1.466,18.323,1.466,18.323,1.466
			s-5.966-4.398-10.227-4.398c-4.261,0-11.079-0.489-11.079-0.489c2.557-2.932,11.931-6.353,11.931-6.353s-6.818,0-9.801,0.489
			c-2.983,0.489-3.835,3.91-3.835,3.91s-0.852-1.955-7.244-3.421c-6.392-1.466-8.096,3.421-8.096,3.421s3.835,0,5.966,0
			c2.131,0,5.113,2.932,5.113,2.932s-6.818,0-9.375,1.466c-2.2,1.262-5.026,6.494-5.773,7.931
			c2.108-10.866,5.031-20.01,7.444-26.461c0.056-0.042,0.116-0.09,0.17-0.129c4.204-3.003,6.006-4.805,6.006-4.805l7.207,12.011
			l-0.601-10.21c0,0,6.006,1.802,7.807,3.603c1.802,1.802,7.207,7.807,7.207,7.807s-2.402-9.009-5.405-12.011
			c-3.003-3.003-8.408-6.606-8.408-6.606s6.606,0,9.008,1.201c2.402,1.201,9.609,6.006,9.609,6.006s-4.805-8.408-8.408-10.21
			s-13.212-1.802-13.212-1.802s4.204-3.603,7.207-3.603c3.003,0,8.408,0,8.408,0s-2.402-6.006-11.411-4.204
			s-10.21,4.204-10.21,4.204s-1.201-4.204-5.405-4.805c-4.204-0.601-13.813-0.601-13.813-0.601s13.212,4.204,16.816,7.807
			c0,0-9.609,0.601-15.615,0.601s-14.414,5.405-14.414,5.405s12.612-3.603,25.824-1.802c0,0-9.008,0.6-15.014,4.204
			s-12.011,12.011-12.011,12.011s5.405-5.405,12.612-7.207s17.416-4.204,17.416-4.204s-10.209,8.408-11.411,12.612
			c-1.201,4.204-4.805,11.411-4.805,11.411s8.611-11.001,13.45-15.5c-4.003,11.046-9.064,28.837-9.688,49.387
			c-1.778-7.285-6.974-22.368-20.561-29.923c2.573,0.703,6.284,1.725,9.275,2.583c5.113,1.466,8.949,5.864,8.949,5.864
			s-4.261-6.842-8.522-9.774c-4.261-2.932-10.653-3.421-10.653-3.421c9.375-1.466,18.323,1.466,18.323,1.466
			s-5.966-4.398-10.227-4.398s-11.079-0.489-11.079-0.489c2.557-2.932,11.931-6.353,11.931-6.353s-6.818,0-9.801,0.489
			c-2.983,0.489-3.835,3.91-3.835,3.91s-0.852-1.955-7.244-3.421c-6.392-1.466-8.096,3.421-8.096,3.421s3.835,0,5.966,0
			s5.113,2.932,5.113,2.932s-6.818,0-9.375,1.466c-2.557,1.466-5.966,8.308-5.966,8.308s5.114-3.91,6.818-4.887
			c1.705-0.977,6.392-0.977,6.392-0.977s-3.835,2.932-5.966,5.376c-2.131,2.444-3.835,9.774-3.835,9.774s3.835-4.887,5.114-6.353
			c1.278-1.466,5.54-2.932,5.54-2.932l-0.426,8.308l5.114-9.774c0,0,1.278,1.466,4.261,3.909
			c2.983,2.444,10.653,13.684,10.653,13.684s-2.557-5.864-3.409-9.285c-0.702-2.818-5.732-7.948-7.487-9.672
			c17.377,8.15,21.965,28.666,22.806,33.41h-7.197l1.585,13.955h12.678l1.585-13.955h-7.452c0.441-2.841,2.039-11.327,6.226-19.031
			c-0.218,0.81-0.342,1.34-0.342,1.34s3.835-4.887,5.114-6.353c1.278-1.466,5.54-2.932,5.54-2.932l-0.426,8.308l5.114-9.774
			c0,0,1.278,1.466,4.261,3.91c2.983,2.443,10.653,13.684,10.653,13.684s-2.557-5.864-3.409-9.285
			c-0.852-3.421-8.096-10.263-8.096-10.263s7.244,1.955,12.357,3.421c5.113,1.466,8.949,5.864,8.949,5.864
			S157.857,319.326,153.595,316.394z M116.149,342.737c0.32-8.042,1.319-15.633,2.647-22.542c0.806-0.614,5.132-3.893,6.675-4.778
			c1.704-0.977,6.392-0.977,6.392-0.977s-3.835,2.932-5.966,5.376c-0.921,1.057-1.762,3.027-2.421,4.923
			C119.443,330.811,117.256,337.947,116.149,342.737z"/>
		<path style="opacity:0.4;fill:#FFFFFF;" d="M153.595,316.394c-4.261-2.932-10.653-3.421-10.653-3.421
			c9.375-1.466,18.323,1.466,18.323,1.466s-5.966-4.398-10.227-4.398c-4.261,0-11.079-0.489-11.079-0.489
			c2.557-2.932,11.931-6.353,11.931-6.353s-6.818,0-9.801,0.489c-2.983,0.489-3.835,3.91-3.835,3.91s-0.852-1.955-7.244-3.421
			c-6.392-1.466-8.096,3.421-8.096,3.421s3.835,0,5.966,0c2.131,0,5.113,2.932,5.113,2.932s-6.818,0-9.375,1.466
			c-2.2,1.262-5.026,6.494-5.773,7.931c2.108-10.866,5.031-20.01,7.444-26.461c0.056-0.042,0.116-0.09,0.17-0.129
			c4.204-3.003,6.006-4.805,6.006-4.805l7.207,12.011l-0.601-10.21c0,0,6.006,1.802,7.807,3.603
			c1.802,1.802,7.207,7.807,7.207,7.807s-2.402-9.009-5.405-12.011c-3.003-3.003-8.408-6.606-8.408-6.606s6.606,0,9.008,1.201
			c2.402,1.201,9.609,6.006,9.609,6.006s-4.805-8.408-8.408-10.21s-13.212-1.802-13.212-1.802s4.204-3.603,7.207-3.603
			c3.003,0,8.408,0,8.408,0s-2.402-6.006-11.411-4.204s-10.21,4.204-10.21,4.204s-1.201-4.204-5.405-4.805
			c-4.204-0.601-13.813-0.601-13.813-0.601s13.212,4.204,16.816,7.807c0,0-9.609,0.601-15.615,0.601s-14.414,5.405-14.414,5.405
			s12.612-3.603,25.824-1.802c0,0-9.008,0.6-15.014,4.204s-12.011,12.011-12.011,12.011s5.405-5.405,12.612-7.207
			s17.416-4.204,17.416-4.204s-10.209,8.408-11.411,12.612c-1.201,4.204-4.805,11.411-4.805,11.411s8.611-11.001,13.45-15.5
			c-4.003,11.046-9.064,28.837-9.688,49.387c-1.778-7.285-6.974-22.368-20.561-29.923c2.573,0.703,6.284,1.725,9.275,2.583
			c5.113,1.466,8.949,5.864,8.949,5.864s-4.261-6.842-8.522-9.774c-4.261-2.932-10.653-3.421-10.653-3.421
			c9.375-1.466,18.323,1.466,18.323,1.466s-5.966-4.398-10.227-4.398s-11.079-0.489-11.079-0.489
			c2.557-2.932,11.931-6.353,11.931-6.353s-6.818,0-9.801,0.489c-2.983,0.489-3.835,3.91-3.835,3.91s-0.852-1.955-7.244-3.421
			c-6.392-1.466-8.096,3.421-8.096,3.421s3.835,0,5.966,0s5.113,2.932,5.113,2.932s-6.818,0-9.375,1.466
			c-2.557,1.466-5.966,8.308-5.966,8.308s5.114-3.91,6.818-4.887c1.705-0.977,6.392-0.977,6.392-0.977s-3.835,2.932-5.966,5.376
			c-2.131,2.444-3.835,9.774-3.835,9.774s3.835-4.887,5.114-6.353c1.278-1.466,5.54-2.932,5.54-2.932l-0.426,8.308l5.114-9.774
			c0,0,1.278,1.466,4.261,3.909c2.983,2.444,10.653,13.684,10.653,13.684s-2.557-5.864-3.409-9.285
			c-0.702-2.818-5.732-7.948-7.487-9.672c17.377,8.15,21.965,28.666,22.806,33.41h-7.197l1.585,13.955h12.678l1.585-13.955h-7.452
			c0.441-2.841,2.039-11.327,6.226-19.031c-0.218,0.81-0.342,1.34-0.342,1.34s3.835-4.887,5.114-6.353
			c1.278-1.466,5.54-2.932,5.54-2.932l-0.426,8.308l5.114-9.774c0,0,1.278,1.466,4.261,3.91
			c2.983,2.443,10.653,13.684,10.653,13.684s-2.557-5.864-3.409-9.285c-0.852-3.421-8.096-10.263-8.096-10.263
			s7.244,1.955,12.357,3.421c5.113,1.466,8.949,5.864,8.949,5.864S157.857,319.326,153.595,316.394z M116.149,342.737
			c0.32-8.042,1.319-15.633,2.647-22.542c0.806-0.614,5.132-3.893,6.675-4.778c1.704-0.977,6.392-0.977,6.392-0.977
			s-3.835,2.932-5.966,5.376c-0.921,1.057-1.762,3.027-2.421,4.923C119.443,330.811,117.256,337.947,116.149,342.737z"/>
	</g>
</g>
<g id="Character_1_1_">
	<g>
		<g>
			<ellipse style="fill:#C6FF00;" cx="133.331" cy="377.966" rx="28.328" ry="11.182"/>
			<ellipse style="opacity:0.5;fill:#FFFFFF;" cx="133.331" cy="377.966" rx="28.328" ry="11.182"/>
		</g>
		<g>
			<path style="fill:#C6FF00;stroke:#263238;stroke-linecap:round;stroke-linejoin:round;stroke-miterlimit:10;" d="
				M113.059,197.204c0,0-2.161,1.261-3.242,3.242c-1.081,1.981-7.384,20.17-9.365,24.312c-1.981,4.142-2.882,5.583-0.36,7.023
				c2.521,1.441,5.763-0.72,7.924-4.682c2.161-3.962,6.123-14.948,6.843-17.469C115.58,207.109,118.102,197.564,113.059,197.204z"/>
			<polygon style="fill:#263238;stroke:#263238;stroke-linecap:round;stroke-linejoin:round;stroke-miterlimit:10;" points="
				152.049,360.652 153.537,371.317 152.545,371.813 149.569,366.108 			"/>
			<path style="fill:#FFFFFF;stroke:#263238;stroke-linecap:round;stroke-linejoin:round;stroke-miterlimit:10;" d="
				M121.294,296.165c0,0,3.224,15.378,6.449,25.299c3.224,9.921,13.641,32.987,14.385,36.956c0.744,3.968-0.248,3.968-0.248,7.193
				c0,3.224-4.464,6.697-4.712,8.433c-0.248,1.736,3.224,1.984,6.449,0.992c3.224-0.992,5.457-3.72,5.457-5.953
				c0-2.232,2.976-6.201,2.976-8.433c0-2.232-3.72-2.48-3.968-6.697c-0.248-4.216-1.736-19.346-4.217-28.275
				c-2.48-8.929-4.96-13.641-6.945-16.122c-1.984-2.48-4.465-8.185-3.968-10.169C133.447,297.405,121.294,296.165,121.294,296.165z"
				/>
			<path style="fill:#263238;stroke:#263238;stroke-linecap:round;stroke-linejoin:round;stroke-miterlimit:10;" d="
				M149.073,369.084c0-2.232,2.976-6.201,2.976-8.433c0-0.941-0.663-1.53-1.446-2.212c-1.1,2.947-3.344,8.064-6.739,10.893
				c-2.118,1.765-3.504,1.737-4.383,1.227c-1.103,1.415-2.195,2.651-2.314,3.485c-0.248,1.736,3.224,1.984,6.449,0.992
				C146.84,374.045,149.073,371.317,149.073,369.084z"/>
			<path style="fill:#FFFFFF;stroke:#263238;stroke-linecap:round;stroke-linejoin:round;stroke-miterlimit:10;" d="
				M126.999,299.638c0,0-0.992,8.185-0.992,13.393c0,5.208-3.012,39.56-3.968,46.132c-0.929,6.381-2.728,9.177-3.72,12.649
				c-0.992,3.472-1.984,7.193-3.72,8.185c-1.736,0.992,0,1.984,2.976,1.736c2.976-0.248,5.952-1.736,6.201-4.464
				c0.248-2.728,2.605-5.126,4.216-6.201c2.976-1.984-0.744-7.937,3.472-20.834c1.853-5.668,6.449-13.145,7.441-21.826
				c0.992-8.681-0.744-16.618-0.744-18.602c0-1.984,1.736-9.425,1.736-9.425L126.999,299.638z"/>
			<path style="fill:#263238;stroke:#263238;stroke-linecap:round;stroke-linejoin:round;stroke-miterlimit:10;" d="
				M128.746,371.487c3.22-1.225,0.888-3.98,0.616-6.983c-2.588,2.507-6.053,9.015-8.068,11.029c-1.427,1.427-3.18,1.293-4.413,0.922
				c-0.622,1.665-1.343,3.005-2.283,3.542c-1.736,0.992,0,1.984,2.976,1.736c2.976-0.248,5.952-1.736,6.201-4.464
				C124.022,374.541,126.935,372.176,128.746,371.487z"/>
			<path style="fill:#263238;stroke:#263238;stroke-linecap:round;stroke-linejoin:round;stroke-miterlimit:10;" d="
				M129.231,369.084l0.744,10.913h-1.984l-1.736-7.441C126.254,372.557,127.991,368.836,129.231,369.084z"/>
			<path style="fill:#263238;stroke:#263238;stroke-linecap:round;stroke-linejoin:round;stroke-miterlimit:10;" d="
				M124.765,195.403l-7.564,2.882c0,0-4.142,9.905-5.583,17.109c-1.441,7.204,0.54,14.587,1.981,19.09
				c1.441,4.502,3.242,30.435,3.962,40.34c0.72,9.905,2.161,24.132,2.161,24.132s3.242,2.521,9.725,3.782
				c6.483,1.261,15.668-0.72,15.668-0.72s5.403-15.668,6.483-24.852c1.081-9.185-7.924-24.132-10.805-30.615
				c-2.881-6.483-3.962-16.928-3.422-19.99c0.54-3.061,7.384-26.293,5.042-27.374C140.073,198.104,131.608,195.043,124.765,195.403z
				"/>
			<path style="fill:#FFFFFF;stroke:#263238;stroke-linecap:round;stroke-linejoin:round;stroke-miterlimit:10;" d="M124.765,189.1
				c0,0-0.72,5.042-1.261,7.204s-4.682,9.725-3.062,12.967c1.621,3.242,7.023,3.242,9.365-2.341
				c2.341-5.583,1.981-12.066,1.981-12.066l0.901-5.403C132.689,189.46,126.926,191.441,124.765,189.1z"/>
			<path style="fill:#263238;stroke:#263238;stroke-linecap:round;stroke-linejoin:round;stroke-miterlimit:10;" d="
				M146.736,181.176c-1.068-1.844-2.864-1.958-4.297-1.675c3.266-2.688,5.321-7.048,2.136-13.273
				c-3.962-7.744-13.327-5.943-13.327-5.943s-5.583-0.54-8.824,4.682c-3.242,5.223-1.441,12.426,1.261,14.407
				c2.491,1.827,10.334,3.798,15.072,2.259c-2.771,2.861-4.557,6.981-2.028,10.598c2.354,3.366,6.924,3.828,9.648,0.649
				C149.617,189.099,148.717,184.597,146.736,181.176z"/>
			<g>
				<path style="fill:#FFFFFF;stroke:#263238;stroke-linecap:round;stroke-linejoin:round;stroke-miterlimit:10;" d="
					M124.321,179.783c0,0-2.168-3.585-2.721-1.114c-0.553,2.471,0.485,4.335,1.205,4.79c0.72,0.455,1.425,0.295,1.425,0.295"/>
				<path style="fill:#FFFFFF;stroke:#263238;stroke-linecap:round;stroke-linejoin:round;stroke-miterlimit:10;" d="
					M124.205,173.413c0,0-3.242,13.327,1.261,18.009c4.502,4.682,9.545-2.881,13.687-8.644l1.261-3.782c0,0-0.9-1.801-3.422-5.403
					c-2.521-3.602-3.062-5.583-3.062-5.583S129.248,173.953,124.205,173.413z"/>
				<path style="fill:#FFFFFF;stroke:#263238;stroke-linecap:round;stroke-linejoin:round;stroke-miterlimit:10;" d="
					M138.059,182.85c0,0,3.747-1.873,2.895,0.511c-0.852,2.384-2.725,3.406-3.576,3.406c-0.852,0-1.363-0.511-1.363-0.511"/>
				<path style="fill:none;stroke:#263238;stroke-width:0.5;stroke-miterlimit:10;" d="M131.757,178.252c0,0,2.044-1.873,4.939-0.17
					"/>
				<path style="fill:none;stroke:#263238;stroke-width:0.5;stroke-miterlimit:10;" d="M129.202,176.379
					c0,0-1.873-2.044-3.917-1.192"/>
				
					<line style="fill:none;stroke:#263238;stroke-width:0.5;stroke-miterlimit:10;" x1="128.521" y1="184.894" x2="129.713" y2="185.405"/>
				<path style="fill:none;stroke:#263238;stroke-width:0.5;stroke-miterlimit:10;" d="M126.648,186.768
					c0,0,2.044,1.362,4.428,0.681"/>
				<path style="fill:none;stroke:#263238;stroke-width:0.5;stroke-miterlimit:10;" d="M129.321,180.233
					c-0.57,1.393-2.267,2.016-3.791,1.393c-1.523-0.624-2.296-2.258-1.726-3.651c0.57-1.393,2.267-2.016,3.791-1.393
					C129.118,177.205,129.891,178.84,129.321,180.233z"/>
				<path style="fill:none;stroke:#263238;stroke-width:0.5;stroke-miterlimit:10;" d="M136.304,182.106
					c-0.57,1.393-2.267,2.016-3.791,1.393c-1.523-0.624-2.296-2.258-1.726-3.651c0.57-1.393,2.267-2.016,3.791-1.393
					C136.101,179.079,136.874,180.713,136.304,182.106z"/>
				
					<line style="fill:none;stroke:#263238;stroke-width:0.5;stroke-miterlimit:10;" x1="129.373" y1="179.444" x2="130.787" y2="179.848"/>
				
					<line style="fill:none;stroke:#263238;stroke-width:0.5;stroke-miterlimit:10;" x1="136.355" y1="181.488" x2="139.251" y2="181.829"/>
			</g>
			<path style="fill:#C6FF00;stroke:#263238;stroke-linecap:round;stroke-linejoin:round;stroke-miterlimit:10;" d="
				M123.504,196.303c0,0-4.682,9.365-6.483,18.369c-1.801,9.005-1.621,25.753-1.261,32.236c0.36,6.483,0,25.033,0,25.033
				l-8.284-3.602c0,0,0.36-11.706,1.801-19.27c1.441-7.564,1.621-17.108,1.441-21.251c-0.18-4.142-1.981-10.085-0.9-15.668
				c1.081-5.583,2.701-14.407,3.242-14.947C113.599,196.664,123.504,196.303,123.504,196.303z"/>
			<path style="fill:#C6FF00;stroke:#263238;stroke-linecap:round;stroke-linejoin:round;stroke-miterlimit:10;" d="
				M131.788,195.943c0,0-3.242,12.786-5.223,24.492c-1.981,11.706,2.882,50.965,2.882,50.965s2.521,0,10.445-1.261
				c7.924-1.261,11.706-3.602,11.706-3.602s-4.682-11.886-7.744-18.009c-3.062-6.123-5.403-10.986-5.403-10.986
				s-1.081-6.663,0.9-14.047c1.981-7.384,7.384-22.511,5.223-24.312C142.414,197.384,131.788,195.943,131.788,195.943z"/>
			<path style="fill:none;stroke:#263238;stroke-linecap:round;stroke-linejoin:round;stroke-miterlimit:10;" d="M139.352,205.128
				c0,0-1.981,9.005-2.701,13.147c-0.72,4.142-2.161,10.265-2.161,10.265s-12.606,0.54-15.668,0.36
				c-3.062-0.18-6.303-0.18-6.303-0.18l1.08,5.763c0,0,10.085,3.602,16.388,4.682c6.303,1.081,9.725,2.701,10.805,0.72
				c1.081-1.981,4.682-22.331,5.943-30.075c1.261-7.744,2.161-9.545-3.242-10.985"/>
			<path style="fill:#FFFFFF;stroke:#263238;stroke-linecap:round;stroke-linejoin:round;stroke-miterlimit:10;" d="
				M126.926,223.857c0,0,6.843-0.9,7.384-1.081c0.54-0.18,7.564,2.882,7.564,2.882s-0.36,0.9-0.9,1.08
				c-0.54,0.18-4.862-1.981-4.862-1.981l-0.72,0.18l5.403,3.602c0,0,0.72,0.9,0,1.261c-0.72,0.36-6.483-3.422-6.483-3.422
				l5.043,4.862c0,0-1.081,0.72-1.981,0c-0.9-0.72-2.881-2.701-2.881-2.701s2.161,2.521,1.081,2.701
				c-1.081,0.18-3.062-2.881-3.062-2.881l-3.242-0.54l-3.422-0.36L126.926,223.857z"/>
			<path style="fill:#FFFFFF;stroke:#263238;stroke-linecap:round;stroke-linejoin:round;stroke-miterlimit:10;" d="
				M116.494,223.992c0,0-4.54-5.2-4.826-5.692c-0.286-0.492-7.58-2.838-7.58-2.838s-0.325,0.914-0.039,1.406
				c0.286,0.492,4.958,1.728,4.958,1.728l0.422,0.611l-6.435-0.869c0,0-1.136,0.2-0.833,0.946c0.302,0.746,7.127,1.718,7.127,1.718
				l-6.998,0.315c0,0,0.335,1.255,1.486,1.31c1.152,0.055,3.948-0.122,3.948-0.122s-3.288,0.463-2.597,1.313
				c0.692,0.849,4.202-0.138,4.202-0.138l2.789,1.738l2.806,1.992L116.494,223.992z"/>
			<path style="fill:#C6FF00;stroke:#263238;stroke-linecap:round;stroke-linejoin:round;stroke-miterlimit:10;" d="
				M103.694,223.137c0,0,17.649,0.54,19.99,0.54c2.341,0,3.242,0.18,3.242,0.18l-1.261,8.824c0,0-3.782,0.54-13.327,0.54
				s-13.867,0.54-13.507-3.061C99.192,226.559,103.694,223.137,103.694,223.137z"/>
		</g>
	</g>
</g>
<g id="Character_2_1_">
	<g>
		<g>
			<ellipse style="fill:#C6FF00;" cx="184.022" cy="385.42" rx="28.328" ry="11.182"/>
			<ellipse style="opacity:0.5;fill:#FFFFFF;" cx="184.022" cy="385.42" rx="28.328" ry="11.182"/>
		</g>
		<g>
			<g>
				<path style="fill:#263238;stroke:#263238;stroke-linecap:round;stroke-linejoin:round;stroke-miterlimit:10;" d="
					M177.449,157.007c0,0-5.884,0.376-9.661,7.507s-1.957,19.995-0.636,23.947c1.321,3.952,7.568,22.947,11.138,36.201
					c3.57,13.254,10.01,25.047,21.513,24.625c11.503-0.422,27.035-5.771,21.959-25.167c-5.076-19.396-15.859-27.384-17.958-32.333
					c-2.099-4.949-2.606-10.067-3.555-20.839c-0.949-10.771-8.318-16.715-15.694-18.868
					C177.178,149.929,177.449,157.007,177.449,157.007z"/>
				<path style="fill:none;stroke:#FFFFFF;stroke-width:0.5;stroke-linecap:round;stroke-linejoin:round;stroke-miterlimit:10;" d="
					M199.113,188.112c1.878,1.74,2.614,1.783,2.614,1.783"/>
				<path style="fill:none;stroke:#FFFFFF;stroke-width:0.5;stroke-linecap:round;stroke-linejoin:round;stroke-miterlimit:10;" d="
					M182.482,158.347c0,0,0.158,7.73,8.36,19.56c2.91,4.197,5.125,6.924,6.772,8.698"/>
				<path style="fill:none;stroke:#FFFFFF;stroke-width:0.5;stroke-linecap:round;stroke-linejoin:round;stroke-miterlimit:10;" d="
					M184.375,163.553c0,0,7.414,17.352,15.932,22.242"/>
				<path style="fill:none;stroke:#FFFFFF;stroke-width:0.5;stroke-linecap:round;stroke-linejoin:round;stroke-miterlimit:10;" d="
					M206.459,207.563c0,0,12.146,14.039,12.304,23.977c0.158,9.938-6.152,14.197-6.783,14.197"/>
				<path style="fill:none;stroke:#FFFFFF;stroke-width:0.5;stroke-linecap:round;stroke-linejoin:round;stroke-miterlimit:10;" d="
					M212.56,209.64c3.367,6.518,7.105,15.498,6.203,21.9"/>
				<path style="fill:none;stroke:#FFFFFF;stroke-width:0.5;stroke-linecap:round;stroke-linejoin:round;stroke-miterlimit:10;" d="
					M207.721,201.253c0,0,1.201,1.816,2.815,4.656"/>
				<path style="fill:none;stroke:#FFFFFF;stroke-width:0.5;stroke-linecap:round;stroke-linejoin:round;stroke-miterlimit:10;" d="
					M171.282,172.386c0,0-4.633,9.434-4.13,16.075"/>
				<path style="fill:none;stroke:#FFFFFF;stroke-width:0.5;stroke-linecap:round;stroke-linejoin:round;stroke-miterlimit:10;" d="
					M169.074,177.907c0,0-0.158,5.837,1.577,8.991"/>
			</g>
			<path style="fill:#FFFFFF;stroke:#263238;stroke-linecap:round;stroke-linejoin:round;stroke-miterlimit:10;" d="
				M210.859,267.171c0,0-2.236,5.032-2.236,6.43c0,1.398,0.28,7.548,1.118,6.43c0.839-1.118,0-5.311,1.118-5.591
				c1.118-0.279,1.957,0.559,0.839,3.914c-1.118,3.355-1.957,6.709,0.28,5.032c2.236-1.677,2.236-3.914,3.075-8.946
				c0.839-5.032-0.28-8.946-0.28-8.946L210.859,267.171z"/>
			<path style="fill:#C6FF00;stroke:#263238;stroke-linecap:round;stroke-linejoin:round;stroke-miterlimit:10;" d="M203.59,193.37
				l4.473,41.094l8.107,31.31l-6.989,3.075c0,0-9.225-25.718-11.461-30.471c-2.236-4.752-3.075-8.666-3.075-10.623
				C194.645,225.798,203.59,193.37,203.59,193.37z"/>
			<path style="fill:#FFFFFF;stroke:#263238;stroke-linecap:round;stroke-linejoin:round;stroke-miterlimit:10;" d="
				M163.056,307.985c0,0,1.118,5.591,1.398,8.386c0.28,2.796-0.559,12.859,0.839,22.364c1.398,9.505,8.666,37.46,8.666,37.46
				s-7.268,6.43-7.268,9.505s2.236,2.516,5.87,0.28c3.634-2.236,7.268-7.268,7.548-10.623c0.28-3.355-2.796-22.923-1.677-31.589
				c1.118-8.666-0.559-23.762-0.559-29.912c0-6.15,0-6.15,0-6.15L163.056,307.985z"/>
			<path style="fill:#263238;stroke:#263238;stroke-linecap:round;stroke-linejoin:round;stroke-miterlimit:10;" d="
				M171.163,382.625c-0.98-0.49-0.433-2.406,0.191-3.919c-2.086,2.145-4.663,5.161-4.663,6.994c0,3.075,2.236,2.516,5.87,0.28
				c2.794-1.719,5.581-5.089,6.851-8.08C176.285,381.317,172.436,383.261,171.163,382.625z"/>
			<path style="fill:#FFFFFF;stroke:#263238;stroke-linecap:round;stroke-linejoin:round;stroke-miterlimit:10;" d="
				M176.754,309.942c0,0-0.28,10.064,0.839,14.257c1.118,4.193,8.107,25.719,9.225,32.148s2.236,15.934,2.236,20.407
				c0,4.473,4.193,14.537,6.989,15.096c2.796,0.559,4.473,0.559,3.634-3.914c-0.839-4.473-6.15-11.461-6.15-11.461
				s2.796-28.514,1.677-37.46c-1.118-8.946-4.193-17.891-4.193-18.73c0-0.839,1.398-11.182,1.398-11.182L176.754,309.942z"/>
			<path style="fill:#263238;stroke:#263238;stroke-linecap:round;stroke-linejoin:round;stroke-miterlimit:10;" d="
				M197.611,382.802c-0.341,1.409-0.967,2.618-2.127,2.618c-2.796,0-5.591-4.752-5.591-4.752l-0.142,0.244
				c1.309,4.745,4.194,10.519,6.292,10.938c2.796,0.559,4.473,0.559,3.634-3.914C199.388,386.393,198.563,384.554,197.611,382.802z"
				/>
			<path style="fill:#263238;stroke:#263238;stroke-linecap:round;stroke-linejoin:round;stroke-miterlimit:10;" d="
				M175.356,188.338c0,0-19.848,4.193-20.128,5.311c-0.28,1.118,6.43,36.062,6.43,37.46c0,1.398-7.827,19.568-8.387,30.75
				c-0.559,11.182,3.634,48.362,3.634,48.362s8.386,3.634,16.493,3.634c8.107,0,21.805-1.957,21.805-1.957
				s6.709-21.525,7.268-39.696c0.559-18.171-7.548-40.814-7.548-40.814s8.666-36.621,8.666-38.019
				C203.59,191.973,185.14,187.22,175.356,188.338z"/>
			<g>
				<path style="fill:#C6FF00;stroke:#263238;stroke-linecap:round;stroke-linejoin:round;stroke-miterlimit:10;" d="
					M194.924,231.389c0,0,8.666-36.621,8.666-38.019c0-1.398-18.45-6.15-28.234-5.032c0,0-19.848,4.193-20.128,5.311
					c-0.28,1.118,6.43,36.062,6.43,37.46c0,0.996-3.972,10.506-6.459,19.936c2.555,1.357,6.57,3.235,11.491,4.664
					c8.666,2.516,12.021-1.118,12.021-1.118s-0.839,1.957,4.193,2.516c4.458,0.495,11.984,0.325,17.92-3.218
					C198.593,241.646,194.924,231.389,194.924,231.389z"/>
				<path style="fill:none;stroke:#263238;stroke-linecap:round;stroke-linejoin:round;stroke-miterlimit:10;" d="M179.173,245.92
					c-0.406,2.735-0.701,4.558-0.701,4.558"/>
				<path style="fill:none;stroke:#263238;stroke-linecap:round;stroke-linejoin:round;stroke-miterlimit:10;" d="M180.708,208.953
					c0,0,1.232,11.357,0.538,20.026c-0.269,3.364-0.747,7.354-1.231,10.978"/>
			</g>
			<path style="fill:#FFFFFF;stroke:#263238;stroke-linecap:round;stroke-linejoin:round;stroke-miterlimit:10;" d="
				M177.712,186.185c0,0-5.393,1.798-7.789,3.895c-2.397,2.097-6.291,5.692-6.291,5.692l9.886,0.599l7.19,12.583l5.093-12.283
				c0,0,3.295,0,5.992,0c2.696,0,4.793,1.198,4.793,1.198s-6.891-9.287-10.785-11.085
				C181.906,184.986,177.712,186.185,177.712,186.185z"/>
			<path style="fill:#FFFFFF;stroke:#263238;stroke-linecap:round;stroke-linejoin:round;stroke-miterlimit:10;" d="M174.416,182.59
				c0,0,0.899,12.583,3.295,15.878c2.397,3.295,5.692-5.393,5.692-9.287c0-3.895,0.3-9.287,0.3-9.287L174.416,182.59z"/>
			<path style="fill:#C6FF00;stroke:#263238;stroke-linecap:round;stroke-linejoin:round;stroke-miterlimit:10;" d="M155.229,193.65
				c0,0-12.021,39.976-12.021,42.771c0,2.795,3.355,5.87,6.709,3.914c3.355-1.957,10.064-20.687,10.064-20.687L155.229,193.65z"/>
			<polygon style="fill:#FFFFFF;stroke:#263238;stroke-linecap:round;stroke-linejoin:round;stroke-miterlimit:10;" points="
				139.574,219.089 152.992,245.087 171.442,247.044 160.54,215.455 			"/>
			<path style="fill:#FFFFFF;stroke:#263238;stroke-linecap:round;stroke-linejoin:round;stroke-miterlimit:10;" d="
				M155.788,235.582l5.032-9.225l5.871-1.957l0.839,1.118l-3.355,1.957c0,0,4.193,0.28,5.311,0.28s0.839,1.677,0.839,1.677
				l-0.559,1.118c0,0,0.559,3.634,0.559,4.752c0,1.118-12.3,4.752-12.3,4.752L155.788,235.582z"/>
			<path style="fill:#C6FF00;stroke:#263238;stroke-linecap:round;stroke-linejoin:round;stroke-miterlimit:10;" d="
				M156.295,232.822l3.782,10.233c0,0-7.119,3.337-12.235,3.337c-5.117,0-7.786-6.674-5.784-10.011
				C144.06,233.044,156.295,232.822,156.295,232.822z"/>
			<g>
				<path style="fill:#FFFFFF;stroke:#263238;stroke-linecap:round;stroke-linejoin:round;stroke-miterlimit:10;" d="
					M179.477,160.099l-9.33,11.263c0,0-0.314,8.604,3.939,15.226c5.855,9.117,13.476-8.969,13.476-8.969L179.477,160.099z"/>
				<g>
					<path style="fill:#263238;" d="M175.675,174.104c0.1,0.808-0.144,1.504-0.545,1.554c-0.402,0.05-0.809-0.564-0.909-1.372
						s0.144-1.504,0.545-1.555C175.168,172.682,175.575,173.296,175.675,174.104z"/>
					<path style="fill:#263238;" d="M181.007,174.531c-0.006,0.814-0.338,1.472-0.743,1.469c-0.405-0.003-0.728-0.665-0.723-1.479
						c0.006-0.814,0.338-1.472,0.743-1.469C180.689,173.054,181.013,173.716,181.007,174.531z"/>
					
						<path style="fill:none;stroke:#263238;stroke-width:0.5;stroke-linecap:round;stroke-linejoin:round;stroke-miterlimit:10;" d="
						M175.35,181.663c0,0,2.382,0.831,4.549-0.119"/>
					
						<path style="fill:none;stroke:#263238;stroke-width:0.5;stroke-linecap:round;stroke-linejoin:round;stroke-miterlimit:10;" d="
						M178.621,171.037c0,0,1.837-1.479,3.675,0.185"/>
					
						<path style="fill:none;stroke:#263238;stroke-width:0.5;stroke-linecap:round;stroke-linejoin:round;stroke-miterlimit:10;" d="
						M175.865,171.407c0,0-1.286-1.848-3.123-0.185"/>
					
						<path style="fill:none;stroke:#263238;stroke-width:0.5;stroke-linecap:round;stroke-linejoin:round;stroke-miterlimit:10;" d="
						M176.784,173.255c0,0,0.367,0.924-0.184,2.588c-0.551,1.664-1.286,2.588-0.735,2.957c0.551,0.37,1.654,0.37,1.654,0.37"/>
				</g>
			</g>
		</g>
	</g>
</g>
<g id="Character_5">
	<g>
		<g>
			<ellipse style="fill:#C6FF00;" cx="356.224" cy="376.475" rx="38.764" ry="11.182"/>
			<ellipse style="opacity:0.5;fill:#FFFFFF;" cx="356.224" cy="376.475" rx="38.764" ry="11.182"/>
		</g>
		<g>
			<path style="fill:#FFFFFF;stroke:#263238;stroke-linecap:round;stroke-linejoin:round;stroke-miterlimit:10;" d="M351.58,175.669
				c0,0-1.925-2.471-2.84-1.407c-0.915,1.065,1.975,7.621,3.248,7.054C353.262,180.749,351.58,175.669,351.58,175.669z"/>
			<path style="fill:#FFFFFF;stroke:#263238;stroke-linecap:round;stroke-linejoin:round;stroke-miterlimit:10;" d="
				M366.929,176.012c0,0,1.82-2.402,2.782-1.302c0.961,1.1-1.651,7.553-2.949,6.938
				C365.463,181.033,366.929,176.012,366.929,176.012z"/>
			<path style="fill:#FFFFFF;stroke:#263238;stroke-linecap:round;stroke-linejoin:round;stroke-miterlimit:10;" d="M353.822,191.71
				c0,0-3.273,1.415-3.642,3.92s0.959,56.024,0.959,56.024l22.432,1.206l-1.039-57.902c0,0-3.936-2.965-9.048-3.737
				C358.371,190.449,353.822,191.71,353.822,191.71z"/>
			<path style="fill:#263238;stroke:#263238;stroke-linecap:round;stroke-linejoin:round;stroke-miterlimit:10;" d="
				M342.486,249.516l34.354,1.236c0,0,3.109,25.486,4.593,42.16c1.484,16.674,3.695,32.074,3.466,43.662
				c-0.229,11.589,0.055,28.941,0.11,29.559c0.055,0.618,3.64,3.132,5.915,5.09c2.275,1.958,7.061,3.794,5.479,4.904
				c-1.582,1.11-3.656,1.417-7.285,0.765c-3.63-0.652-7.842-3.136-8.943-3.703c-1.101-0.567-1.101-0.567-1.101-0.567l-0.063,1.657
				l-4.139-1.661c0,0-0.701-0.793-1.258-4.694c-0.557-3.901-1.429-16.057-1.887-21.203c-0.458-5.146-5.221-42.13-7.036-50.726
				c-1.815-8.596-5.454-23.512-5.454-23.512s-13.967,48.432-15.737,54.513c-1.77,6.081-9.143,38.896-9.261,39.935
				c-0.118,1.039-2.008,3.405-1.953,4.022c0.055,0.618-1.854,2.777-3.362,4.711c-1.509,1.934-7.865,3.688-9.539,3.768
				c-1.673,0.081-2.403-3.399,0.933-6.041c3.336-2.642,6.409-5.891,6.409-5.891s1.585-24.679,1.516-32.532
				c-0.069-7.853,4.563-33.713,5.425-35.822c0.863-2.109,5.637-31.077,5.637-31.077L342.486,249.516z"/>
			<path style="fill:#C6FF00;stroke:#263238;stroke-linecap:round;stroke-linejoin:round;stroke-miterlimit:10;" d="
				M353.606,197.814c0,0,3.645,22.215,4.063,24.562c0.418,2.347-5.22,48.838-5.22,48.838s-3.617,0.79-8.611-0.921
				c-4.994-1.711-9.518-3.58-9.518-3.58l9.539-29.441l-8.615-39.418c0,0,2.162-1.413,7.174-2.988
				c5.012-1.575,11.278-2.372,11.278-2.372L353.606,197.814z"/>
			<polygon style="fill:#263238;stroke:#263238;stroke-linecap:round;stroke-linejoin:round;stroke-miterlimit:10;" points="
				357.251,202.235 359.705,205.741 356.474,247.874 361.537,253.645 364.022,248.065 361.616,206.356 364.145,201.808 
				360.565,196.446 			"/>
			<path style="fill:#C6FF00;stroke:#263238;stroke-linecap:round;stroke-linejoin:round;stroke-miterlimit:10;" d="M366.685,191.84
				c0,0-2.414,17.846-2.354,19.254c0.06,1.408-0.551,13.147-0.504,14.242c0.047,1.095,4.97,45.843,4.97,45.843
				s4.008,0.931,9.53,0.137c5.522-0.794,11.4-4.405,11.4-4.405l-11.094-29.398l4.243-41.275
				C382.875,196.238,369.886,192.46,366.685,191.84z"/>
			<path style="fill:#FFFFFF;stroke:#263238;stroke-linecap:round;stroke-linejoin:round;stroke-miterlimit:10;" d="
				M360.359,199.835l-4.575,4.391c0,0-2.973-10.166-3.04-11.731c-0.067-1.565,0.64-3.601,2.346-4.543
				c1.706-0.943,8.564-0.174,10.185,0.605c1.621,0.779,2.892,4.532,2.892,4.532l-3.62,11.901L360.359,199.835z"/>
			<path style="fill:#FFFFFF;stroke:#263238;stroke-linecap:round;stroke-linejoin:round;stroke-miterlimit:10;" d="M354.626,184.51
				c0,0,0.557,5.633,1.947,8.447s3.323,7.192,3.785,6.878c0.463-0.314,4.177-6.269,4.283-7.521c0.105-1.252,0.368-6.261,0.368-6.261
				L354.626,184.51z"/>
			<g>
				<path style="fill:#FFFFFF;stroke:#263238;stroke-linecap:round;stroke-linejoin:round;stroke-miterlimit:10;" d="
					M354.927,165.753c0,0-3.106,1.843-3.543,3.591c-0.436,1.749-0.148,10.664,1.729,14.541c1.877,3.877,5.348,7.07,7.062,7.096
					c1.714,0.026,5.656-2.647,6.21-6.588c0.554-3.941,1.067-8.118,0.865-10.755c-0.202-2.636,1.951-1.455-1.32-4.915
					C362.658,165.265,356.838,164.061,354.927,165.753z"/>
				<g>
					<path style="fill:#263238;" d="M357.306,178.064c0,0.621-0.252,1.124-0.562,1.124c-0.31,0-0.562-0.503-0.562-1.124
						s0.252-1.124,0.562-1.124C357.054,176.94,357.306,177.443,357.306,178.064z"/>
					<path style="fill:#263238;" d="M362.644,178.064c0,0.621-0.252,1.124-0.562,1.124c-0.31,0-0.562-0.503-0.562-1.124
						s0.252-1.124,0.562-1.124C362.393,176.94,362.644,177.443,362.644,178.064z"/>
					
						<path style="fill:none;stroke:#263238;stroke-width:0.5;stroke-linecap:round;stroke-linejoin:round;stroke-miterlimit:10;" d="
						M354.777,176.237c0,0,0.843-1.405,2.529-0.422"/>
					
						<path style="fill:none;stroke:#263238;stroke-width:0.5;stroke-linecap:round;stroke-linejoin:round;stroke-miterlimit:10;" d="
						M360.818,175.956c0,0,1.124-1.826,3.091,0.281"/>
					
						<polyline style="fill:none;stroke:#263238;stroke-width:0.5;stroke-linecap:round;stroke-linejoin:round;stroke-miterlimit:10;" points="
						360.396,177.923 360.677,182.84 358.43,182.559 					"/>
					
						<path style="fill:none;stroke:#263238;stroke-width:0.5;stroke-linecap:round;stroke-linejoin:round;stroke-miterlimit:10;" d="
						M357.727,184.385c0,0,2.107,0.983,5.057-0.141"/>
				</g>
			</g>
			<path style="fill:#263238;stroke:#263238;stroke-linecap:round;stroke-linejoin:round;stroke-miterlimit:10;" d="
				M352.708,165.578c0,0-3.062-1.089-3.564,2.042c-0.501,3.131,2.119,8.76,2.119,8.76s0.416-1.409,1.136-3.132
				c0.72-1.723,2.267-2.665,1.685-5.168C353.502,165.576,352.708,165.578,352.708,165.578z"/>
			<path style="fill:#263238;stroke:#263238;stroke-linecap:round;stroke-linejoin:round;stroke-miterlimit:10;" d="
				M353.264,167.454c0,0,1.535,2.501,5.847,3.118c4.312,0.617,6.507-0.013,7.017,0.768c0.509,0.781,0.537,5.163,0.537,5.163
				s1.449,0.467,1.534-1.255c0.085-1.722,1.295-3.133,1.751-3.603c0.456-0.47,2.777-1.884,0.229-5.791
				c-2.547-3.907-5.775-5.153-11.33-5.141C353.295,160.725,349.923,163.549,353.264,167.454z"/>
			<path style="fill:#C6FF00;stroke:#263238;stroke-linecap:round;stroke-linejoin:round;stroke-miterlimit:10;" d="
				M382.875,196.238c0,0,7.972,27.611,8.514,30.501c0.542,2.89-2.738,4.549-6.142,3.317c-3.404-1.232-5.627-18.987-5.627-18.987
				L382.875,196.238z"/>
			<path style="fill:#C6FF00;stroke:#263238;stroke-linecap:round;stroke-linejoin:round;stroke-miterlimit:10;" d="
				M387.992,220.757c0,0-12.872-2.245-16.223-2.238c-3.351,0.007-19.416,1.486-19.416,1.486l-0.6,5.577
				c0,0,24.532,5.525,29.375,6.135c4.843,0.61,9.652,0.393,10.148-2.705c0.496-3.099-0.612-4.542-0.612-4.542"/>
			<path style="fill:#C6FF00;stroke:#263238;stroke-linecap:round;stroke-linejoin:round;stroke-miterlimit:10;" d="
				M335.244,197.853c0,0,0.326,15.954,0.695,24.627c0.37,8.672,2.78,11.801,7.178,11.792c4.398-0.009,0.828-24.807,0.828-24.807"/>
			<path style="fill:#FFFFFF;stroke:#263238;stroke-linecap:round;stroke-linejoin:round;stroke-miterlimit:10;" d="
				M352.353,220.005c0,0-3.212-1.645-5.097-1.641c-1.885,0.004-7.39,3.526-7.364,4.145c0.026,0.619,2.994,1.439,6.746,1.019
				c3.752-0.421,6.073-0.012,6.073-0.012L352.353,220.005z"/>
			<path style="fill:#FFFFFF;stroke:#263238;stroke-linecap:round;stroke-linejoin:round;stroke-miterlimit:10;" d="M373.958,215.83
				c0,0,2.696-0.625,4.791-0.629c2.094-0.004,4.574,4.121,4.574,4.121l-8.141,0.636L373.958,215.83z"/>
			<path style="fill:#C6FF00;stroke:#263238;stroke-linecap:round;stroke-linejoin:round;stroke-miterlimit:10;" d="
				M340.592,224.159l31.656-9.151c0,0,0.602-0.621,1.711,0.822c1.109,1.443,1.223,4.128,1.223,4.128s-18.689,8.712-24.447,11.201
				c-5.759,2.49-7.686,6.417-10.776,2.707c-3.09-3.711-1.128-6.812-1.128-6.812"/>
		</g>
	</g>
</g>
<g id="Character_4">
	<g>
		<g>
			<ellipse style="fill:#C6FF00;" cx="315.969" cy="386.166" rx="28.328" ry="11.182"/>
			<ellipse style="opacity:0.5;fill:#FFFFFF;" cx="315.969" cy="386.166" rx="28.328" ry="11.182"/>
		</g>
		<g>
			<g>
				<path style="fill:#263238;stroke:#263238;stroke-linecap:round;stroke-linejoin:round;stroke-miterlimit:10;" d="
					M327.048,169.678c0,0,3.61-3.61,4.061-8.423c0.451-4.813-5.114-7.37-8.874-7.219c-3.76,0.15-6.467,2.407-6.467,2.407
					s-8.723-0.451-15.341,4.512c-6.618,4.963-5.715,19.853-5.264,25.418c0.451,5.565-0.301,12.784-0.301,12.784
					s6.768,2.858,14.439,3.91c7.671,1.053,18.048-0.752,19.101-1.053c1.053-0.301-3.008-1.203-3.61-7.069
					c-0.602-5.866,0.902-12.634,1.504-15.792c0.602-3.159-0.451-9.325-0.451-9.325L327.048,169.678z"/>
				<path style="fill:none;stroke:#FFFFFF;stroke-width:0.5;stroke-linecap:round;stroke-linejoin:round;stroke-miterlimit:10;" d="
					M326.253,156.452c0,0-1.533,5.28-2.384,7.323"/>
				<path style="fill:none;stroke:#FFFFFF;stroke-width:0.5;stroke-linecap:round;stroke-linejoin:round;stroke-miterlimit:10;" d="
					M319.951,158.666c0,0,1.363,4.428-3.406,12.092s-14.477,15.839-14.817,21.459"/>
				<path style="fill:none;stroke:#FFFFFF;stroke-width:0.5;stroke-linecap:round;stroke-linejoin:round;stroke-miterlimit:10;" d="
					M303.942,179.444c0,0-5.961,10.048-3.406,16.18"/>
			</g>
			<path style="fill:#C6FF00;stroke:#263238;stroke-linecap:round;stroke-linejoin:round;stroke-miterlimit:10;" d="
				M318.776,196.751c0,0,8.122,4.211,9.325,4.663c1.203,0.451,2.256,1.504,3.158,4.211c0.902,2.707,5.866,22.26,6.317,24.365
				c0.451,2.106-3.76,4.211-6.467,4.362c-2.707,0.15-6.167-2.256-6.167-4.061C324.943,228.486,318.776,196.751,318.776,196.751z"/>
			<path style="fill:#FFFFFF;stroke:#263238;stroke-linecap:round;stroke-linejoin:round;stroke-miterlimit:10;" d="
				M322.085,228.637c0,0,3.61-4.663,5.415-6.167c1.805-1.504,5.565-2.707,7.821-1.504c2.256,1.203,1.805,3.309,0.902,3.61
				c-0.902,0.301-3.158,0.301-4.663,1.203c-1.504,0.902-3.911,2.557-5.565,3.008C324.341,229.238,322.085,228.637,322.085,228.637z"
				/>
			<polygon style="fill:#263238;stroke:#263238;stroke-linecap:round;stroke-linejoin:round;stroke-miterlimit:10;" points="
				297.646,376.625 297.511,384.726 298.456,384.726 299.671,379.191 			"/>
			<path style="fill:#FFFFFF;stroke:#263238;stroke-linecap:round;stroke-linejoin:round;stroke-miterlimit:10;" d="
				M328.642,307.892c0,0-1.491,20.128-5.405,33.173c-3.914,13.046-11.741,33.36-11.927,36.528c0,0,4.845,4.659,6.523,5.591
				c1.677,0.932,2.982,0.745,1.864,1.677c-1.118,0.932-4.286,1.491-6.709,0.559c-2.423-0.932-4.286-3.727-5.591-4.473
				c-1.304-0.746-2.982-1.677-3.168-3.355c-0.186-1.677,2.423-4.1,2.423-4.1s6.15-13.791,5.405-22.55
				c-0.745-8.759,1.118-18.637,2.982-22.178c1.864-3.541,2.982-7.268,2.982-7.268l-5.218-12.486
				C312.801,309.01,323.424,305.842,328.642,307.892z"/>
			<path style="fill:#263238;stroke:#263238;stroke-linecap:round;stroke-linejoin:round;stroke-miterlimit:10;" d="
				M317.833,383.184c-0.216-0.12-0.484-0.302-0.788-0.527c-0.966,0.466-3.451,1.399-5.363-0.218
				c-2.146-1.816-4.437-5.087-6.616-7.107c-0.504,0.73-0.916,1.56-0.839,2.262c0.186,1.677,1.864,2.609,3.168,3.355
				c1.305,0.745,3.168,3.541,5.591,4.473c2.423,0.932,5.591,0.373,6.709-0.559C320.815,383.929,319.51,384.116,317.833,383.184z"/>
			<path style="fill:#FFFFFF;stroke:#263238;stroke-linecap:round;stroke-linejoin:round;stroke-miterlimit:10;" d="
				M326.033,306.028c0,0,3.634,10.902,3.634,13.698s-17.612,42.491-19.289,46.405c-1.677,3.914-4.193,11.182-4.193,11.182
				s0.559,3.075,3.634,5.311c3.075,2.236,4.193,4.193,2.796,4.752c-1.398,0.559-7.827,1.118-9.505-1.118
				c-1.677-2.236-3.355-6.989-5.032-8.387c-1.677-1.398,0-4.473,1.118-5.311c1.118-0.839,3.075-3.355,3.075-3.355
				s4.193-8.945,4.193-16.773s1.398-15.375,5.591-21.805s5.591-10.902,5.591-10.902l-4.473-9.225
				C313.174,310.501,320.442,305.469,326.033,306.028z"/>
			<path style="fill:#263238;stroke:#263238;stroke-linecap:round;stroke-linejoin:round;stroke-miterlimit:10;" d="
				M309.995,382.762c-1.627,0.784-2.773,1.374-6.326-2.653c-2.445-2.771-4.219-5.155-5.278-6.667
				c-0.903,1.278-1.607,3.352-0.313,4.431c1.677,1.398,3.354,6.15,5.032,8.387c1.677,2.236,8.107,1.677,9.505,1.118
				C313.983,386.83,312.926,384.94,309.995,382.762z"/>
			<path style="fill:#C6FF00;stroke:#263238;stroke-linecap:round;stroke-linejoin:round;stroke-miterlimit:10;" d="
				M310.955,194.946c0,0-18.5,2.858-19.101,3.911c-0.602,1.053,5.715,35.796,6.317,38.503c0.602,2.707-3.61,9.776-6.016,23.463
				c-2.406,13.687,0.465,16.979,4.526,26.755c4.061,9.776,15.478,24.382,15.478,24.382l17.748-3.158c0,0,4.061-31.735,2.106-47.077
				c-1.955-15.341-7.821-26.17-7.821-26.17l0.451-8.122c0,0,5.039-3.079,5.189-6.989c0.15-3.91-2.633-9.555-5.189-14.669
				C322.085,200.661,315.016,194.946,310.955,194.946z"/>
			<path style="fill:#FFFFFF;stroke:#263238;stroke-linecap:round;stroke-linejoin:round;stroke-miterlimit:10;" d="M312.309,192.69
				c0,0-3.91,0.451-4.512,1.203s-2.406,11.13-2.406,11.13s7.069-2.106,7.821-2.106c0.752,0,6.919,7.219,6.919,7.219v-6.317
				l5.415,4.061c0,0-1.504-4.512-3.911-8.723C319.227,194.946,315.618,192.84,312.309,192.69z"/>
			<path style="fill:#FFFFFF;stroke:#263238;stroke-linecap:round;stroke-linejoin:round;stroke-miterlimit:10;" d="M312.61,183.666
				c0,0-1.203,11.581-0.451,12.935c0.752,1.354,5.866,9.175,5.866,9.175s-0.602-6.016-0.602-9.776s1.654-9.626,1.654-9.626
				L312.61,183.666z"/>
			<g>
				<path style="fill:#FFFFFF;stroke:#263238;stroke-linecap:round;stroke-linejoin:round;stroke-miterlimit:10;" d="
					M323.138,164.564c0,0-2.858,7.069-5.715,9.626c-2.858,2.557-5.264,3.76-5.264,3.76s-0.301,4.963,0.451,5.715
					c0.752,0.752,6.919,7.069,9.024,6.167c2.106-0.902,5.264-6.768,5.565-11.431c0.301-4.663-1.354-10.528-1.354-10.528
					L323.138,164.564z"/>
				<path style="fill:none;stroke:#263238;stroke-width:0.5;stroke-linecap:round;stroke-linejoin:round;stroke-miterlimit:10;" d="
					M325.231,173.313c0,0-1.192,0.341-1.192,2.044c0,1.703,1.533,3.066,1.533,3.917c0,0.852-1.873,1.363-1.873,1.363"/>
				<path style="fill:none;stroke:#263238;stroke-width:0.5;stroke-linecap:round;stroke-linejoin:round;stroke-miterlimit:10;" d="
					M322.506,174.165c0,0-0.852-2.044-3.577-1.363"/>
				<path style="fill:none;stroke:#263238;stroke-width:0.5;stroke-linecap:round;stroke-linejoin:round;stroke-miterlimit:10;" d="
					M323.187,183.361c0,0-1.873,0.511-3.406-0.852"/>
				<path style="fill:#263238;" d="M320.803,175.442c0,0.705-0.191,1.277-0.426,1.277c-0.235,0-0.426-0.572-0.426-1.277
					c0-0.705,0.191-1.277,0.426-1.277C320.612,174.165,320.803,174.736,320.803,175.442z"/>
				<path style="fill:#263238;" d="M325.231,176.038c0,0.705-0.191,1.277-0.426,1.277c-0.235,0-0.426-0.572-0.426-1.277
					c0-0.705,0.191-1.277,0.426-1.277C325.04,174.761,325.231,175.333,325.231,176.038z"/>
			</g>
			<path style="fill:#C6FF00;stroke:#263238;stroke-linecap:round;stroke-linejoin:round;stroke-miterlimit:10;" d="
				M295.313,198.556c0,0-2.858-0.15-4.963,1.354c-2.106,1.504-1.654,7.37-0.602,13.687c1.053,6.317,6.768,23.914,8.122,26.922
				c1.354,3.008,4.512,4.963,7.37,4.963c2.858,0,21.658-10.077,21.658-10.077l-1.654-4.663c0,0-16.093,4.061-17.297,4.211
				c-1.203,0.15-6.467-26.772-6.467-26.772"/>
			<path style="fill:#FFFFFF;stroke:#263238;stroke-linecap:round;stroke-linejoin:round;stroke-miterlimit:10;" d="
				M312.459,231.795c0,0-6.167-0.15-7.069-0.15c-0.902,0-5.114,4.813-6.167,6.016c-1.053,1.203,0.15,1.504,0.602,1.654
				s3.309-1.053,3.309-1.053s-2.557,4.963-1.955,5.866s2.106,1.504,2.707,0.902c0.602-0.602,2.256-1.354,2.858-1.354
				s1.805,0,3.008-1.354c1.203-1.354,3.158-6.768,3.158-6.768l3.008-0.902v-2.256L312.459,231.795z"/>
			<path style="fill:#C6FF00;stroke:#263238;stroke-linecap:round;stroke-linejoin:round;stroke-miterlimit:10;" d="
				M311.858,231.645l1.654,10.077c0,0,20.605-5.715,23.162-6.919c2.557-1.203,1.053-7.671-0.902-9.325
				C333.817,223.824,311.858,231.645,311.858,231.645z"/>
			<path style="fill:#263238;stroke:#263238;stroke-linecap:round;stroke-linejoin:round;stroke-miterlimit:10;" d="M312.158,311.96
				l17.748-3.158c0,0,4.061-31.735,2.106-47.077c-0.428-3.36-1.049-6.486-1.75-9.347c-3.046,1.31-7.462,2.634-13.734,3.331
				c-11.644,1.294-19.44-2.061-22.407-3.667c-0.698,2.565-1.385,5.476-1.966,8.78c-2.406,13.687,0.465,16.979,4.526,26.755
				C300.741,297.354,312.158,311.96,312.158,311.96z"/>
			<path style="fill:none;stroke:#FFFFFF;stroke-width:0.75;stroke-linecap:round;stroke-linejoin:round;stroke-miterlimit:10;" d="
				M315.267,274.854c2.373,4.03,4.99,9.582,6.666,16.451"/>
			<path style="fill:none;stroke:#FFFFFF;stroke-width:0.75;stroke-linecap:round;stroke-linejoin:round;stroke-miterlimit:10;" d="
				M309.819,267.264c0,0,1.467,1.532,3.446,4.432"/>
		</g>
	</g>
</g>
<g id="Character_3_1_">
	<g>
		<g>
			<ellipse style="fill:#C6FF00;" cx="252.794" cy="391.384" rx="45.662" ry="11.182"/>
			<ellipse style="opacity:0.5;fill:#FFFFFF;" cx="252.794" cy="391.384" rx="45.662" ry="11.182"/>
		</g>
		<g>
			<path style="fill:#FFFFFF;stroke:#263238;stroke-linecap:round;stroke-linejoin:round;stroke-miterlimit:10;" d="
				M249.335,162.853c0,0-1.689-3.071-2.917-1.996c-1.228,1.075,0.768,8.904,2.303,8.444
				C250.256,168.84,249.335,162.853,249.335,162.853z"/>
			<path style="fill:#263238;stroke:#263238;stroke-linecap:round;stroke-linejoin:round;stroke-miterlimit:10;" d="
				M218.209,269.129c0,0,13.165,5.965,29.415,7.611c16.25,1.646,35.174-10.079,35.174-10.079s-18.924-29.209-19.13-29.826
				c-0.206-0.617-22.833-1.44-22.833-1.44L218.209,269.129z"/>
			<path style="fill:#263238;stroke:#263238;stroke-linecap:round;stroke-linejoin:round;stroke-miterlimit:10;" d="
				M232.011,244.807c0,0-7.548,32.148-7.548,43.61c0,11.461,0,20.687-0.559,29.912c-0.559,9.225-3.634,27.116-2.516,36.341
				c1.118,9.225,2.516,27.396,2.516,27.396s-9.784,7.827-9.784,10.623s5.87,1.957,10.902-1.118c5.032-3.075,6.43-5.311,6.43-5.311
				l1.118,1.118l1.677-1.677l0.559-6.15l5.591-50.319l7.827-50.039l13.698,60.103l12.021,41.653l2.796,1.118l0.559,2.516
				l2.796,1.677l2.795,0.279l2.796,2.516c0,0,8.946,2.796,10.623,2.236s1.677-2.796-2.796-6.15
				c-4.473-3.355-12.021-5.311-12.021-5.311s-0.839-28.235-2.796-44.728c-1.957-16.493-4.473-30.471-4.473-42.212
				c0-11.741-3.914-45.846-3.914-45.846L232.011,244.807z"/>
			<path style="fill:#FFFFFF;stroke:#263238;stroke-linecap:round;stroke-linejoin:round;stroke-miterlimit:10;" d="M251.3,181.909
				l-20.873,8.014l1.677,57.401c0,0,7.082,3.541,19.568,3.355c12.486-0.186,20.953-0.701,20.953-0.701l4.952-62.663l-20.128-4.659
				C257.45,182.654,253.723,181.35,251.3,181.909z"/>
			<polygon style="fill:#263238;stroke:#263238;stroke-linecap:round;stroke-linejoin:round;stroke-miterlimit:10;" points="
				251.486,191.973 253.723,197.75 247.386,242.664 250.741,250.119 256.332,241.546 255.587,198.123 258.196,192.345 
				255.214,186.382 			"/>
			<path style="fill:#FFFFFF;stroke:#263238;stroke-linecap:round;stroke-linejoin:round;stroke-miterlimit:10;" d="M251.33,179.28
				l-3.378,3.992l0.614,12.436l7.062-5.68l5.68,8.29c0,0,2.303-10.9,1.382-14.278c-0.921-3.378-4.145-5.527-5.834-5.22
				C255.168,179.126,251.33,179.28,251.33,179.28z"/>
			<path style="fill:#FFFFFF;stroke:#263238;stroke-linecap:round;stroke-linejoin:round;stroke-miterlimit:10;" d="
				M250.409,173.446c0,0,0.021,0.24,0.059,0.651c0.189,2.05,0.785,8.357,1.169,10.403c0.461,2.456,3.685,5.22,4.913,4.759
				c1.228-0.461,4.145-4.145,4.452-5.373c0.307-1.228,1.535-6.909,1.535-6.909s-3.992,1.842-5.68,1.842
				C255.168,178.819,250.409,173.446,250.409,173.446z"/>
			<path style="fill:#FFFFFF;stroke:#263238;stroke-linecap:round;stroke-linejoin:round;stroke-miterlimit:10;" d="
				M266.478,165.426c0,0,2.497-2.459,3.366-1.077c0.869,1.381-3.284,8.312-4.624,7.431
				C263.882,170.899,266.478,165.426,266.478,165.426z"/>
			<g>
				<path style="fill:#FFFFFF;stroke:#263238;stroke-linecap:round;stroke-linejoin:round;stroke-miterlimit:10;" d="
					M254.969,152.109c0,0-3.833,1.643-4.654,3.559c-0.821,1.916-2.19,12.046-0.821,16.7c1.369,4.654,4.654,8.761,6.57,9.035
					c1.916,0.274,6.844-2.19,8.213-6.571c1.369-4.38,2.738-9.034,3.012-12.046c0.274-3.012,2.464-1.369-0.548-5.749
					C263.73,152.657,257.433,150.467,254.969,152.109z"/>
				<g>
					<g>
						<path style="fill:#263238;" d="M256.203,164.967c0.02,0.75-0.268,1.366-0.643,1.376s-0.695-0.59-0.715-1.34
							c-0.02-0.75,0.268-1.366,0.643-1.376C255.863,163.617,256.183,164.217,256.203,164.967z"/>
						<path style="fill:#263238;" d="M261.528,165.334c0.02,0.75-0.268,1.366-0.643,1.376c-0.375,0.01-0.695-0.59-0.715-1.34
							c-0.02-0.75,0.268-1.366,0.643-1.376C261.189,163.984,261.508,164.584,261.528,165.334z"/>
						
							<path style="fill:none;stroke:#263238;stroke-width:0.5;stroke-linecap:round;stroke-linejoin:round;stroke-miterlimit:10;" d="
							M253.461,161.58c0,0,1.313-1.902,3.299-0.929"/>
						
							<path style="fill:none;stroke:#263238;stroke-width:0.5;stroke-linecap:round;stroke-linejoin:round;stroke-miterlimit:10;" d="
							M259.702,161.181c0,0,1.735-0.839,3.676,1.421"/>
						
							<path style="fill:none;stroke:#263238;stroke-width:0.5;stroke-linecap:round;stroke-linejoin:round;stroke-miterlimit:10;" d="
							M255.131,172.378c0,0,2.082,1.062,4.191,0.472"/>
					</g>
					
						<path style="fill:none;stroke:#263238;stroke-width:0.5;stroke-linecap:round;stroke-linejoin:round;stroke-miterlimit:10;" d="
						M259.088,163.066c0,0,0.928,6.493,0.232,6.841c-0.696,0.348-2.203-0.464-2.203-0.464"/>
				</g>
			</g>
			<path style="fill:#263238;stroke:#263238;stroke-linecap:round;stroke-linejoin:round;stroke-miterlimit:10;" d="M250.87,149.036
				c0,0-5.22,1.075-5.066,3.838c0.154,2.763,1.996,7.676,1.996,7.676s1.842,1.075,1.535,2.303c-0.307,1.228-0.154,3.838,0.921,2.917
				c1.075-0.921,0.461-4.299,0.921-4.759c0.46-0.461,1.842-1.228,1.842-3.071s-1.075-3.531-0.768-3.992
				c0.307-0.461,5.68,0.154,8.29,1.382c2.61,1.228,6.141,3.224,5.22,5.22c-0.921,1.996,0.307,3.07,0.307,3.07
				s-1.075,2.917-0.307,3.685s1.689-2.61,1.689-2.61s1.535-0.154,1.996-2.149c0.461-1.996,1.075-5.066,0.614-7.523
				c-0.461-2.456-5.527-6.602-11.054-6.755C253.48,148.115,250.87,149.036,250.87,149.036z"/>
			<path style="fill:#263238;stroke:#263238;stroke-linecap:round;stroke-linejoin:round;stroke-miterlimit:10;" d="
				M251.484,151.646c0,0,6.294,5.527,11.668,7.676c5.373,2.149,12.282-1.842,12.589-4.913c0.307-3.07-4.913-7.523-6.294-7.676
				c-1.382-0.154,0.768-1.996-4.299-3.531c-5.066-1.535-16.274-0.614-16.888,2.456C247.646,148.729,251.484,151.646,251.484,151.646
				z"/>
			<path style="fill:#C6FF00;stroke:#263238;stroke-linecap:round;stroke-linejoin:round;stroke-miterlimit:10;" d="
				M248.691,182.841c0,0-0.745,35.41-5.032,47.523c-4.286,12.114-9.691,24.227-14.35,28.514
				c-4.659,4.286-12.859,17.891-12.859,17.891s-2.795-5.405-2.795-7.082s13.046-13.605,14.164-14.723
				c1.118-1.118,1.677-6.896,1.677-15.468s-2.05-48.828-2.05-49.573C227.445,189.177,245.15,181.909,248.691,182.841z"/>
			<path style="fill:#C6FF00;stroke:#263238;stroke-linecap:round;stroke-linejoin:round;stroke-miterlimit:10;" d="
				M227.445,189.923c0,0-0.147,0.215-0.403,0.615c-1.185,1.852-4.036,7.914-6.772,14.574c-3.457,8.416-12.58,22.364-10.623,25.159
				c1.957,2.795,6.989,4.473,10.064,1.118c3.075-3.355,10.623-17.612,10.623-17.612S229.309,192.904,227.445,189.923z"/>
			<path style="fill:#C6FF00;stroke:#263238;stroke-linecap:round;stroke-linejoin:round;stroke-miterlimit:10;" d="
				M262.296,183.213c0,0,0.373,24.414,1.118,41.187c0.746,16.773,2.982,23.109,4.846,26.278
				c1.864,3.168,15.468,24.228,15.468,24.228s3.168-6.523,2.796-9.132c-0.373-2.609-10.25-19.196-10.25-20.128
				c0-0.932,4.286-55.91,3.541-57.401C279.069,186.754,262.296,183.213,262.296,183.213z"/>
			<polyline style="fill:none;stroke:#263238;stroke-linecap:round;stroke-linejoin:round;stroke-miterlimit:10;" points="
				244.777,185.077 239.373,198.495 243.659,202.782 239,208 241.609,227.941 			"/>
			<polyline style="fill:none;stroke:#263238;stroke-linecap:round;stroke-linejoin:round;stroke-miterlimit:10;" points="
				264.905,185.263 269.937,197.191 264.346,200.545 269.937,209.305 264.532,223.468 			"/>
			<polygon style="fill:#FFFFFF;stroke:#263238;stroke-linecap:round;stroke-linejoin:round;stroke-miterlimit:10;" points="
				232.011,256.269 232.949,258.709 226.305,263.835 224.217,259.089 			"/>
			<path style="fill:#C6FF00;stroke:#263238;stroke-linecap:round;stroke-linejoin:round;stroke-miterlimit:10;" d="
				M218.872,226.357l13.139,29.912l-9.784,7.548c0,0-14.257-29.912-14.257-32.428s3.075-7.548,4.473-8.387"/>
			<polygon style="fill:#FFFFFF;stroke:#263238;stroke-linecap:round;stroke-linejoin:round;stroke-miterlimit:10;" points="
				232.949,258.709 235.228,259.848 228.963,268.391 226.305,263.835 			"/>
			<polygon style="fill:#FFFFFF;stroke:#263238;stroke-linecap:round;stroke-linejoin:round;stroke-miterlimit:10;" points="
				267.735,256.703 266.558,259.037 272.657,264.801 275.209,260.287 			"/>
			<path style="fill:#C6FF00;stroke:#263238;stroke-linecap:round;stroke-linejoin:round;stroke-miterlimit:10;" d="
				M279.814,188.245c0,0,2.874,3.071,3.253,5.918c0.38,2.848,10.441,36.259,10.821,37.778c0.38,1.519-3.417,3.987-7.214,4.556
				c-3.797,0.57-8.543-14.238-8.543-14.238L279.814,188.245z"/>
			<path style="fill:#C6FF00;stroke:#263238;stroke-linecap:round;stroke-linejoin:round;stroke-miterlimit:10;" d="
				M283.799,228.254l-16.063,28.448l8.981,8.488c0,0,17.176-28.337,17.427-30.84c0.252-2.503-2.305-7.817-3.612-8.792"/>
			<polygon style="fill:#FFFFFF;stroke:#263238;stroke-linecap:round;stroke-linejoin:round;stroke-miterlimit:10;" points="
				266.558,259.037 264.177,259.942 269.557,269.069 272.657,264.801 			"/>
		</g>
	</g>
</g>
</svg>
